SplineFontDB: 3.0
FontName: Untitled1
FullName: Untitled1
FamilyName: Untitled1
Weight: Regular
Copyright: Copyright (c) 2018, Yuansheng Zhao,,,
UComments: "2018-7-28: Created with FontForge (http://fontforge.org)"
Version: 001.000
ItalicAngle: 0
UnderlinePosition: -100
UnderlineWidth: 50
Ascent: 800
Descent: 200
InvalidEm: 0
LayerCount: 2
Layer: 0 0 "Back" 1
Layer: 1 0 "Fore" 0
XUID: [1021 64 1373207084 13806451]
StyleMap: 0x0000
FSType: 0
OS2Version: 0
OS2_WeightWidthSlopeOnly: 0
OS2_UseTypoMetrics: 1
CreationTime: 1532764129
ModificationTime: 1541815382
OS2TypoAscent: 0
OS2TypoAOffset: 1
OS2TypoDescent: 0
OS2TypoDOffset: 1
OS2TypoLinegap: 90
OS2WinAscent: 0
OS2WinAOffset: 1
OS2WinDescent: 0
OS2WinDOffset: 1
HheadAscent: 0
HheadAOffset: 1
HheadDescent: 0
HheadDOffset: 1
OS2Vendor: 'PfEd'
DEI: 91125
Encoding: UnicodeFull
UnicodeInterp: none
NameList: AGL For New Fonts
DisplaySize: -96
AntiAlias: 1
FitToEm: 1
WinInfo: 91 13 7
BeginChars: 1114117 139

StartChar: A
Encoding: 65 65 0
Width: 1851
VWidth: 950
Flags: HW
HStem: -49 32<932.999 1062.28> -22.75 45.2002<1585.23 1662.23> -5 34<80.3933 160.494 643.405 706.621> 0 32<286.903 334.5 433.309 517.246> 171.75 46.2002<1305.29 1482.99> 208 69<930.508 1051.69> 258 33<456.186 590.611> 656 20G<736.689 743.189 1552.2 1568.74>
VStem: 829.189 43<33.7383 167.767> 1742.19 28.4004<130.079 181.085>
LayerCount: 2
Fore
SplineSet
104.189453125 -5 m 0x23c0
 88.189453125 -5 82.189453125 -1 80.189453125 8 c 0
 78.189453125 18 92.189453125 23 114.189453125 29 c 0
 170.189453125 44 212.189453125 71 245.189453125 108 c 0
 393.189453125 271 496.189453125 415 616.189453125 569 c 0
 640.189453125 599 654.189453125 622 662.189453125 622 c 0
 690.189453125 622 694.189453125 632 710.189453125 649 c 0
 729.189453125 670 733.189453125 676 740.189453125 676 c 0
 746.189453125 676 750.189453125 670 745.189453125 644 c 2
 641.189453125 122 l 2
 628.189453125 58 638.189453125 36 676.189453125 25 c 0
 697.189453125 19 708.189453125 16 708.189453125 7 c 0
 708.189453125 -1 699.189453125 -5 677.189453125 -5 c 0x23c0
 651.189453125 -5 598.189453125 1 556.189453125 1 c 0
 520.189453125 1 479.189453125 0 457.189453125 0 c 0
 441.189453125 0 435.189453125 4 433.189453125 12 c 0
 431.189453125 21 444.189453125 29 461.189453125 32 c 0x11c0
 527.189453125 43 544.189453125 56 559.189453125 112 c 2
 590.189453125 231 l 2
 595.189453125 251 580.189453125 258 561.189453125 258 c 2
 449.189453125 256 l 2
 428.189453125 256 416.189453125 252 406.189453125 238 c 2
 303.189453125 102 l 2
 266.189453125 53 287.189453125 42 310.189453125 34 c 0
 325.189453125 29 335.189453125 22 335.189453125 12 c 0
 335.189453125 3 323.189453125 -1 307.189453125 -1 c 0
 290.189453125 -1 263.189453125 1 229.189453125 1 c 0
 188.189453125 1 135.189453125 -5 104.189453125 -5 c 0x23c0
474.189453125 290 m 2
 581.189453125 291 l 2
 595.189453125 291 603.189453125 298 608.189453125 319 c 2
 656.189453125 538 l 2
 660.189453125 554 660.189453125 561 653.189453125 561 c 0
 648.189453125 561 641.189453125 559 634.189453125 549 c 2
 456.189453125 312 l 2
 446.189453125 299 438.189453125 290 474.189453125 290 c 2
1618.2890625 22.4501953125 m 0x41c0
 1687.55957031 24.89453125 1733.18945312 126 1742.18945312 173 c 0
 1746.51953125 195.611328125 1776.14746094 182.606445312 1770.58984375 160.150390625 c 0
 1757.18945312 106 1695.09960938 -22.75 1593.68945312 -22.75 c 3
 1501.00390625 -22.75 1487.2421875 93.203125 1482.68945312 171.75 c 1
 1280.63964844 171.75 l 1x49c0
 1210.33984375 71.0498046875 1119.13964844 -48.37890625 991.189453125 -49 c 0
 883.190429688 -49.5244140625 829.189453125 35 829.189453125 102 c 0
 829.189453125 191 905.189453125 277 1026.18945312 277 c 0
 1077.18945312 277 1102.18945312 249 1102.18945312 221 c 0
 1102.18945312 196 1087.18945312 166 1055.18945312 166 c 0
 1030.18945312 166 1021.18945312 179 1013.18945312 189 c 0
 1005.18945312 198 998.189453125 208 980.189453125 208 c 0
 923.189453125 208 872.189453125 168 872.189453125 111 c 0
 872.189453125 21 931.189453125 -17 1004.18945312 -17 c 3x85c0
 1108.33691406 -17 1207.89941406 122.635742188 1301.62207031 272 c 0
 1397.62304688 424.99609375 1490.67675781 592.129882812 1514.08984375 633.650390625 c 4
 1529.83496094 661.571289062 1540.41113281 685.849609375 1563.98925781 685.849609375 c 0
 1573.48925781 685.849609375 1593.08007812 673.955078125 1591.48925781 646.049804688 c 0
 1584.70019531 526.982421875 1502.40136719 18.361328125 1618.2890625 22.4501953125 c 0x41c0
1516.88964844 571.950195312 m 1
 1476.49902344 499.245117188 1378.625 328.168945312 1305.2890625 215.799804688 c 1
 1337.58496094 217.134765625 1422.95703125 217.950195312 1482.98925781 217.950195312 c 1
 1484.49121094 252.919921875 1485.55078125 323.022460938 1494.88867188 404 c 0
 1501.73925781 463.400390625 1512.27636719 525.34765625 1516.88964844 571.950195312 c 1
EndSplineSet
EndChar

StartChar: B
Encoding: 66 66 1
Width: 1555
Flags: W
HStem: -20.9004 33.2002<1061.75 1213.85> -4 25<80.375 150.153 313.369 409.978> 346 25<374.938 453.325> 360 70<780 851.542> 625 30<282.34 341.239 435.586 539.98> 629.5 41.2002<903.169 1016.3 1253.27 1364.23>
VStem: 539 81<124.728 280.543> 596 81<456.588 584.062> 718 45<447.246 547.765> 1352.25 85.6504<136.674 277.522> 1391.4 83.6494<487.997 604.847>
LayerCount: 2
Fore
SplineSet
104 -5 m 4x4a80
 88 -5 80 -3 80 6 c 4
 80 16 93 20 116 24 c 4
 165 33 197 51 212 99 c 6
 349 549 l 6
 364 598 354 613 309 621 c 4
 289 625 282 628 282 638 c 4
 282 647 299 650 315 650 c 4
 348 650 362 645 390 645 c 4
 420 645 467 655 492 655 c 4
 627 655 677 595 677 525 c 4x4980
 677 430 574 376 498 366 c 4
 487 365 490 358 495 356 c 4
 572 326 620 285 620 192 c 4
 620 76 505 -4 352 -4 c 4
 296 -4 263 3 226 3 c 4
 178 3 158 -5 104 -5 c 4x4a80
385 371 m 4x2980
 416 371 445 376 477 383 c 5
 543 411 596 457 596 525 c 4
 596 580 551 625 473 625 c 4
 448 625 438 621 435 609 c 6
 373 386 l 6
 370 374 375 371 385 371 c 4x2980
349 21 m 4x6280
 439 21 539 99 539 205 c 4
 539 297 483 346 374 346 c 4
 364 346 356 339 353 327 c 6
 289 108 l 6
 282 84 283 59 299 45 c 4
 313 32 326 21 349 21 c 4x6280
1166.29980469 12.2998046875 m 0x94c0
 1231.84960938 12.2998046875 1352.25 87.150390625 1352.25 219.200195312 c 0x94c0
 1352.25 310.400390625 1276.5 334.400390625 1178.65039062 334.400390625 c 0
 1149.16894531 334.400390625 1146 346.978515625 1146 358 c 0
 1146 366.650390625 1154.32714844 380.484375 1191 384.75 c 0
 1300.52050781 397.489257812 1391.40039062 475.950195312 1391.40039062 546.950195312 c 0
 1391.40039062 602.049804688 1349.90039062 629.5 1311.65039062 629.5 c 0
 1240.40039062 629.5 1182.45019531 574.75 1144.45019531 524.400390625 c 0
 1070.34960938 424.650390625 1032.8046875 266.955078125 1015.25 211.849609375 c 0
 986.5 121.599609375 954 36.5 935 -1.5 c 0
 915.928710938 -37.63671875 848.58203125 -45.9736328125 871.799804688 12.349609375 c 0
 907.349609375 101.650390625 937.349609375 181.450195312 964.900390625 308.75 c 0
 982 388.549804688 1002 490 1016.20019531 607.200195312 c 0
 1018.58398438 626.872070312 1009.09082031 628.471679688 971 629 c 0
 879.213867188 630.274414062 763 571 763 498 c 0
 763 452 791 437 828 430 c 0
 846 427 856 414 856 399 c 0
 856 381 842 360 806 360 c 0
 752 360 718 412 718 464 c 0
 718 594 837 669 1077 669 c 3
 1090.92089844 669 1103.75 651.56640625 1097.75 630.200195312 c 0
 1078.90039062 514.900390625 l 1
 1079.84960938 514.900390625 l 1
 1173.90039062 634.599609375 1281.70019531 670.700195312 1348.20019531 670.700195312 c 0
 1416.59960938 670.700195312 1475.04980469 612.700195312 1475.04980469 554.75 c 0x94a0
 1475.04980469 445.950195312 1321.09960938 375.349609375 1233.04980469 367.75 c 1
 1314.75 356.349609375 1437.90039062 307.200195312 1437.90039062 216 c 0
 1437.90039062 63.0498046875 1240.40039062 -20.900390625 1100.75 -20.900390625 c 0
 1022.75 -20.900390625 953.8671875 9.1826171875 967.748046875 60.9892578125 c 0
 972.924804688 80.3076171875 986.158203125 105.84765625 1017.15820312 105.84765625 c 3
 1050.95410156 105.84765625 1054.08203125 71.6953125 1070.72949219 51.6328125 c 0
 1084.73242188 34.7578125 1133.86230469 12.2998046875 1166.29980469 12.2998046875 c 0x94c0
EndSplineSet
EndChar

StartChar: C
Encoding: 67 67 2
Width: 1351
Flags: W
HStem: -20.75 47.2002<884.197 1030.75> 11 6<447 461> 303.97 29.6504<1010.74 1120.03> 634 31<407.747 549.464 981.471 1148.28>
VStem: 80 88<140.567 365.222> 606 33<467.178 536.318> 688.3 85.6504<139.175 352.216> 920 74<351.161 431.061> 1150 32.1445<125.966 172.795> 1209 62.6504<428.235 581.53>
LayerCount: 2
Fore
SplineSet
332 -14 m 0x7fc0
 223 -14 80 84 80 240 c 0
 80 479 270 665 487 665 c 0
 524 665 561 659 598 646 c 0
 623 638 641 630 655 630 c 0
 661 630 668 634 676 638 c 0
 684 641 692 645 699 645 c 0
 711 645 710 634 706 629 c 0
 684 599 648 532 639 487 c 0
 637 477 628 467 621 467 c 0
 609 467 604 481 606 493 c 0
 612 523 614 556 591 585 c 0
 568 614 530 634 484 634 c 0
 340 634 168 458 168 232 c 0
 168 70 274 17 359 17 c 0
 461 17 498 71 538 139 c 0
 544 149 550 158 561 158 c 0
 567 158 568 151 568 138 c 0
 568 118 509 -9 496 -9 c 0
 491 -9 484 -3 477 2 c 0
 471 7 464 11 456 11 c 0
 447 11 433 6 415 0 c 0
 395 -7 367 -14 332 -14 c 0x7fc0
1271.65039062 512 m 4
 1271.65039062 393.099609375 1156.96484375 303.969726562 1041.75878906 303.969726562 c 4
 981.186523438 303.969726562 920 349.674804688 920 408 c 4
 920 453 946 489 981 489 c 4
 1016 489 1032 457 1032 438 c 4
 1032 412.654296875 994 400.259765625 994 375 c 4
 994 357.201171875 1020.03613281 333.620117188 1057.82617188 333.620117188 c 4
 1154.875 333.620117188 1209 423.544921875 1209 510.200195312 c 4
 1209 563.450195312 1175.84960938 638.549804688 1067.25 638.549804688 c 4
 879.666015625 638.549804688 773.950195312 401.76953125 773.950195312 238.450195312 c 4
 773.950195312 95 881.75 26.4501953125 970.099609375 26.4501953125 c 4
 1083.0703125 26.4501953125 1128.03222656 102.982421875 1150 159 c 4
 1153.87988281 168.892578125 1161.71289062 172.9453125 1168.19433594 172.9453125 c 4
 1175.67871094 172.9453125 1182.14453125 167.205078125 1182.14453125 157.314453125 c 4
 1182.14453125 124.333007812 1098.25976562 -20.75 921.5 -20.75 c 4xbfc0
 803.150390625 -20.75 688.299804688 82.25 688.299804688 226.650390625 c 4
 688.299804688 426.762695312 867.412109375 669.75 1082.79980469 669.75 c 4
 1178.04980469 669.75 1271.65039062 600.700195312 1271.65039062 512 c 4
EndSplineSet
EndChar

StartChar: D
Encoding: 68 68 3
Width: 1658
VWidth: 950
Flags: HW
HStem: -7 30<267.254 493.275> -5 29<80.7629 171.218> -2 37.3496<945.19 1003.42 1071.1 1196.61> 334 84<924.365 998.583> 622 27<247.18 328.504 451.125 611.814 1219.83 1302.18>
VStem: 743 86<265.985 493.048> 860 53<429.237 526.603> 1136.85 75.8008<460.756 615.65> 1494.41 84.1865<285.65 483.304>
LayerCount: 2
Fore
SplineSet
401 -7 m 4x9f80
 382 -7 281 0 208 0 c 4
 171 0 153 -5 104 -5 c 4
 88 -5 80 -2 80 6 c 4
 80 15 93 23 116 24 c 4x5f80
 179 26 191 51 207 99 c 6
 357 560 l 6
 372 608 314 613 270 622 c 4
 250 626 246 633 246 642 c 4
 246 650 260 653 276 653 c 4
 329 653 371 649 413 649 c 4
 453 649 469 655 516 655 c 4
 703 655 829 560 829 377 c 4
 829 174 654 -7 401 -7 c 4x9f80
406 23 m 4x9f80
 605 23 743 207 743 395 c 4
 743 548 661 622 526 622 c 4
 442 622 442 605 431 571 c 6
 295 141 l 6
 267 52 314 23 406 23 c 4x9f80
944.75 20.650390625 m 4
 944.75 26.349609375 953 35.2001953125 996.700195312 35.349609375 c 5
 1068.90039062 209.200195312 1124.5 427.549804688 1136.84960938 615.650390625 c 5
 1062.84960938 613.650390625 913 575.03515625 913 478 c 4
 913 432 937.73046875 421.993164062 975 418 c 4
 1003 415 1007 394 1007 379 c 4
 1007 361 989 334 953 334 c 4
 899 334 860 392 860 444 c 4
 860 574 991 653 1231 653 c 4
 1388.46679688 652.73828125 1578.59960938 583.53515625 1578.59960938 407.5 c 4
 1578.59960938 149.099609375 1326.25 -2 1067.29980469 -2 c 4x3f80
 965.21875 -2 944.75 1.51171875 944.75 20.650390625 c 4
1071.09960938 37.2001953125 m 5
 1278.37695312 37.2001953125 1494.41308594 162.501953125 1494.41308594 383.9609375 c 4
 1494.41308594 548.165039062 1366.08203125 618.650390625 1212.65039062 618.650390625 c 5
 1193.65039062 444.799804688 1159.45019531 251.900390625 1071.09960938 37.2001953125 c 5
EndSplineSet
EndChar

StartChar: E
Encoding: 69 69 4
Width: 1340
Flags: W
HStem: -21 40<938.34 1091.59> -5 31<81.3513 173.902 295.675 551.05> 320 43<1048.28 1153.29> 322 27<377.297 541.349> 400 20G<616 627> 622 28<275.258 354.124 454.525 663.119> 634 27<1074.67 1179.35>
VStem: 553 26<237.015 309.096> 677 28<516.463 594.81> 797 85<68.7104 200.82> 903 83<420.955 558.023> 1197.17 62.8301<540.108 624.393> 1214 30<124.764 175.935>
LayerCount: 2
Fore
SplineSet
104 -5 m 0x59e0
 88 -5 80 -2 80 6 c 0
 80 15 93 20 116 24 c 0
 182 35 205 54 219 99 c 2
 356 549 l 2
 374 606 359 617 300 625 c 0
 280 628 274 633 274 642 c 0
 274 650 289 653 305 653 c 0
 320 653 384 650 426 650 c 2
 587 650 l 2
 696 650 719 660 724 660 c 0
 729 660 735 652 735 647 c 0
 735 635 713 593 705 535 c 0
 703 521 694 516 688 516 c 0
 681 516 676 526 677 541 c 0
 681 602 671 622 618 622 c 2
 496 622 l 2
 464 622 454 614 447 592 c 2
 380 380 l 2
 372 356 375 348 396 349 c 2x5de0
 520 352 l 2
 554 353 573 369 589 389 c 0
 598 400 610 420 622 420 c 0
 632 420 633 406 626 392 c 0
 614 369 606 350 599 331 c 0
 591 309 585 287 579 258 c 0
 577 249 573 237 566 237 c 0
 555 237 553 257 553 264 c 0
 553 305 538 320 515 320 c 2x29e0
 400 322 l 2
 377 322 360 320 352 291 c 2
 301 109 l 2
 282 41 293 26 335 26 c 2
 490 26 l 2
 523 26 549 38 570 53 c 0
 590 67 607 88 624 116 c 0
 629 124 634 134 642 134 c 0
 648 134 649 122 649 114 c 0
 649 96 624 39 610 16 c 0
 602 3 593 -5 577 -5 c 0
 440 -5 317 1 224 1 c 0
 175 1 154 -5 104 -5 c 0x59e0
1143 634 m 0xabf0
 1019 634 986 534 986 483 c 0
 986 433 1020 363 1141 363 c 0
 1153 363 1154 353 1154 347 c 0
 1154 328 1135 324 1073 320 c 0
 936 310 882 220 882 139 c 0
 882 58 945 19 1014 19 c 0
 1107 19 1197.03710938 82.1865234375 1214 162 c 0
 1216.12011719 171.975585938 1223 176 1228 176 c 0
 1237 176 1244 166 1244 155 c 0xabe8
 1244 99 1150 -21 980 -21 c 0
 868 -21 797 54 797 135 c 0
 797 205 880 298 1017 344 c 1
 971 359 903 423 903 481 c 0
 903 584 999 661 1170 661 c 0
 1232 661 1260 628 1260 593 c 0
 1260 555.247070312 1231.77734375 523 1201 523 c 0
 1193 523 1189 527 1189 532 c 0
 1189 546.279296875 1197.16992188 558.295898438 1197.16992188 575.130859375 c 0
 1197.16992188 609.762695312 1179.55273438 634 1143 634 c 0xabf0
EndSplineSet
EndChar

StartChar: F
Encoding: 70 70 5
Width: 1650
Flags: W
HStem: -30.4004 29.9062<841.633 918.527> -5 29<80.7629 158.706 290.97 359.641> 297.85 43.2002<1146.6 1401.71> 322 27<358.265 522.173> 390 32<912.467 957.082> 555 44.0039<1328.23 1508.08> 618 32<269.007 335.459 435.112 649.285> 630 32<964.498 1148.28>
VStem: 533 28<246.052 311.503> 659 56<546 652> 756.15 80.8496<1.8531 82.6457> 832 56<440.081 572.443> 959 55<422.772 456.326> 1496.89 73.1055<610.615 661.824>
LayerCount: 2
Fore
SplineSet
104 -5 m 4x5ecc
 88 -5 80 -3 80 6 c 4
 80 16 93 20 116 24 c 4
 165 33 185 50 200 99 c 6
 337 549 l 6
 353 597 336 613 292 622 c 4
 272 626 267 633 267 642 c 4
 267 650 282 653 298 653 c 4
 313 653 365 650 407 650 c 6
 566 650 l 6x5ecc
 657 650 702 662 707 662 c 4
 714 662 715 659 715 652 c 4
 715 647 713 640 710 630 c 4x0dcc
 703 607 691 567 687 540 c 4
 686 533 683 523 670 523 c 4
 660 523 659 535 659 546 c 4
 659 570 661 593 648 606 c 4
 641 613 630 618 611 618 c 6
 467 618 l 6
 442 618 435 604 428 588 c 4
 424 579 374 423 359 374 c 4
 356 363 357 349 366 349 c 6
 501 352 l 6
 528 353 554 367 572 389 c 4
 581 400 593 410 598 410 c 4
 605 410 611 403 607 394 c 4
 584 343 574 314 561 263 c 4
 558 254 555 246 548 246 c 4
 537 246 533 262 533 269 c 4
 533 308 517 319 496 320 c 4
 473 322 399 322 381 322 c 4
 358 322 341 320 333 291 c 6
 282 113 l 6
 262 44 282 35 335 24 c 4
 355 20 360 16 360 6 c 4
 360 -3 346 -5 330 -5 c 4
 280 -5 262 2 223 2 c 4
 177 2 154 -5 104 -5 c 4x5ecc
1155 613 m 1
 1119 621 1084 630 1052 630 c 0
 930 630 888 564 888 506 c 0
 888 464 912 422 941 422 c 0
 957 422 954.088867188 433.405273438 959 442 c 0
 963 449 974 457 986 457 c 0
 1005 457 1014 442 1014 427 c 0
 1014 409 988 390 952 390 c 0
 878 390 832 445 832 506 c 0xaddc
 832 580 900 662 1067 662 c 0
 1203.87109375 662 1372.44238281 599.00390625 1465.30078125 599.00390625 c 0
 1482.12011719 599.00390625 1495.7578125 601.70703125 1509 606 c 1
 1501 620 1496.89453125 635.232421875 1496.89453125 647.158203125 c 0
 1496.89453125 653.12109375 1497.92089844 658.2578125 1500 662 c 0
 1510 680 1524 689 1542 689 c 0
 1558 689 1570 674 1570 655 c 0
 1570 626 1519 555 1430 555 c 0
 1380.86132812 555 1256.64746094 600.650390625 1220.70019531 604.650390625 c 1
 1211.20019531 559.049804688 1163.54980469 390.450195312 1146.59960938 341.049804688 c 1
 1383.15039062 341.049804688 l 2
 1395.82324219 341.049804688 1402.68945312 334.92578125 1402.68945312 325.723632812 c 0
 1402.68945312 313.706054688 1391.68457031 297.849609375 1373.75 297.849609375 c 1
 1134.70019531 297.849609375 l 1
 1117.59960938 244.650390625 1096.11035156 178.776367188 1049 89 c 0
 996 -12 925.299804688 -30.400390625 867.299804688 -30.400390625 c 0
 814.666015625 -30.400390625 756.150390625 -10.9794921875 756.150390625 53.599609375 c 0
 756.150390625 80.7001953125 779.349609375 112.150390625 811.200195312 112.150390625 c 0
 834.892578125 112.150390625 860 98.3984375 860 76 c 0
 860 50 837 47.4912109375 837 28 c 0
 837 10.44921875 852.09375 -0.494140625 875.892578125 -0.494140625 c 3xadec
 944.333007812 -0.494140625 997 112 1027.84960938 211.849609375 c 0
 1070.76660156 350.755859375 1108.703125 492.767578125 1155 613 c 1
EndSplineSet
EndChar

StartChar: G
Encoding: 71 71 6
Width: 1368
Flags: W
HStem: -113.05 132.05<779.463 835.743> -14 28<316.817 443.6> 74.5996 35.2002<919.823 1049.71> 260 30<431.012 518.25 622.233 685.871> 634 29<411.974 554.552 1033.4 1207.01>
VStem: 80 88<142.781 368.126> 525 36<92 209> 612 33<464.2 536.318> 741.75 92.6504<208.028 416.797> 1174.75 108.592<456.742 516.091> 1179.25 81.7002<249.099 336.427>
LayerCount: 2
Fore
SplineSet
388 -14 m 0x7f80
 216 -14 80 73 80 254 c 0
 80 486 267 663 513 663 c 0
 556 663 586 653 610 644 c 0
 630 636 646 629 662 629 c 0
 669 629 677 634 685 638 c 0
 692 642 698 645 705 645 c 0
 717 645 716 634 712 629 c 0
 690 599 654 532 645 487 c 0
 642 474 634 464 627 464 c 0
 614 464 609 475 612 493 c 0
 617 523 616 557 595 585 c 0
 578 608 546 634 494 634 c 0
 309 634 168 431 168 228 c 0
 168 95 287 14 388 14 c 0
 449 14 485 53 497 100 c 2
 525 209 l 2
 531 234 525 245 507 250 c 0
 490 255 472 258 462 260 c 0
 448 263 431 266 431 275 c 0
 431 284 445 290 463 290 c 0
 509 290 534 284 580 284 c 0
 613 284 632 290 665 290 c 0
 677 290 686 284 686 276 c 0
 686 269 675 260 654 256 c 0
 624 251 609 240 597 213 c 0
 579 174 561 107 561 92 c 0
 561 80 564 72 572 60 c 1
 557 22 447 -14 388 -14 c 0x7f80
1227.33691406 437.327148438 m 0
 1195.62597656 433.357421875 1170.78222656 451.102539062 1174.74902344 487.643554688 c 0xbfc0
 1179.25390625 529.139648438 1225.06835938 518.442382812 1238.18457031 546.916992188 c 0
 1260.96582031 596.375976562 1217.73925781 635.549804688 1123.25 635.549804688 c 0
 1054.90039062 635.549804688 982.849609375 611.200195312 918 545.799804688 c 0
 847.168945312 474.3671875 834.400390625 362.900390625 834.400390625 303.049804688 c 0
 834.400390625 199.5 889.5 109.799804688 988.299804688 109.799804688 c 0
 1050.04980469 109.799804688 1084.25 151.049804688 1105.15039062 171 c 0
 1151.70019531 218.5 1169.75 274.549804688 1179.25 306.849609375 c 0
 1184.95019531 323.950195312 1211.5 351.5 1231.45019531 351.5 c 0
 1246.20019531 351.5 1260.95019531 341.650390625 1260.95019531 303.900390625 c 0xbfa0
 1260.95019531 286.299804688 1233.40039062 236.549804688 1225.79980469 208.049804688 c 0
 1212.5 167.200195312 1201.09960938 130.150390625 1180.20019531 82.650390625 c 0
 1112.75 -67.4501953125 1007.79980469 -113.049804688 929.900390625 -113.049804688 c 0
 837.75 -113.049804688 772.200195312 -104.099609375 752.200195312 -66.5 c 0
 730.52734375 -25.7548828125 761.448242188 17.666015625 785.349609375 19 c 0
 856.998046875 22.998046875 830.6171875 -36.9755859375 866.75 -64.7001953125 c 0
 896.202148438 -87.298828125 928.168945312 -86.140625 959 -80.0830078125 c 0
 1004.33691406 -71.1748046875 1044.31933594 -48.9775390625 1077.59960938 7.599609375 c 0
 1094.70019531 36.099609375 1119.40039062 91.2001953125 1137.45019531 152.950195312 c 1
 1098.5 120.650390625 1053 74.599609375 963.700195312 74.599609375 c 0
 846.849609375 74.599609375 741.75 184.849609375 741.75 291.25 c 0
 741.75 400.99609375 790.322265625 511.65625 879 579.290039062 c 0
 960.70703125 641.607421875 1048.79882812 669.75 1138.79980469 669.75 c 0
 1282.45019531 669.75 1299.58398438 552.046875 1283.34082031 499.829101562 c 0xbfc0
 1271.76953125 462.627929688 1255.234375 440.819335938 1227.33691406 437.327148438 c 0
EndSplineSet
EndChar

StartChar: H
Encoding: 72 72 7
Width: 1890
Flags: W
HStem: -53 27<934.974 1004.93> -47.75 42.2002<1462 1586.47> -5 29<80.8095 153.465 281.926 344.641 501.844 577.446 694.888 750.641> 266.05 52.2002<1038.87 1127.5 1214.9 1423.95> 307 38<345.912 685> 356 70<934.827 1008.54> 614 39<1043.06 1217.04> 616 30<1650.95 1731.59> 622 31<281.501 337.532 448.255 527.556 698.501 755.031 867.674 942.556>
VStem: 875 43<443.28 540.541> 1127.5 71.25<191.063 266.05> 1743 67<528.255 608.55>
LayerCount: 2
Fore
SplineSet
103 -5 m 4x2cf0
 87 -5 80 -2 80 6 c 4
 80 15 91 18 114 25 c 4
 156 37 175 43 184 72 c 6
 333 551 l 6
 347 597 349 613 305 622 c 4
 285 626 281 633 281 642 c 4
 281 650 295 653 311 653 c 4
 361 653 369 650 406 650 c 4
 444 650 455 653 505 653 c 4
 521 653 529 650 529 642 c 4
 529 633 515 626 492 622 c 4
 443 613 419 590 407 551 c 6
 346 354 l 6
 344 346 350 345 356 345 c 6
 691 345 l 6
 696 345 698 348 701 357 c 6
 762 552 l 6
 773 588 766 613 722 622 c 4
 702 626 698 633 698 642 c 4
 698 650 712 653 728 653 c 4
 778 653 793 650 835 650 c 4
 868 650 870 653 920 653 c 4
 936 653 944 650 944 642 c 4
 944 633 930 626 907 622 c 4
 858 613 849 590 837 552 c 6
 692 81 l 6
 682 49 689 31 726 24 c 4
 746 20 751 15 751 6 c 4
 751 -2 737 -5 721 -5 c 4
 671 -5 664 0 626 0 c 4
 587 0 575 -5 525 -5 c 4
 509 -5 501 -2 501 6 c 4
 501 15 514 20 537 24 c 4
 579 31 609 54 623 97 c 6
 685 292 l 6
 687 299 691 307 685 307 c 6
 340 307 l 6
 336 307 334 304 332 296 c 6
 273 104 l 6
 255 47 278 32 320 24 c 4
 340 20 345 15 345 6 c 4
 345 -2 331 -5 315 -5 c 4
 265 -5 249 0 207 0 c 4
 167 0 153 -5 103 -5 c 4x2cf0
1546.09960938 -5.5498046875 m 0x7570
 1588.95019531 -5.5498046875 1627.93847656 32.373046875 1647.65039062 69.0498046875 c 0
 1664.5 100.400390625 1685.34960938 113.75 1694.84960938 113.75 c 0
 1715.54980469 113.75 1718.40039062 104.900390625 1718.40039062 95.150390625 c 0
 1718.40039062 74.25 1638.25 -47.75 1481.5 -47.75 c 0x7570
 1442.49707031 -47 1381.34960938 -19.9501953125 1381.34960938 46.650390625 c 0
 1381.34960938 54.25 1381.04980469 76.9501953125 1392.45019531 137.75 c 0
 1394.34960938 149.150390625 1403.84960938 196.650390625 1424.75 275.5 c 1
 1407.65039062 265.049804688 1391 265 1379.15039062 265.049804688 c 2
 1198.75 266.049804688 l 1
 1169.65917969 151.459960938 1138.78613281 70.1396484375 1113 30 c 0
 1071.95605469 -33.8896484375 1022 -53 967 -53 c 0
 897 -53 851 -10 851 19 c 0
 851 42 858 57 875 57 c 0
 904 57 905 17 923 -2 c 0
 936.754882812 -16.51953125 946 -26 968 -26 c 0
 1012.10644531 -26 1041.06933594 24.1767578125 1059.95019531 61 c 0
 1091.24023438 122.026367188 1111.29394531 200.9453125 1127.5 266.049804688 c 1
 1058.15039062 265.049804688 l 2
 1036 265 1035.34960938 279 1035.34960938 284.700195312 c 0
 1035.34960938 298.950195312 1053 318 1076.79980469 318.25 c 2
 1142.70019531 318.25 l 1
 1189.94140625 510.513671875 1219.09472656 614 1135 614 c 0xb670
 1043 614 918 576 918 493 c 0
 918 447 948 432 985 426 c 0
 1003 423 1013 410 1013 395 c 0
 1013 377 999 356 963 356 c 0
 909 356 875 408 875 460 c 0
 875 590 999 650 1199 650 c 0
 1255.76171875 650 1266.20019531 615.599609375 1266.20019531 593.75 c 0
 1266.20019531 589 1262.40039062 537.700195312 1249.09960938 462.650390625 c 0
 1239.59960938 414.200195312 1228.20019531 365.75 1214.90039062 318.25 c 1
 1437.09960938 318.25 l 1
 1445.13964844 346.563476562 1451.21875 372.916992188 1464 407 c 0
 1536 599 1615 646 1705 646 c 0
 1764 646 1810 617 1810 575 c 0
 1810 539 1786 521 1767 521 c 0
 1752 521 1743 542 1743 565 c 0
 1743 595.462890625 1726 616 1697 616 c 0
 1622 616 1587 526 1557 451 c 0
 1520.78613281 360.46484375 1503.42285156 287.618164062 1485.3671875 211 c 0
 1474.41796875 164.534179688 1452.58007812 91.8369140625 1470.00488281 48 c 0
 1482.24902344 17.193359375 1515.00585938 -5.5498046875 1546.09960938 -5.5498046875 c 0x7570
EndSplineSet
EndChar

StartChar: I
Encoding: 73 73 8
Width: 1227
Flags: W
HStem: -5 29<80.8438 162.49 299.031 361.641> 0 44.2002<556.675 713.725 738.05 954.933> 375 70<642.465 725.11> 604.65 44.1992<726.875 928.1 955.126 1145.95> 622 31<285.501 345.933 464.79 547.556>
VStem: 593 37<459.954 548.761> 1008.15 77.6494<108.109 188.681>
LayerCount: 2
Fore
SplineSet
104 -5 m 4xa6
 88 -5 80 -2 80 6 c 4
 80 15 93 20 116 24 c 4
 165 33 198 51 212 98 c 6
 350 550 l 6
 364 597 353 613 309 622 c 4
 289 626 285 633 285 642 c 4
 285 650 299 653 315 653 c 4
 365 653 380 650 423 650 c 4
 463 650 475 653 525 653 c 4
 541 653 549 650 549 642 c 4
 549 633 535 626 512 622 c 4
 463 613 438 597 424 550 c 6
 286 98 l 6
 272 51 293 33 337 24 c 4
 357 20 362 15 362 6 c 4
 362 -2 348 -5 332 -5 c 4xae
 282 -5 267 0 224 0 c 4x66
 178 0 154 -5 104 -5 c 4xa6
630 503 m 3
 630 457 665.516601562 445 703 445 c 3
 721.248046875 445 731 432 731 417 c 3
 731 399 717 375 681 375 c 3
 627 375 593 427 593 479 c 3
 593 609 740.10546875 649 891 649 c 0
 1117.54980469 648.849609375 l 2
 1138.34570312 648.995117188 1147.05859375 640.23828125 1147.05859375 633.342773438 c 0
 1147.05859375 618.521484375 1133.23535156 604.650390625 1099.84960938 604.650390625 c 2
 971.299804688 604.650390625 l 1
 918.5 556.400390625 898.879882812 379.342773438 882.099609375 294.849609375 c 0
 852.026367188 143.42578125 818.349609375 96.900390625 738.049804688 44.2001953125 c 1
 896.150390625 44.2001953125 l 2
 990.599609375 44.2001953125 999.676757812 90.58203125 1008.15039062 116.950195312 c 0
 1019.13964844 151.146484375 1011.25 193.5 1045.34960938 193.5 c 0
 1089.15039062 193.5 1085.79980469 163.5 1085.79980469 156.849609375 c 0
 1085.79980469 121.700195312 1011.25 0 837.25 0 c 2
 562.849609375 0 l 2
 522.5390625 0 548 44.2001953125 576.5 44.2001953125 c 2
 670.150390625 44.2001953125 l 2
 695.799804688 44.2001953125 696.75 45.150390625 705.299804688 53.7001953125 c 0
 749.950195312 107.849609375 800.09765625 258.396484375 811.650390625 333.549804688 c 0
 831.7734375 464.458984375 864.450195312 545.75 928.099609375 604.650390625 c 1x76
 818.959960938 604.650390625 630 604.37109375 630 503 c 3
EndSplineSet
EndChar

StartChar: J
Encoding: 74 74 9
Width: 1351
Flags: W
HStem: -200 38<163.26 242.788> -117 31<604.016 743.948> 140 69<595.328 719.5> 622 31<423.593 484.256 594.47 671.649> 662 52<839.392 949.02>
VStem: 495 37<-28.2466 86.506> 750 51<527.787 627.343>
LayerCount: 2
Fore
SplineSet
169 -200 m 0
 109 -200 80 -169 80 -147 c 0
 80 -119 87 -102 104 -102 c 0
 115 -102 131 -120 152 -135 c 0
 168 -147 188 -162 210 -162 c 0
 249 -162 279 -134 318 -5 c 2
 487 551 l 2
 501 597 492 613 448 622 c 0
 428 626 423 633 423 642 c 0
 423 650 438 653 454 653 c 0
 504 653 518 650 561 650 c 0
 595 650 600 653 650 653 c 0
 666 653 673 650 673 642 c 0
 673 633 660 626 637 622 c 0
 588 613 577 597 562 551 c 2
 437 142 l 2
 373 -68 341 -94 303 -134 c 0
 266 -173 224 -200 169 -200 c 0
686 -86 m 3
 791.118164062 -86 917.465820312 68.26171875 987.305664062 248 c 4
 1027.08789062 350.3828125 1050.08691406 498.234375 1096 586 c 1
 986 591 959 662 876 662 c 0
 825 662 801 638 801 603 c 0
 801 590 808 577 811 569 c 0
 815 557 819 549 819 543 c 0
 819 522 801 511 779 511 c 0
 760 511 750 534 750 554 c 0
 750 629 822 714 921 714 c 0
 1020 714 1079 650 1113 623 c 1
 1150 670 1193 704 1228 705 c 0
 1253 706 1271 692 1271 665 c 0
 1271 625 1222 593 1142 583 c 1
 1106.10839844 465.12109375 1102.41113281 324.229492188 1066.97167969 228 c 0
 992.685546875 26.291015625 809.467773438 -117 663 -117 c 0
 549 -117 495 -43 495 35 c 3
 495 120.005859375 566 209 694 209 c 0
 745 209 770 181 770 153 c 0
 770 128 755 99 723 99 c 0
 704 99 690 109 681 119 c 0
 673 128 666 140 648 140 c 0
 584 140 532 85.0361328125 532 29 c 3
 532 -29.0087890625 579 -86 686 -86 c 3
EndSplineSet
EndChar

StartChar: K
Encoding: 75 75 10
Width: 1765
VWidth: 950
Flags: W
HStem: -28 28<939.292 996.667> -20.9004 26.9004<1466.42 1554.2> -5 29<80.8438 159.295 290.533 349.641 470.032 530.421 681.519 749.641> 323 24<360.625 376.514> 347 70<946 1016.71> 612 58<1556.48 1658.59> 622 31<274.593 335.933 441.534 521.556 635.355 677.84 787.464 887.13> 639 31<1044.64 1199.38>
VStem: 849 70<12.1045 95.2026> 884 44<434.047 555.92> 1209.75 46.8496<323.01 440.438> 1599 69<60.2579 142>
LayerCount: 2
Fore
SplineSet
104 -5 m 4x2030
 88 -5 80 -2 80 6 c 4x4030
 80 15 93 20 116 24 c 4
 165 33 187 51 202 101 c 6
 340 551 l 6
 354 597 343 613 299 622 c 4
 279 626 274 633 274 642 c 4
 274 650 289 653 305 653 c 4
 355 653 368 651 408 651 c 4
 443 651 449 653 499 653 c 4
 515 653 523 650 523 642 c 4
 523 633 509 626 486 622 c 4
 437 613 430 604 414 551 c 6
 358 360 l 6
 355 350 359 347 369 347 c 4
 389 347 409 362 436 385 c 6
 647 567 l 6
 664 582 678 594 678 605 c 4
 678 609 675 615 659 620 c 4
 644 625 635 631 635 640 c 4
 635 648 655 651 671 651 c 6
 721 651 l 6
 774 651 837 655 873 655 c 4
 885 655 890 651 890 644 c 4
 890 635 876 628 853 624 c 4
 804 615 747 597 692 558 c 4
 606 496 544 439 453 357 c 4
 448 352 448 346 452 339 c 4
 530 198 587 116 634 70 c 4
 665 40 692 33 725 24 c 4x3230
 746 18 750 15 750 6 c 4x4030
 750 -2 736 -5 720 -5 c 4x2030
 665 -5 652 0 560 0 c 4x8030
 537 0 535 -1 493 -1 c 4
 477 -1 470 2 470 10 c 4
 470 19 481 23 500 27 c 4
 539 36 540 40 521 72 c 6
 381 306 l 6
 374 318 353 323 348 323 c 4
 343 323 340 310 338 302 c 6
 284 110 l 6
 268 53 281 33 325 24 c 4x3030
 345 20 350 15 350 6 c 4x4030
 350 -2 336 -5 320 -5 c 4
 270 -5 261 2 223 2 c 4
 177 2 154 -5 104 -5 c 4x2030
971 0 m 3x89b0
 1001.40429688 0 1026.54199219 60.142578125 1040.90039062 92.25 c 0
 1089.87109375 201.751953125 1164.54003906 464.177734375 1171.54003906 581.094726562 c 0
 1173.67675781 616.7890625 1167.52734375 639 1148 639 c 3
 1056 639 928 618 928 485 c 0
 928 439 957 423 994 417 c 0
 1012 414 1022 403 1022 388 c 0
 1022 370 1008 347 972 347 c 0
 918 347 884 399 884 451 c 0x8970
 884 581 948 670 1188 670 c 0
 1210.75 669.75 1247.75 659.950195312 1247.75 607.5 c 0
 1247.75 586.799804688 1242.57617188 543.720703125 1216.40039062 428.450195312 c 0
 1173.04980469 237.549804688 1171.54199219 221.591796875 1119.40039062 100.200195312 c 0
 1081.90039062 12.8955078125 1027.84375 -28 948 -28 c 3
 888 -28 849 21 849 55 c 0
 849 83 866 100 883 100 c 0
 904 100 916 74 919 53 c 0
 921.828125 33.201171875 938.002929688 0 971 0 c 3x89b0
1563.65039062 612 m 0x4430
 1527.79492188 612 1256.59960938 487.659179688 1256.59960938 402.599609375 c 0
 1256.59960938 377.737304688 1287.26953125 285.381835938 1335.03613281 198 c 0
 1384.55371094 107.416015625 1437.59472656 6 1511 6 c 3
 1554 6 1599 51 1599 77 c 0
 1599 97 1583 108 1570 117 c 0
 1559 125 1547 134 1547 155 c 0
 1547 182 1571 197 1598 197 c 0
 1648 197 1668 162 1668 122 c 0
 1668 63 1597.40039062 -20.900390625 1479.40039062 -20.900390625 c 3
 1392.16894531 -20.900390625 1324.87304688 59.2666015625 1273.83496094 150 c 0
 1224.09765625 238.420898438 1209.75 336.876953125 1209.75 380.950195312 c 0
 1209.75 522.2578125 1574.61816406 670 1635 670 c 0
 1675 670 1685 653 1685 631 c 0
 1685 613 1673.58496094 590.986328125 1645 587 c 0
 1622.38867188 583.846679688 1607.1875 591.213867188 1597 597 c 0
 1586.89746094 602.737304688 1583 612 1563.65039062 612 c 0x4430
EndSplineSet
EndChar

StartChar: L
Encoding: 76 76 11
Width: 1450
Flags: W
HStem: -32 55<1066.09 1248.42> -5 35<83.0182 182.625 305.308 532.209> 59 34<829.698 875.398> 622 31<302.633 366.483 473.325 579.821> 641 28<1134.95 1210.8>
VStem: 1279.1 90.4756<103.785 177.028>
LayerCount: 2
Fore
SplineSet
104 -5 m 4x74
 88 -5 80 -2 80 6 c 4
 80 15 93 20 116 24 c 4
 165 33 209 52 223 99 c 6
 364 560 l 6
 379 608 371 613 327 622 c 4
 307 626 302 633 302 642 c 4
 302 650 316 653 332 653 c 4
 382 653 395 648 436 648 c 4
 482 648 508 653 558 653 c 4
 574 653 581 650 581 642 c 4
 581 631 565 627 542 625 c 4
 490 620 453 606 441 567 c 6
 306 113 l 6
 291 62 298 30 348 30 c 6
 428 30 l 6
 501 30 543 46 569 72 c 4
 594 97 609 121 630 152 c 4
 636 160 638 162 646 162 c 4
 652 162 654 158 654 150 c 4
 654 132 621 39 603 11 c 4
 598 3 589 -5 580 -5 c 4
 429 -5 322 1 229 1 c 4
 180 1 154 -5 104 -5 c 4x74
1122.65234375 -32 m 0xac
 1050.65234375 -32 936.883789062 -8 888.584960938 26 c 0
 868.161132812 40.3779296875 839.698242188 59 829.698242188 59 c 0
 823.698242188 59 795.642578125 32 777.057617188 6 c 0
 762.53125 -14 743.591796875 -25 728.768554688 -24 c 0
 715.768554688 -24 707.53125 -14 711.057617188 6 c 0
 718.287109375 47 769.282226562 81 822.045898438 91 c 0
 828.221679688 92 831.103515625 97 835.162109375 103 c 0
 861.685546875 140 887.735351562 268.740234375 912.127929688 361 c 0
 952.579101562 514 1049.91015625 669 1200.91015625 669 c 0
 1268.91015625 669 1293.32714844 626 1286.80371094 589 c 0
 1281.33691406 558 1260.57617188 531 1232.57617188 531 c 0
 1222.57617188 531 1221.45800781 536 1223.04492188 545 c 0
 1224.10351562 551 1226.51367188 559 1227.92480469 567 c 0
 1233.625 605 1214.79589844 641 1177.79589844 641 c 0
 1105.79589844 641 1049.46777344 536.983398438 1004.83496094 358 c 0
 975.908203125 242 905.216796875 126 872.985351562 102 c 0
 869.6328125 100 868.3984375 93 875.3984375 93 c 0
 929.3984375 93 984.28515625 71.1328125 1031.58007812 55 c 0
 1082.12011719 37.7607421875 1163.64257812 23 1210.64257812 23 c 0
 1258.64257812 23 1298.34570312 49 1309.57714844 73 c 0
 1320.33691406 95.9921875 1278.19824219 107.921875 1279.09667969 148 c 0
 1279.66015625 173.1171875 1299.44628906 185 1325.44628906 185 c 0
 1357.44628906 185 1374.13378906 145.052734375 1369.57226562 111 c 0
 1359.2109375 33.6533203125 1258.65234375 -32 1122.65234375 -32 c 0xac
EndSplineSet
EndChar

StartChar: M
Encoding: 77 77 12
Width: 2396
VWidth: 950
Flags: W
HStem: -47 31<1124.38 1261.98> -29 42<2103.06 2190.51> -3 29<83.6621 165.957 280.124 331.641 742.52 809.016 966.771 1023.75> 219 60<1131.21 1255.5> 625 33<343.03 438.648 1086.8 1178.89> 652.75 20G<1577.45 1591.8>
VStem: 504 72<215.75 521.972> 508 76<151.022 504.172> 1031 35<35.1446 156.595> 2121 54<618.278 654.281> 2287 29<115.246 161.876>
LayerCount: 2
Fore
SplineSet
517 -14 m 0x39e0
 512 -14 508 -4 508 11 c 0x39e0
 513 178 511 345 504 512 c 0
 503 541 490 539 475 509 c 0
 413 388 357 267 305 146 c 0
 265 52 273 31 302 26 c 0
 322 23 332 18 332 9 c 0
 332 1 314 -3 298 -3 c 0
 248 -3 236 0 190 0 c 0
 156 0 154 -6 104 -6 c 0
 88 -6 80 -4 80 4 c 0
 80 13 92 19 115 23 c 0
 172 33 202 56 248 144 c 2
 447 532 l 2
 473 582 464 614 382 625 c 0
 353 629 343 632 343 642 c 0
 343 653 359 658 385 658 c 0
 419 658 504 653 547 653 c 0
 572 653 578 636 576 585 c 2x3ae0
 584 163 l 2
 585 133 598 142 614 160 c 0
 737 299 850 434 969 575 c 1
 984 603 989 618 1000 636 c 0
 1006 646 1012 650 1021 650 c 2
 1059 650 l 2
 1074 650 1128 658 1146 658 c 0
 1162 658 1179 652 1179 643 c 0
 1179 632 1170 625 1138 621 c 0
 1077 613 1067 607 1046 536 c 0
 1010 413 981 281 957 154 c 0
 940 65 954 33 998 26 c 0
 1018 23 1024 18 1024 9 c 0
 1024 3 1010 -3 994 -3 c 0
 944 -3 919 8 873 8 c 0
 827 8 815 -3 765 -3 c 0
 749 -3 742 1 742 9 c 0
 742 17 755 23 777 28 c 0
 820 38 838 59 853 104 c 0
 902 256 932 365 966 502 c 0
 968 509 960 511 954 504 c 2
 659 162 l 1
 542 10 l 2
 529 -6 521 -14 517 -14 c 0x39e0
2136 13 m 3x54e0
 2209 13 2273 93 2287 153 c 0
 2288.44824219 159.20703125 2296.046875 162.708007812 2301 162 c 0
 2308 161 2318.79882812 153.98046875 2316 142 c 0
 2300.20996094 74.408203125 2220 -29 2107 -29 c 4x54e0
 2036.69628906 -29 2000.30761719 21.05078125 2000.30761719 85.3779296875 c 7
 2000.30761719 217.045898438 2049.65429688 383.236328125 2068.95019531 501.150390625 c 1
 1948.79980469 338.349609375 1839.12207031 183.034179688 1692 38 c 0
 1666.09277344 12.4599609375 1647.421875 14.0439453125 1637 50 c 0
 1607.02929688 153.396484375 1594.84960938 232.75 1552.40039062 532.950195312 c 1
 1524.84960938 392.349609375 1474.07519531 263.765625 1437.45019531 169.549804688 c 0
 1394.65039062 59.4501953125 1312.84960938 -48.4501953125 1188 -47 c 0
 1067.00878906 -45.5947265625 1031 27 1031 105 c 0
 1032 190 1102 279 1230 279 c 0
 1281 279 1306 251 1306 223 c 0
 1306 198 1291 171 1259 171 c 0
 1234 171 1226 181 1217 191 c 0
 1209 200 1202 219 1184 219 c 0
 1120 219 1066 155.036132812 1066 99 c 3
 1066 40.9912109375 1096 -16 1200 -16 c 3x90e0
 1278.98925781 -16 1355.60449219 51.53125 1405 178.099609375 c 0
 1483.15039062 378.349609375 1521.49023438 534.5234375 1534.34960938 625.099609375 c 0
 1538.83789062 656.709960938 1569.84960938 672.75 1585.04980469 672.75 c 0
 1598.54980469 672.75 1611.58105469 662.448242188 1615 635 c 0
 1633.53320312 486.209960938 1679.41894531 193.348632812 1707.70019531 106.299804688 c 1
 1849.10644531 251.767578125 2000.7421875 462.377929688 2121 644 c 0
 2124.70898438 649.600585938 2140.43945312 656.025390625 2155 655 c 0
 2167.04589844 654.151367188 2181.09863281 635.721679688 2175 610 c 0
 2162.39941406 556.859375 2095 258.400390625 2087 133.950195312 c 0
 2084.8828125 101.017578125 2084.14257812 13 2136 13 c 3x54e0
EndSplineSet
EndChar

StartChar: N
Encoding: 78 78 13
Width: 2032
VWidth: 950
Flags: W
HStem: -48.4502 41.4502<891.871 986.078> -5 29<80.4746 152.493 270.739 339.367> 620 31<702.433 783.029 888.486 977.437> 625 33<246.414 339.548> 704 41<1734.81 1855.05>
VStem: 810 69<6.08433 70.6191> 1167.8 82.6504<581.377 662.486> 1883 69<617.225 679.267>
LayerCount: 2
Fore
SplineSet
104 -5 m 4xef
 88 -5 80 -2 80 6 c 4
 80 15 86 19 109 24 c 4
 172 38 191 63 201 95 c 6
 340 526 l 6
 359 586 361 620 285 625 c 4
 262 627 246 633 246 644 c 4
 246 657 264 658 271 658 c 4xdf
 325 658 366 653 400 653 c 4
 411 653 421 646 426 636 c 6
 655 154 l 6
 658 148 668 135 675 135 c 4
 680 135 682 140 688 155 c 4
 705 198 800 513 807 544 c 4
 818 591 793 610 729 620 c 4
 709 623 702 630 702 639 c 4
 702 647 719 651 735 651 c 4
 771 651 803 647 842 647 c 4
 881 647 900 653 957 653 c 4
 973 653 980 650 980 642 c 4
 980 633 966 624 943 622 c 4
 892 618 882 607 860 555 c 4
 850 531 723 158 710 113 c 4
 704 92 707 82 714 66 c 4
 722 47 736 41 747 33 c 4
 758 25 766 19 766 6 c 4
 766 0 762 0 758 0 c 4
 721 0 698 -5 681 -5 c 4
 660 -5 649 0 639 21 c 4
 567 172 490 369 412 515 c 4
 404 530 395 539 388 539 c 4
 381 539 370 527 364 505 c 4
 337 406 284 241 249 96 c 4
 240 58 260 33 311 23 c 4
 331 19 340 15 340 6 c 4
 340 -2 326 -5 310 -5 c 4
 260 -5 245 0 211 0 c 4
 170 0 154 -5 104 -5 c 4xef
1805 704 m 3
 1744.58496094 704 1683.34472656 685.555664062 1631.29980469 483.799804688 c 0
 1581.66503906 291.388671875 1569.82226562 238.9609375 1520.54980469 17.099609375 c 0
 1512.65332031 -18.45703125 1484 -29.75 1467.84960938 -29.75 c 0
 1459.09960938 -29.75 1444.3515625 -24.708984375 1433.45019531 -11.900390625 c 0
 1423.07910156 0.28515625 1397.11816406 36.76171875 1358.75 114.950195312 c 0
 1304.59960938 225.299804688 1216.29980469 495 1194.45019531 566.25 c 1
 1171.65039062 439.900390625 1145 308.75 1092.75 155.799804688 c 0
 1072.25683594 95.8095703125 1033.40039062 -48.900390625 915.950195312 -48.4501953125 c 0
 856.950195312 -48.2236328125 810 -19 810 23 c 0
 810 59 832 77 851 77 c 0
 865 77 871 58 879 35 c 0
 888.844726562 6.6962890625 912 -7 944 -7 c 3
 988.314453125 -7 1011.7578125 40.36328125 1033.84960938 84.5498046875 c 0
 1050.95019531 119.700195312 1132.29980469 359.650390625 1167.79980469 617.5 c 0
 1169.48925781 629.76953125 1171.35351562 649.19921875 1184.84960938 660.75 c 0
 1207.78027344 680.375 1240.20507812 664.2109375 1250.45019531 635.549804688 c 24
 1295 508 1317.93359375 435.2578125 1364.40039062 307.799804688 c 0
 1407 190.950195312 1436.59960938 117.099609375 1488.84960938 39.2001953125 c 1
 1544.34960938 296.200195312 1560.29785156 362.955078125 1595.15039062 492.299804688 c 0
 1642.69628906 668.750976562 1694.34960938 743.150390625 1833 745 c 0
 1891.99511719 745.787109375 1952 706 1952 664 c 0
 1952 628 1928 610 1909 610 c 0
 1900 610 1894 629 1883 652 c 0
 1870 679 1836 704 1805 704 c 3
EndSplineSet
EndChar

StartChar: O
Encoding: 79 79 14
Width: 1537
Flags: W
HStem: -20.9004 30.2002<960.337 1111.49> -14 31<245.188 381.837> 636 28<399.737 524.924 1160.58 1301.58>
VStem: 80 85<120.993 344.408> 610 85<296.566 527.326> 757.1 85.6504<155.3 384.188> 982.25 85.5<392.596 482.978> 1370.6 86.6504<306.226 534.187>
LayerCount: 2
Fore
SplineSet
305 -14 m 4x7f
 149 -14 80 105 80 243 c 4
 80 435 220 664 470 664 c 4
 626 664 695 545 695 407 c 4
 695 215 555 -14 305 -14 c 4x7f
308 17 m 4
 489 17 610 251 610 445 c 4
 610 539 569 636 467 636 c 4
 294 636 165 399 165 205 c 4
 165 111 206 17 308 17 c 4
1457.25 434.099609375 m 0
 1457.25 147.200195312 1200.79980469 -20.900390625 1010.79980469 -20.900390625 c 0
 857.849609375 -20.900390625 757.099609375 125.950195312 757.099609375 266.549804688 c 0
 757.099609375 551.549804688 996 659.75 1050.29980469 682.75 c 0
 1068.48535156 690.453125 1082.79980469 685.799804688 1082.79980469 676.099609375 c 0
 1082.79980469 666.75 1076.09960938 660.599609375 1060.15039062 652.150390625 c 0
 958.375976562 598.234375 842.75 420.799804688 842.75 258.349609375 c 0
 842.75 117.75 901.450195312 9.2998046875 1035.40039062 9.2998046875 c 0xbf
 1216.84960938 9.2998046875 1370.59960938 241.349609375 1370.59960938 432.299804688 c 0
 1370.59960938 558.650390625 1324.75 642.549804688 1238.79980469 642.549804688 c 0
 1189.79980469 642.549804688 1151.16308594 624.817382812 1112.09960938 582.650390625 c 0
 1080 548 1071 516 1067.75 479.299804688 c 0
 1063.58789062 432.298828125 1067.29980469 404.599609375 1038.79980469 387.5 c 0
 1030.40234375 382.461914062 982.25 374.487304688 982.25 420.849609375 c 0
 982.25 449.5 1019.0859375 529.876953125 1087.40039062 600.150390625 c 0
 1131 645 1184.54980469 669.75 1253.40039062 669.75 c 0
 1357.40039062 669.75 1457.25 563.299804688 1457.25 434.099609375 c 0
EndSplineSet
EndChar

StartChar: P
Encoding: 80 80 15
Width: 1541
VWidth: 950
Flags: W
HStem: -55 30.7949<809.224 869.266> -5 29<80.8438 161.063 295.401 357.641> 194.75 41.1562<1082.21 1222.25> 254 26<384.021 469.915> 334 70<842.605 908.026> 621.65 30.3496<971.375 1047.85 1123.99 1245.32> 630 22<256.044 318.955 442.604 521.345>
VStem: 614 85<387.882 561.288> 700 86<-7.79113 70.0287> 779 44<423.008 530.998> 1047.85 77.8506<487.396 621.65> 1370.65 90.6494<379.584 538.659>
LayerCount: 2
Fore
SplineSet
104 -5 m 4xfb30
 88 -5 80 -2 80 6 c 4
 80 15 93 20 116 24 c 4
 165 33 193 51 208 100 c 6
 342 537 l 6
 360 596 347 621 281 627 c 4
 261 629 256 633 256 642 c 4
 256 650 271 653 287 653 c 4
 297 653 347 652 376 652 c 4
 397 652 461 656 487 656 c 4
 613 656 699 587 699 472 c 4
 699 343 567 254 426 254 c 4
 413 254 384 256 384 267 c 4
 384 275 395 279 407 280 c 4
 426 282 444 286 462 290 c 4
 547 313 614 376 614 480 c 4
 614 563 561 630 461 630 c 4
 444 630 440 618 431 588 c 6
 285 111 l 6
 268 58 281 35 333 24 c 4
 353 20 358 15 358 6 c 4
 358 -2 344 -5 328 -5 c 4
 278 -5 262 2 227 2 c 4
 179 2 154 -5 104 -5 c 4xfb30
819 -55 m 3
 753 -55 700 0 700 32 c 0
 700 60 723 77 740 77 c 0
 761 77 782.990234375 61.724609375 786 40 c 0
 790.828125 5.154296875 814.325195312 -24.205078125 838.354492188 -24.205078125 c 0
 893.20703125 -24.205078125 954.184570312 127.741210938 983 247 c 0
 1023.02148438 412.638671875 1045.65722656 597.534179688 1047.84960938 621.650390625 c 1xfdb0
 956.743164062 621.650390625 823 570.852539062 823 479 c 0
 823 433 849 410 886 404 c 0
 904 401 914 391 914 376 c 0
 914 358 900 334 864 334 c 0
 810 334 779 393 779 445 c 0
 779 575 897 652 1117 652 c 0xfb70
 1279.4921875 648.157226562 1461.29980469 631.943359375 1461.29980469 467.799804688 c 0
 1461.29980469 311.049804688 1274.34960938 194.75 1096.70019531 194.75 c 0
 1074.29980469 194.75 1067.65039062 210.75 1066.65039062 220.400390625 c 0
 1065.76953125 228.904296875 1070.12304688 243.857421875 1082 252 c 0
 1090.76757812 258.010742188 1106.04882812 262.3984375 1119 256 c 0
 1133.24804688 248.9609375 1131.49316406 235.90625 1153.24902344 235.90625 c 0
 1342.45605469 235.90625 1370.65039062 389.86328125 1370.65039062 459 c 0
 1370.65039062 584.3671875 1255.79492188 621.650390625 1125.70019531 621.650390625 c 1xfd70
 1119.04980469 564.650390625 1104 475 1079 355 c 0
 1056.37304688 246.392578125 1041 166 994.049804688 72.2998046875 c 0
 939.741210938 -36.0849609375 877.365234375 -55 819 -55 c 3
EndSplineSet
EndChar

StartChar: Q
Encoding: 81 81 16
Width: 1632
Flags: W
HStem: -270 53<540.019 657.357> -228 30<1336.85 1458.34> -85 92<797.73 977.498> -14 21<332.161 373.624> 123 31<990.1 1088.5> 404 20G<1133.5 1171.5> 635 29<421.65 551.545 1091.84 1250.97>
VStem: 112 85<126.792 353.59> 647 85<290.28 527.22> 825 82<251.257 463.185> 1138 78<238.547 357.5> 1363 87<283.946 509.692> 1483 69<-165.744 -79>
LayerCount: 2
Fore
SplineSet
717 -165 m 4x9ff8
 732 -145 744 -157 737 -171 c 4
 716 -217 649 -270 577 -270 c 4x9ff8
 506 -270 443 -232 383 -198 c 4x4ff8
 326 -165 266 -135 200 -135 c 4
 177 -135 155 -138 139 -144 c 4
 119 -152 104 -161 92 -161 c 4
 81 -161 80 -162 80 -152 c 4
 80 -115 274 -59 346 -26 c 4
 356 -22 365 -17 374 -12 c 5
 366 -13 357 -14 347 -14 c 4
 186 -14 112 105 112 243 c 4
 112 435 247 664 502 664 c 4
 658 664 732 545 732 407 c 4
 732 272 659 122 511 29 c 4
 435 -19 385 -51 286 -86 c 5
 340 -89 398 -114 445 -142 c 4
 508 -180 568 -217 617 -217 c 4
 660 -217 694 -196 717 -165 c 4x9ff8
407 7 m 6
 408 7 l 5
 554 96 647 247 647 445 c 4
 647 539 600 635 489 635 c 4
 320 635 197 399 197 205 c 4
 197 111 249 7 407 7 c 6
1013 123 m 0
 914 123 825 231 825 353 c 0
 825 553 1009 666 1183 666 c 0
 1353 666 1450 554 1450 393 c 0
 1450 204.534179688 1260.69042969 17.0654296875 1051.29296875 -39.9296875 c 1
 1191.75195312 -97.3818359375 1317.81445312 -198 1403 -198 c 0
 1456 -198 1483 -170 1483 -144 c 0
 1483 -124 1467 -113 1454 -104 c 0
 1443 -96 1431 -87 1431 -66 c 0
 1431 -39 1455 -24 1482 -24 c 0
 1532 -24 1552 -59 1552 -99 c 0
 1552 -158 1500 -228 1398 -228 c 0
 1227.90820312 -228 1121.11914062 -116.241210938 979.3984375 -64.9609375 c 1
 941.244140625 -75.275390625 900.040039062 -85 858 -85 c 0
 816 -85 783 -62.1103515625 783 -44 c 0
 783 -7 833 6 869 7 c 0x6ff8
 914.204101562 8.255859375 961.826171875 -9.9462890625 1003.6171875 -22.6396484375 c 1
 1215.12402344 18.439453125 1363 203.866210938 1363 412 c 0
 1363 548 1284 637 1178 637 c 0
 1042 637 907 526 907 377 c 0
 907 243 964 154 1040 154 c 0
 1099 154 1138 210 1138 274 c 0
 1138 296 1124 309 1114 323 c 0
 1106 334 1098 349 1098 362 c 0
 1098 395 1117 424 1150 424 c 0
 1193 424 1216 383 1216 332 c 0
 1216 239 1151 123 1013 123 c 0
EndSplineSet
EndChar

StartChar: R
Encoding: 82 82 17
Width: 1643
VWidth: 950
Flags: W
HStem: -43 30<839.583 905.325> -19 30<1380.11 1458.57> -5 29<80.8438 161.063 290.132 345.641 642.334 710.361> 298 20<370.408 416> 382 70<852.297 923.611> 622 31<253.117 345.126 1124.7 1220.5> 630 22<449.264 529.371>
VStem: 601 83<421.626 578.4> 736 78<5.92011 76.3736> 790 50<464.052 553.271> 1342.7 75.6494<412.409 543.752> 1494 69<65.8478 150>
LayerCount: 2
Fore
SplineSet
104 -5 m 4x3b30
 88 -5 80 -2 80 6 c 4
 80 15 93 20 116 24 c 4
 165 33 193 51 208 100 c 6
 342 538 l 6
 364 608 356 615 281 622 c 4
 261 624 253 629 253 639 c 4
 253 649 271 653 287 653 c 6x3d30
 376 652 l 6
 413 652 461 655 487 655 c 4
 589 655 684 612 684 507 c 4
 684 398 597 339 511 312 c 4
 502 309 498 304 502 295 c 4
 516 259 574 134 592 98 c 4
 618 46 638 34 677 27 c 4
 694 24 711 22 711 13 c 4
 711 -2 686 -4 660 -4 c 4
 605 -4 560 1 542 32 c 4
 509 89 464 189 439 249 c 4
 423 288 414 298 378 298 c 4
 349 298 342 294 338 280 c 6
 285 111 l 6
 270 63 277 33 321 24 c 4
 341 20 346 15 346 6 c 4
 346 -2 332 -5 316 -5 c 4
 266 -5 262 2 227 2 c 4
 179 2 154 -5 104 -5 c 4x3b30
415 318 m 4
 471 318 601 360 601 508 c 4
 601 576 549 630 479 630 c 4x1b30
 450 630 439 618 422 555 c 6
 369 356 l 6
 361 325 371 318 415 318 c 4
1016.84960938 75.2001953125 m 0
 984 -12 912.84375 -43 853 -43 c 3
 783 -43 736 18 736 40 c 0
 736 68 753 85 770 85 c 0
 787 85 805 68 814 48 c 0
 822.20703125 29.76171875 836.000976562 -13 868 -13 c 3x99b0
 899.401367188 -13 927 10 949 78 c 0
 995.840820312 222.78125 1043 379 1043 615 c 1
 986 610 840 593 840 520 c 3
 840 474 862.516601562 452 900 452 c 3
 918.248046875 452 928 436 928 421 c 3
 928 403 914 382 878 382 c 3
 824 382 790 434 790 486 c 3
 790 616 972.557617188 648 1141 648 c 27
 1270.12402344 648 1418.34960938 615.849609375 1418.34960938 497.099609375 c 0
 1418.34960938 389.75 1330.09960938 323.950195312 1204.70019531 282.150390625 c 1
 1231.40039062 251.75 1258.1328125 201.732421875 1283.04980469 156.75 c 0
 1326.20019531 78.849609375 1374.64257812 11 1417 11 c 3
 1470 11 1494 59 1494 85 c 0
 1494 105 1478 116 1465 125 c 0
 1454 133 1442 142 1442 163 c 0
 1442 190 1466 205 1493 205 c 0
 1543 205 1563 170 1563 130 c 0
 1563 71 1496 -19 1383 -19 c 0x5970
 1322 -19 1275.9921875 13.7646484375 1227.40039062 110.200195312 c 0
 1181.08007812 202.127929688 1164 229 1126.59960938 260.299804688 c 0
 1117.88574219 267.592773438 1115.87695312 283.670898438 1124 296 c 0
 1129.47265625 304.306640625 1150.33984375 308.2109375 1167.5 308.549804688 c 0
 1329.0390625 311.736328125 1342.70019531 437.349609375 1342.70019531 485.299804688 c 0
 1342.70019531 550.892578125 1271.04980469 618.650390625 1124.70019531 618.650390625 c 1
 1101.90039062 339.349609375 1064.16210938 200.79296875 1016.84960938 75.2001953125 c 0
EndSplineSet
EndChar

StartChar: S
Encoding: 83 83 18
Width: 1256
Flags: W
HStem: -15 30<211.392 345.972 718.783 928.909> 213 76<684.805 779.499> 635 29<380.172 494.04 902.127 1052.84>
VStem: 239 69<429.938 563.787> 426 77<92.8641 231.92> 553 66<492 629> 553 28<466.864 566.376> 595 39<71.632 184.009> 740 81<426.93 563.33> 1044 90<98.1054 230.431>
LayerCount: 2
Fore
SplineSet
276 -15 m 4xfcc0
 242 -15 207 -9 173 4 c 4
 156 11 144 16 140 16 c 4
 133 16 126 13 119 10 c 4
 111 5 104 0 99 0 c 4
 93 0 80 11 80 19 c 4
 80 31 115 92 126 171 c 4
 128 185 132 191 142 191 c 4
 153 191 154 179 154 152 c 4
 154 75 190 15 273 15 c 4
 358 15 426 66 426 155 c 4
 426 207 407 242 343 302 c 4
 286 354 239 406 239 482 c 4
 239 588 330 664 448 664 c 4
 469 664 494 658 517 652 c 4
 543 644 561 635 571 635 c 4
 580 635 585 637 590 640 c 4
 595 643 600 645 607 645 c 4
 617 645 619 634 619 629 c 4xfcc0
 619 626 596 601 581 498 c 4xfac0
 578 478 569 466 565 466 c 4
 555 466 553 477 553 492 c 4
 553 585 506 635 436 635 c 4
 365 635 308 570 308 506 c 4
 308 453 333 411 401 348 c 4
 469 286 503 240 503 184 c 4
 503 74 423 -15 276 -15 c 4xfcc0
823 13 m 0
 944 13 1044 68 1044 169 c 0
 1044 253 967.1171875 285.94140625 899 320 c 0
 841 349 740 409 740 490 c 3
 740 599 863 670 990 670 c 0
 1035 670 1085.76269531 657.176757812 1125 629 c 0
 1160.3515625 603.61328125 1183 574 1175 533 c 0
 1166.09765625 487.374023438 1136 474 1108 474 c 0
 1098 474 1096 479 1098 488 c 0
 1099 494 1104 504 1105 512 c 0
 1114 569 1075 640 979 640 c 0
 894 640 821 577 821 497 c 3
 821 426.026367188 865 379 924 351 c 0
 996.645507812 316.524414062 1134 262 1134 171 c 0
 1134 47 983 -21 818 -21 c 3
 701 -21 595 33 595 128 c 0
 595 206 670.994140625 289 766 289 c 3
 813.010742188 289 874 270 874 225 c 0
 874 205 855 167 827 167 c 0
 814 167 793 186 764 199 c 0
 748 207 730 213 709 213 c 0
 664 213 634 173 634 125 c 0xf9c0
 634 52 721 13 823 13 c 0
EndSplineSet
EndChar

StartChar: T
Encoding: 84 84 19
Width: 1514
Flags: W
HStem: -30.4004 29.9062<819.107 892.001> -5 27<85.4959 163.158 308.086 366.807> 394 38<791.681 855.779> 556 58<1209.64 1371.78> 614 28<189.805 351.601 439.889 610.863> 628 36<845.292 1057.67>
VStem: 636 25<497.114 562.589> 725 38<460.967 562.909> 751.15 62.8496<2.43585 77.5764> 1364 70<615.822 689.322>
LayerCount: 2
Fore
SplineSet
109 -5 m 0x6a40
 93 -5 85 -2 85 6 c 0
 85 15 99 18 122 22 c 0
 171 31 204 54 218 102 c 2
 340 530 l 2
 359 598 354 614 337 614 c 2
 254 614 l 2
 189 614 158 582 134 553 c 0
 116 532 102 504 91 504 c 0
 83 504 80 506 80 517 c 0
 80 519 82 531 90 548 c 0
 103 575 122 611 132 646 c 0
 135 655 144 666 149 666 c 0
 154 666 161 660 167 654 c 0
 173 648 181 642 243 642 c 2
 600 642 l 2
 661 642 672 649 679 655 c 0
 686 661 691 666 696 666 c 0
 704 666 706 661 706 655 c 0
 706 646 700 634 696 627 c 0
 689 614 671 565 661 511 c 0
 659 500 655 497 650 497 c 0
 641 497 636 506 636 520 c 0
 636 581 619 614 569 614 c 2
 469 614 l 2
 443 614 434 603 413 527 c 2
 292 102 l 2
 278 54 298 31 342 22 c 0
 362 18 367 15 367 6 c 0
 367 -2 353 -5 337 -5 c 0
 287 -5 272 0 230 0 c 0
 183 0 159 -5 109 -5 c 0x6a40
851.892578125 -0.494140625 m 3xb2c0
 890.00390625 -0.494140625 922 35 945 93 c 0
 978.240234375 176.823242188 983.651367188 233.416992188 1002 317 c 4
 1026.65234375 429.297851562 1046.55273438 536.037109375 1069 608 c 1
 1027 616 985 628 944 628 c 0
 822 628 763 568 763 510 c 0
 763 468 803 432 832 432 c 0
 838 432 844 439 851 446 c 0
 858 453 866 460 878 460 c 0
 897 460 906 446 906 431 c 0
 906 413 880 394 844 394 c 0
 770 394 725 446 725 507 c 0
 725 581 792 664 959 664 c 0xb740
 1104 664 1286 614 1380 614 c 1x2b40
 1373 635 1364 649 1364 662 c 0
 1364 682 1385 693 1405 693 c 0
 1419 693 1434 678 1434 659 c 0
 1434 630 1383 556 1294 556 c 0
 1246 556 1186 578 1129 594 c 1
 1111.64941406 525.009765625 1108 414 1079.49414062 290 c 0
 1054.80761719 182.614257812 1016.26074219 104.497070312 987 62 c 0
 945 1 899.299804688 -30.400390625 853.299804688 -30.400390625 c 0
 800.666015625 -30.400390625 751.150390625 -3.9794921875 751.150390625 50.599609375 c 0
 751.150390625 79.7001953125 768.349609375 108.150390625 797.200195312 108.150390625 c 0
 822.892578125 108.150390625 840 91.3984375 840 71 c 0
 840 43 814 47.4912109375 814 28 c 0
 814 10.44921875 832.993164062 -0.494140625 851.892578125 -0.494140625 c 3xb2c0
EndSplineSet
EndChar

StartChar: U
Encoding: 85 85 20
Width: 1732
VWidth: 950
Flags: W
HStem: -38 44<1425.9 1521.93> -14 40<219.512 385.221 1058.68 1163.34> 341 70<855.032 924.339> 607 43<967.999 1142.89> 620 33<136.356 186.141 294.651 357.911 567.649 629.152 725.795 797.004>
VStem: 790.798 50<425.518 526.985> 1624.8 27<129.967 173.779>
LayerCount: 2
Fore
SplineSet
273.797851562 -14 m 0x6e
 144.797851562 -14 38.7978515625 65 95.7978515625 251 c 2
 185.797851562 547 l 2
 200.797851562 595 184.797851562 614 165.797851562 620 c 0
 145.797851562 626 134.797851562 633 134.797851562 642 c 0
 134.797851562 650 156.797851562 653 172.797851562 653 c 0x6e
 200.797851562 653 226.797851562 650 261.797851562 650 c 0
 290.797851562 650 316.797851562 652 336.797851562 652 c 0
 352.797851562 652 360.797851562 649 359.797851562 641 c 0
 358.797851562 632 345.797851562 628 322.797851562 621 c 0
 301.797851562 615 272.797851562 590 256.797851562 535 c 2
 168.797851562 238 l 2
 124.797851562 90 202.797851562 26 300.797851562 26 c 0
 446.797851562 26 517.797851562 143 554.797851562 269 c 0
 576.797851562 344 605.797851562 434 618.797851562 474 c 0
 657.797851562 593 640.797851562 609 592.797851562 622 c 0
 580.797851562 625 566.797851562 631 566.797851562 640 c 0
 566.797851562 648 581.797851562 651 597.797851562 651 c 2
 699.797851562 650 l 2x76
 729.797851562 650 754.797851562 653 775.797851562 653 c 0
 791.797851562 653 800.797851562 650 799.797851562 642 c 0
 798.797851562 633 784.797851562 627 761.797851562 622 c 0
 728.797851562 614 714.797851562 608 676.797851562 506 c 0
 648.797851562 432 620.797851562 346 587.797851562 254 c 0
 531.797851562 99 452.797851562 -14 273.797851562 -14 c 0x6e
1420.19824219 77.150390625 m 0
 1412.85742188 43.3642578125 1428.24609375 6 1456.79785156 6 c 3
 1548.79785156 6 1608.79785156 98 1624.79785156 167 c 0
 1626.23730469 173.208984375 1636.5546875 178.65234375 1644.79785156 174 c 0
 1653.01367188 169.36328125 1653.09570312 159.611328125 1651.79785156 152 c 0
 1640.8828125 88.005859375 1564.79785156 -38 1431.79785156 -38 c 0
 1370.29492188 -38 1348.19824219 7.9951171875 1348.19824219 44.900390625 c 3
 1348.19824219 136.026367188 1383.54785156 206.150390625 1405.39746094 285.950195312 c 1
 1404.44824219 285.950195312 l 1
 1352.06933594 185.896484375 1213.02832031 -20.900390625 1082.59765625 -20.900390625 c 0
 1011.34765625 -20.900390625 951.59765625 35.150390625 951.59765625 125.950195312 c 0
 951.59765625 171.42578125 997.7734375 265.995117188 1043.79980469 366 c 0
 1081.28027344 447.435546875 1127.02050781 525.84375 1122.44824219 561.450195312 c 0
 1119.66503906 583.119140625 1102.8515625 607 1043.79785156 607 c 3
 951.797851562 607 840.797851562 552 840.797851562 479 c 0
 840.797851562 433 863.797851562 417 900.797851562 411 c 0
 918.797851562 408 928.797851562 395 928.797851562 380 c 0
 928.797851562 362 914.797851562 341 878.797851562 341 c 0
 824.797851562 341 790.797851562 393 790.797851562 445 c 0
 790.797851562 575 918.797851562 650 1158.79785156 650 c 0xb6
 1174.69824219 648.849609375 1205.09765625 646.950195312 1205.09765625 603.25 c 0
 1205.09765625 489.234375 1048.984375 220.478515625 1031.24804688 137.75 c 0
 1017.24804688 72.4501953125 1054.24804688 28.2998046875 1113.14746094 28.2998046875 c 0
 1225.24804688 28.2998046875 1411.79785156 317 1487.09765625 539.599609375 c 0
 1492.20019531 554.684570312 1519.31933594 628.12890625 1521.79785156 634 c 0
 1531.37597656 656.686523438 1587.59765625 671.3515625 1591.59765625 642.200195312 c 0
 1592.37207031 636.552734375 1580.19824219 598.5 1566.89746094 566.200195312 c 0
 1542.19824219 507.299804688 1460.79785156 264 1420.19824219 77.150390625 c 0
EndSplineSet
EndChar

StartChar: V
Encoding: 86 86 21
Width: 1487
VWidth: 950
Flags: W
HStem: 559.55 89.2998<1269.42 1337.66> 619.65 33.1992<83.7892 150.332 258.984 338.425 490.096 534.736 645.492 721.551 815.537 939.634>
VStem: 654.51 71.0996<443.412 531.412> 1365.01 42.75<436.591 574.75>
LayerCount: 2
Fore
SplineSet
106.609375 -14 m 4x30
 88.609375 -14 72.609375 2 83.609375 63 c 4
 122.609375 287 148.609375 439 157.609375 550 c 4
 160.609375 593 159.609375 615 106.609375 623 c 4
 86.609375 626 82.609375 634 82.609375 643 c 4
 82.609375 652 96.609375 656 112.609375 656 c 4
 138.609375 656 176.609375 650 218.609375 650 c 4
 254.609375 650 293.609375 651 315.609375 651 c 4
 331.609375 651 339.609375 648 339.609375 640 c 4
 339.609375 631 322.609375 623 304.609375 621 c 4
 265.609375 616 244.609375 603 236.609375 553 c 6
 169.609375 143 l 6
 165.609375 120 167.609375 112 173.609375 112 c 4
 178.609375 112 185.609375 125 202.609375 146 c 6
 482.609375 492 l 6
 554.609375 580 541.609375 617 513.609375 621 c 4
 492.609375 624 489.609375 632 489.609375 641 c 4
 489.609375 649 503.609375 652 519.609375 652 c 4
 536.609375 652 576.609375 650 610.609375 650 c 4
 651.609375 650 670.609375 656 701.609375 656 c 4
 717.609375 656 724.609375 651 724.609375 643 c 4
 724.609375 634 710.609375 627 687.609375 620 c 4
 652.609375 610 609.609375 591 570.609375 543 c 6
 199.609375 95 l 6
 157.609375 45 121.609375 -14 106.609375 -14 c 4x30
883.659179688 619.650390625 m 3x70
 755.608398438 619.650390625 726.517578125 526.7421875 725.609375 477.094726562 c 0
 725.1953125 454.448242188 703.60546875 439.528320312 690.609375 439.528320312 c 3
 672.422851562 439.528320312 654.509765625 453.549804688 654.509765625 474.25 c 0
 654.509765625 518.049804688 732.059570312 652.849609375 918.259765625 652.849609375 c 0x70
 1168.03125 652.849609375 1058.20410156 183.140625 1034.609375 46.7001953125 c 1
 1246.609375 241 1365.00976562 417.049804688 1365.00976562 477.849609375 c 0
 1365.00976562 499.700195312 1353.609375 551 1286.15917969 559.549804688 c 0
 1275.70898438 560.5 1259.90917969 572.5 1259.90917969 596.75 c 0
 1259.90917969 629.049804688 1285.20898438 648.849609375 1313.70898438 648.849609375 c 0xb0
 1357.40917969 648.849609375 1407.75976562 611.799804688 1407.75976562 537.700195312 c 0
 1407.75976562 479.75 1385.609375 417 1344.95898438 355.349609375 c 0
 1212.36230469 154.251953125 989.899414062 -39.55078125 982.609375 -41.7001953125 c 0
 962.259765625 -47.7001953125 945.022460938 -31.451171875 947.909179688 -16.150390625 c 0
 984.258789062 176.537109375 1082.1953125 619.650390625 883.659179688 619.650390625 c 3x70
EndSplineSet
EndChar

StartChar: W
Encoding: 87 87 22
Width: 2287
VWidth: 950
Flags: W
HStem: 559.55 89.2998<2081.86 2133.21> 623 33<80.5117 165.042 269.489 350.968 446.732 527.724 645.437 735.183 847.044 901.704 1027.68 1105.18 1316.79 1435.09>
VStem: 544 192<560.5 647> 1161.9 69.0996<441.083 539.526> 1439.8 77.0244<280.981 568.135> 1765.4 86.1992<544.954 653.785> 2151 56.75<444.764 580.45>
LayerCount: 2
Fore
SplineSet
120 -14 m 4x7e
 95 -14 92 37 100 78 c 4
 129 226 162 422 174 523 c 4
 184 606 177 612 111 623 c 4
 91 626 80 632 80 643 c 4
 80 654 97 656 117 656 c 4
 143 656 179 650 230 650 c 4
 266 650 302 651 324 651 c 4
 340 651 351 647 351 639 c 4
 351 630 329 622 311 620 c 4
 263 615 255 602 245 539 c 4
 226 415 206 293 186 167 c 4
 179 121 188 122 225 165 c 6
 496 485 l 6
 533 528 544 551 544 570 c 4
 544 602 526 616 476 623 c 4
 456 626 446 633 446 644 c 4
 446 653 466 656 482 656 c 4
 512 656 574 650 613 650 c 4
 651 650 681 656 713 656 c 4
 729 656 736 651 736 643 c 4
 736 634 722 627 699 623 c 4
 636 613 623 597 616 551 c 6
 560 167 l 6
 553 122 563 122 598 166 c 6
 857 490 l 6
 928 579 919 612 872 621 c 4
 851 625 847 629 847 639 c 4
 847 648 862 652 878 652 c 4
 895 652 958 650 992 650 c 4
 1033 650 1052 656 1083 656 c 4
 1099 656 1106 651 1106 643 c 4
 1106 634 1092 624 1069 620 c 4
 1027 612 992 592 952 543 c 6
 582 94 l 6
 547 51 498 -14 484 -14 c 4
 446 -14 468 64 476 112 c 6
 540 492 l 5
 210 97 l 6
 174 54 134 -14 120 -14 c 4x7e
1231 474.094726562 m 0
 1225.91796875 445.280273438 1206.00390625 437.434570312 1195.14648438 437.434570312 c 0
 1178.01757812 437.434570312 1161.90039062 451.635742188 1161.90039062 471.25 c 3
 1161.90039062 515.095703125 1209.45019531 649.849609375 1395.65039062 649.849609375 c 0
 1489.17871094 649.849609375 1516.828125 574.983398438 1516.828125 479.60546875 c 0
 1516.828125 354.797851562 1476.48242188 177.865234375 1457.45019531 104.599609375 c 1
 1602.79980469 274.650390625 1737.40039062 531.650390625 1765.40039062 582.950195312 c 1
 1759 617 1770 655 1803.40039062 659.849609375 c 0
 1830.65820312 663.807617188 1847 649 1851.59960938 609.650390625 c 0
 1870.87304688 444.767578125 1842 222 1795.84960938 35.2998046875 c 0
 1792.95214844 23.578125 1794.93457031 16.2373046875 1798.70019531 17.25 c 0
 1858.73632812 33.38671875 1985.80566406 159.72265625 2052.73339844 262 c 0
 2117.03125 360.2578125 2151 456.111328125 2151 487.349609375 c 0
 2151 508.25 2144.6640625 548.478515625 2094 559.549804688 c 0
 2080.5 562.5 2066.88378906 574.669921875 2069.75 598.75 c 0
 2072.75 623.950195312 2094.95019531 648.849609375 2120.59960938 648.849609375 c 0xbe
 2159.54980469 648.849609375 2207.75 613.700195312 2207.75 547.200195312 c 0
 2207.75 356.8046875 1904.72265625 -34.5654296875 1736.04980469 -43.7001953125 c 0
 1713.23339844 -44.935546875 1700.24121094 -29.8203125 1708.29980469 -1.900390625 c 0
 1761.84960938 183.625976562 1791.46679688 334.049804688 1780.59960938 542.200195312 c 1
 1702.70019531 399.700195312 1624.79980469 259.349609375 1446.20019531 38 c 0
 1423.40039062 8.5498046875 1381.65039062 -41.7001953125 1364.04980469 -41.7001953125 c 0
 1341.67089844 -41.7001953125 1334.59667969 -15.97265625 1343.09960938 1.0498046875 c 0
 1373.12304688 61.154296875 1439.80371094 285.889648438 1439.80371094 442.12890625 c 0
 1439.80371094 500.741210938 1434.70507812 616.677734375 1339.42480469 616.677734375 c 0
 1227.55273438 616.677734375 1239.81054688 524.049804688 1231 474.094726562 c 0
EndSplineSet
EndChar

StartChar: X
Encoding: 88 88 23
Width: 1706
Flags: W
HStem: 1 25<83.375 159.534 297.981 338.909 437.817 495.953 653.167 717.116 1413.5 1495.59> 303.85 70<944.385 1013.69> 598.85 41.1504<1048 1167.03> 622 33<274.227 352.251 464.821 542.625 636.161 684.346 794.556 871.789>
VStem: 880.15 50<388.368 493.12> 890.4 82.6494<18.3845 109.521> 1543 76<77.1293 156> 1544 82.6504<539.722 628.239>
LayerCount: 2
Fore
SplineSet
104 -5 m 0xe0
 88 -5 80 -2 80 6 c 0
 80 15 94 25 118 28 c 0
 165 34 208 53 275 124 c 2
 427 284 l 2
 446 304 459 319 449 351 c 2
 397 529 l 2
 374 609 343 616 305 622 c 0
 286 625 273 634 273 643 c 0
 273 651 295 655 311 655 c 0xd0
 342 655 391 650 437 650 c 0
 474 650 502 652 519 652 c 0
 535 652 543 649 543 641 c 0
 543 632 530 623 506 621 c 0
 455 617 451 601 471 528 c 2
 506 397 l 2
 511 378 519 378 533 394 c 2
 640 520 l 2
 703 595 693 612 660 620 c 0
 648 623 636 631 636 640 c 0
 636 648 650 651 666 651 c 0
 688 651 715 650 743 650 c 0
 779 650 826 656 851 656 c 0
 867 656 875 653 875 645 c 0
 875 636 861 631 838 625 c 0
 800 615 730 568 679 513 c 2
 547 370 l 2
 529 350 526 343 529 331 c 2
 589 111 l 2
 604 55 620 45 694 26 c 0
 714 21 719 15 719 6 c 0
 719 -2 705 -5 689 -5 c 0
 663 -5 592 1 548 1 c 0
 510 1 483 0 461 0 c 0
 445 0 437 3 437 11 c 0
 437 20 461 27 475 31 c 0
 522 43 531 67 519 111 c 2
 475 270 l 2
 471 284 464 285 456 275 c 2
 310 100 l 2
 278 62 283 39 315 30 c 0
 335 24 339 21 339 12 c 0
 339 4 325 -1 309 -1 c 0
 292 -1 256 1 223 1 c 0
 181 1 135 -5 104 -5 c 0xe0
1444 1 m 3
 1371.89355469 1 1309.80566406 33.166015625 1284.95019531 134.900390625 c 0
 1271 192 1255 248 1243.90039062 301.349609375 c 1
 1181.20019531 267.150390625 1090.84960938 208.049804688 1064.25 191.900390625 c 0
 973.049804688 132.049804688 973.049804688 118.75 973.049804688 95.9501953125 c 0
 973.049804688 77.830078125 994.049804688 73.009765625 994.049804688 33.5498046875 c 0
 994.049804688 9.2998046875 964.5 -8 936.950195312 -8 c 0
 913.200195312 -8 890.400390625 15.2001953125 890.400390625 54.150390625 c 0xe6
 890.400390625 78.849609375 892.299804688 110.200195312 1002.5 186.200195312 c 0
 1069 231.799804688 1135.40039062 274.75 1237.04980469 333.650390625 c 1
 1207.95019531 486.400390625 l 2
 1191.20605469 574.295898438 1160.09179688 598.849609375 1106.15039062 598.849609375 c 27
 1005.8828125 598.849609375 930.150390625 511.849609375 930.150390625 441.849609375 c 0
 930.150390625 395.849609375 953.150390625 379.849609375 990.150390625 373.849609375 c 0
 1008.15039062 370.849609375 1018.15039062 357.849609375 1018.15039062 342.849609375 c 0
 1018.15039062 324.849609375 1004.15039062 303.849609375 968.150390625 303.849609375 c 0
 914.150390625 303.849609375 880.150390625 355.849609375 880.150390625 407.849609375 c 0
 880.150390625 537.849609375 1021.77441406 640 1149 640 c 0
 1226 640 1257.89941406 583.712890625 1275.59960938 518 c 0
 1290.6875 461.986328125 1303 414 1312.75 370.099609375 c 1
 1382.09960938 408.099609375 1452.94042969 457.684570312 1463.25 464.549804688 c 4
 1530 509 1544 531.049804688 1544 552.900390625 c 4
 1544 576.01953125 1525 570.841796875 1525 612.299804688 c 4
 1525 636.549804688 1551.59960938 654.849609375 1580.09960938 654.849609375 c 4
 1603.84960938 654.849609375 1626.65039062 633.650390625 1626.65039062 594.700195312 c 4xe9
 1626.65039062 566.200195312 1620 538.650390625 1525 470.25 c 4
 1464.20019531 426.549804688 1368 366.299804688 1319.54980469 337.799804688 c 1
 1350.59960938 181.450195312 l 2
 1365.16992188 108.083984375 1388.70605469 26 1450 26 c 3
 1503 26 1543 68 1543 105 c 0
 1543 127 1526 129 1513 137 c 0
 1504 143 1497 151 1497 168 c 0
 1497 193 1520 212 1543 212 c 0
 1595 212 1619 174 1619 138 c 0xe2
 1619 79 1547 1 1444 1 c 3
EndSplineSet
EndChar

StartChar: Y
Encoding: 89 89 24
Width: 1484
Flags: W
HStem: -131 37<735.423 879.055> -20 105<719.231 766.869> -5 29<80.8438 157.653 303.55 361.641> 572.85 76<1262.57 1325.68> 612.65 35.1992<800.783 907.866> 620 33<121.308 181.809 287.885 359.642 481.633 532.984 639.286 709.67>
VStem: 650 69<-70.4829 20> 695.9 84.0996<438.019 555.202> 1024.8 80.1504<50.5773 410.895> 1352.45 51.9502<443.254 545.281>
LayerCount: 2
Fore
SplineSet
104 -5 m 4xa4c0
 88 -5 80 -2 80 6 c 4
 80 15 93 20 116 24 c 4
 165 33 200 60 215 108 c 6
 266 268 l 6
 275 295 273 314 265 342 c 6
 209 548 l 6
 197 593 179 617 148 620 c 4
 129 622 120 633 120 642 c 4
 120 650 139 653 155 653 c 4
 183 653 219 650 263 650 c 4
 292 650 318 652 338 652 c 4
 354 652 361 649 361 641 c 4
 361 632 348 625 324 621 c 4
 286 615 279 607 291 560 c 6
 333 401 l 6
 340 375 345 363 352 363 c 4
 359 363 371 376 388 395 c 4
 432 444 459 481 504 537 c 4
 548 592 543 610 505 620 c 4
 492 623 481 631 481 640 c 4
 481 648 495 651 511 651 c 4
 539 651 559 650 589 650 c 4
 627 650 666 653 687 653 c 4
 703 653 712 650 712 642 c 4
 712 633 697 629 678 623 c 4
 639 611 580 565 551 534 c 4
 501 482 422 392 385 352 c 4
 355 320 346 294 334 256 c 6
 289 108 l 6
 275 63 293 33 337 24 c 4
 357 20 362 15 362 6 c 4
 362 -2 348 -5 332 -5 c 4
 282 -5 266 0 224 0 c 4
 177 0 154 -5 104 -5 c 4xa4c0
804 -131 m 3
 692.000976562 -131 650 -59 650 0 c 0
 650 40 670 85 720 85 c 0
 747 85 781 60 781 33 c 0
 781 2 767 -12 753 -20 c 0
 739.271484375 -27.8447265625 719 -25 719 -45 c 0xd2c0
 719 -71 746 -94 799 -94 c 0
 878.349609375 -94 961 -34 1016 14.400390625 c 1
 1021.0078125 63.447265625 1024.79980469 133.200195312 1024.79980469 150.099609375 c 3
 1024.79980469 353.447265625 1024.78027344 612.650390625 836.049804688 612.650390625 c 3
 773.287109375 612.650390625 776 521 780 472.094726562 c 0
 781.276367188 456.495117188 763.03515625 432.528320312 740 432.528320312 c 3
 726.0078125 432.528320312 695.900390625 441.134765625 695.900390625 470.25 c 0
 695.900390625 514.049804688 721.450195312 647.849609375 877.650390625 647.849609375 c 0xc9c0
 1125.25 647.849609375 1104.95019531 289.75 1104.95019531 185.25 c 0
 1104.95019531 155.799804688 1100.95019531 112.5 1099.04980469 83.0498046875 c 1
 1133.96289062 116.98828125 1201.43066406 189.234375 1252.92089844 270 c 0
 1312.13867188 362.887695312 1352.45019531 460.108398438 1352.45019531 493.049804688 c 3
 1352.45019531 520.549804688 1340 559 1277.65039062 572.849609375 c 0
 1265.87109375 575.465820312 1255.25 583.700195312 1255.25 606.049804688 c 0
 1255.25 626.5 1275.75 648.849609375 1303.29980469 648.849609375 c 0x91c0
 1344.15039062 648.849609375 1404.40039062 611.599609375 1404.40039062 533.700195312 c 0
 1404.40039062 486.200195312 1352 293 1148 77 c 0
 1044.76660156 -32.306640625 897.557617188 -131 804 -131 c 3
EndSplineSet
EndChar

StartChar: Z
Encoding: 90 90 25
Width: 1596
VWidth: 950
Flags: W
HStem: -39 48<1221.64 1345.93> -5 37<220.868 536.491> 332.5 42.75<984.465 1097.36 1251.51 1269.52> 617 29<440.082 641.307> 640 54<1026.49 1153.68>
VStem: 935.306 55<511.296 606.621> 1388.31 65<67.0042 156.223>
LayerCount: 2
Fore
SplineSet
601.305664062 -5 m 0x76
 504.305664062 -5 349.305664062 -1 266.305664062 -1 c 0
 233.305664062 -1 136.305664062 -3 83.3056640625 -3 c 0
 77.3056640625 -3 81.3056640625 11 81.3056640625 11 c 1
 84.3056640625 21 132.305664062 73 163.305664062 104 c 0
 346.305664062 290 456.305664062 416 641.305664062 601 c 0
 646.305664062 606 654.305664062 616 632.305664062 617 c 0
 588.305664062 619 459.305664062 614 393.305664062 608 c 0
 363.305664062 605 307.305664062 578 271.305664062 518 c 0
 262.305664062 503 253.305664062 493 244.305664062 493 c 0
 236.305664062 493 232.305664062 502 232.305664062 512 c 0
 232.305664062 516 235.305664062 526 240.305664062 537 c 0
 252.305664062 564 273.305664062 605 282.305664062 627 c 0
 289.305664062 644 297.305664062 653 312.305664062 653 c 0
 328.305664062 653 363.305664062 648 396.305664062 647 c 0
 444.305664062 646 512.305664062 646 554.305664062 646 c 0
 631.305664062 646 688.305664062 647 757.305664062 649 c 0
 765.305664062 649 774.305664062 631 770.305664062 627 c 2
 693.305664062 550 l 2
 507.305664062 364 400.305664062 263 229.305664062 67 c 0
 215.305664062 51 217.305664062 40 235.305664062 38 c 0
 261.305664062 35 293.305664062 32 334.305664062 32 c 0
 376.305664062 32 464.305664062 35 508.305664062 41 c 0
 576.305664062 50 636.305664062 82 678.305664062 150 c 0
 683.305664062 158 689.305664062 169 699.305664062 169 c 0
 709.305664062 169 708.305664062 159 708.305664062 150 c 0
 708.305664062 129 647.305664062 36 632.305664062 12 c 0
 627.305664062 4 619.305664062 -5 601.305664062 -5 c 0x76
1516.30566406 645 m 0
 1516.30566406 597 1453.30566406 567 1372.30566406 564 c 1
 1220.05664062 394.969726562 1069.890625 223.466796875 894.305664062 82 c 1
 990.305664062 112 1066.30566406 94 1135.30566406 67 c 0
 1222.31542969 32.9521484375 1253.30566406 9 1306.30566406 9 c 0
 1348.30566406 9 1388.30566406 54 1388.30566406 93 c 0
 1388.30566406 110 1374.30566406 127 1374.30566406 141 c 0
 1374.30566406 158 1399.30566406 176 1414.30566406 176 c 0
 1438.30566406 176 1453.30566406 156 1453.30566406 134 c 0
 1453.30566406 65 1364.30566406 -39 1269.30566406 -39 c 0
 1201.30566406 -39 1136.30566406 -27 1067.30566406 0 c 0
 969.01171875 38.462890625 917.305664062 56 859.305664062 35 c 1
 827.305664062 15 818.771484375 -10.4248046875 798.305664062 -30 c 0
 775.305664062 -52 734.305664062 -38 734.305664062 -13 c 0
 734.305664062 15 777.305664062 48 838.305664062 70 c 1
 1018.50488281 229.233398438 1176.92480469 395.471679688 1325.30566406 565 c 1
 1219.30566406 568 1155.30566406 639 1064.30566406 640 c 0
 1013.30957031 640.560546875 990.305664062 616 990.305664062 564 c 0
 990.305664062 547.798828125 1001.30566406 541.939453125 1001.30566406 527 c 0
 1001.30566406 506 982.305664062 494 963.305664062 494 c 0
 944.305664062 494 935.305664062 514 935.305664062 534 c 0
 935.305664062 609 1007.38671875 690.002929688 1106.30566406 694 c 0xae
 1205.30566406 698 1322.30566406 647 1364.30566406 609 c 1
 1399.30566406 654 1442.30566406 686 1477.30566406 685 c 0
 1500.30566406 684 1516.30566406 671 1516.30566406 645 c 0
1097.35546875 332.5 m 1
 1007.10546875 332.5 l 2
 990.005859375 332.5 982.405273438 339.5 982.405273438 348.049804688 c 0
 982.405273438 353.849609375 994.85546875 375.25 1018.05566406 375.25 c 2
 1142.95605469 375.25 l 2
 1169.56152344 375.701171875 1238.93164062 374.299804688 1268.95605469 374.299804688 c 3
 1297.77929688 374.299804688 1278.13085938 332.5 1251.50585938 332.5 c 0
 1097.35546875 332.5 l 1
EndSplineSet
EndChar

StartChar: backslash
Encoding: 92 92 26
Width: 741
Flags: W
HStem: -21 34<203.783 425.418> 213 76<169.805 264.499> 640 30<382.704 523.165>
VStem: 80 39<71.632 184.009>
LayerCount: 2
Fore
SplineSet
308 13 m 0
 429 13 545.604492188 59.3740234375 529 159 c 0
 515 243 452.1171875 285.94140625 384 320 c 0
 326 349 236 395 225 480 c 0
 209.217773438 601.954101562 338 670 465 670 c 0
 510 670 570.762695312 657.176757812 610 629 c 0
 645.3515625 603.61328125 668 574 660 533 c 0
 651.09765625 487.374023438 621 474 593 474 c 0
 583 474 581 479 583 488 c 0
 584 494 589 504 590 512 c 0
 599 569 550 640 454 640 c 0
 359 640 296.734375 576.83984375 306 487 c 0
 310.341796875 444.899414062 350 384 419 341 c 0
 487.244140625 298.470703125 604.217773438 270.950195312 619 181 c 0
 639.34375 57.212890625 468 -21 303 -21 c 3
 186 -21 80 33 80 128 c 0
 80 206 155.994140625 289 251 289 c 3
 298.010742188 289 359 270 359 225 c 0
 359 205 340 167 312 167 c 0
 299 167 278 186 249 199 c 0
 233 207 215 213 194 213 c 0
 149 213 119 173 119 125 c 0
 119 52 206 13 308 13 c 0
EndSplineSet
EndChar

StartChar: a
Encoding: 97 97 27
Width: 1187
Flags: W
HStem: -14 63<133.574 205.002 373.068 436.168> -14 54<629.786 708.234> -14 32<904.722 971.321> 353 56<323.643 398.457>
VStem: 417.165 65.0029<380.004 416.228> 1074.28 32.6309<146.033 198.936>
LayerCount: 2
Fore
SplineSet
136.20703125 -14 m 0x9c
 111.20703125 -14 82.89453125 8 80.58203125 30 c 0
 73.1201171875 101 138.033203125 216 240.627929688 315 c 0
 306.005859375 378 347.748046875 409 368.748046875 409 c 0
 378.748046875 409 390.37890625 403 398.219726562 395 c 0
 418.7421875 371 410.795898438 380 411.795898438 380 c 0
 413.795898438 380 415.5859375 382 417.165039062 386 c 0
 432.801757812 418 434.486328125 421 431.01171875 416 c 1
 434.276367188 423 437.9609375 426 441.9609375 426 c 0
 459.9609375 426 481.1171875 415 482.16796875 405 c 0
 482.588867188 401 481.32421875 394 477.795898438 380 c 2
 397.01171875 83 l 2
 391.21875 62 397.584960938 49 413.584960938 49 c 0x9c
 437.584960938 49 473.852539062 75 495.279296875 109 c 0
 496.963867188 112 500.75390625 114 503.75390625 114 c 0
 508.75390625 114 511.069335938 111 511.91015625 103 c 0
 512.85546875 94 493.4296875 60 475.53125 40 c 0x5c
 441.209960938 5 404.20703125 -14 372.20703125 -14 c 0x3c
 351.20703125 -14 327.104492188 6 325.107421875 25 c 0
 324.477539062 31 325.53125 40 328.690429688 48 c 1
 319.212890625 24 349.069335938 111 364.654296875 153 c 0
 370.182617188 167 368.131835938 177 361.078125 168 c 0
 253.372070312 32 196.20703125 -14 136.20703125 -14 c 0x9c
185.584960938 49 m 0
 214.584960938 49 271.224609375 100 335.081054688 187 c 0
 378.879882812 246 405.309570312 299 402.787109375 323 c 0
 402.26171875 328 395.420898438 336 387.790039062 342 c 0
 379.159179688 348 368.633789062 353 361.633789062 353 c 0
 337.633789062 353 291.576171875 325 261.044921875 292 c 0
 200.876953125 227 148.176757812 129 153.01171875 83 c 0
 155.114257812 63 168.584960938 49 185.584960938 49 c 0
966.95703125 326 m 0
 967.875976562 309.612304688 960.083984375 283 933.083984375 238 c 1
 901.083984375 132 878.177734375 18 925.584960938 18 c 4
 952.584960938 18 1033.9140625 45.7734375 1074.27929688 189 c 0
 1077.39746094 200.065429688 1092.75390625 199 1095.75390625 199 c 0
 1100.75390625 199 1111.38476562 198.322265625 1106.91015625 183 c 0
 1065.3828125 40.8037109375 980.586914062 -14 922.20703125 -14 c 0x3c
 821.893554688 -14 836.830078125 66.0771484375 857.083984375 153 c 0
 860.5 167.659179688 856.791992188 171.256835938 850.078125 162 c 0
 747.083984375 20 696.20703125 -14 636.20703125 -14 c 3
 496.444335938 -14 535.34765625 212.2265625 678.344726562 337 c 0
 736.0625 387.362304688 792.435546875 412.163085938 853.748046875 416 c 0
 939.389648438 421.360351562 1025.94921875 373.905273438 1040.08398438 351 c 0
 1048.59960938 337.19921875 1033.64355469 314.697265625 1021.08398438 328 c 0
 989.0859375 361.889648438 928.477539062 386.790039062 851.633789062 379 c 0
 801.537109375 373.921875 750.487304688 349.627929688 705.989257812 305 c 0
 609.845703125 208.576171875 570.416015625 40 672.584960938 40 c 3x5c
 741.118164062 40 866.986328125 210.754882812 873.165039062 245 c 1
 882.314453125 284.62890625 887.086914062 353 927.083984375 353 c 0
 950.822265625 353 966.04296875 342.305664062 966.95703125 326 c 0
EndSplineSet
EndChar

StartChar: b
Encoding: 98 98 28
Width: 968
Flags: W
HStem: -8 32<163.096 231.802 522.908 591.802> 376 38<308.6 371.444> 675 30<633.448 680.848>
LayerCount: 2
Fore
SplineSet
174.934570312 -8 m 0
 122.934570312 -8 86.5712890625 24 81.3154296875 74 c 0
 77.8466796875 107 81.22265625 151 91.59765625 195 c 2
 177.553710938 576 l 2
 182.556640625 595 183.6640625 613 181.877929688 630 c 0
 181.141601562 637 173.616210938 642 155.090820312 647 c 0
 135.565429688 652 122.934570312 658 122.514648438 662 c 0
 121.883789062 668 125.462890625 672 137.04296875 676 c 0
 165.88671875 687 236.784179688 707 248.784179688 707 c 0
 259.784179688 707 265.099609375 704 265.8359375 697 c 0
 267.096679688 685 265.833007812 678 262.303710938 664 c 0
 243.451171875 596 183.83203125 345 165.081054688 257 c 0
 161.552734375 243 169.868164062 240 177.607421875 252 c 0
 245.67578125 356 312.580078125 414 362.580078125 414 c 0
 405.580078125 414 439.838867188 383 444.357421875 340 c 0
 460.438476562 187 309.934570312 -8 174.934570312 -8 c 0
197.571289062 24 m 0
 223.571289062 24 272.736328125 70 313.219726562 132 c 0
 354.493164062 196 383.823242188 288 378.778320312 336 c 0
 376.361328125 359 361.57421875 376 345.57421875 376 c 0
 303.57421875 376 256.409179688 330 196.499023438 234 c 0
 159.015625 172 135.901367188 116 138.529296875 91 c 0
 142.3125 55 169.571289062 24 197.571289062 24 c 0
739.580078125 414 m 0
 773.090820312 407.215820312 799.838867188 383 804.357421875 340 c 0
 820.438476562 187 669.934570312 -8 534.934570312 -8 c 0
 482.934570312 -8 446.571289062 24 441.315429688 74 c 0
 434.741210938 136.543945312 446.063476562 188.850585938 456.079101562 250 c 0
 468.7890625 327.59765625 489.439453125 417.350585938 532.553710938 555 c 0
 553.939453125 623.27734375 588.178710938 705 650.364257812 705 c 3
 695.590820312 705 731.430664062 675.150390625 732.352539062 629 c 4
 734.231445312 535 656.009765625 476 540.420898438 400 c 5
 542.84765625 434 l 1
 643.649414062 512 694.235351562 554 687.721679688 635 c 0
 686.09375 660 676.252929688 675 654.252929688 675 c 3
 624.525390625 675 602.802734375 596.997070312 578.821289062 508 c 0
 560.260742188 439.123046875 530.106445312 333.483398438 513.979492188 240 c 0
 493.989257812 124.129882812 493.97265625 24 557.571289062 24 c 0
 583.571289062 24 632.736328125 70 673.219726562 132 c 0
 714.493164062 196 743.823242188 288 738.778320312 336 c 0
 736.361328125 359 722.57421875 379 706.57421875 379 c 0
 675.122070312 379 677.612304688 288.849609375 740.100585938 266.10546875 c 0
 770.170898438 255.161132812 868.17578125 302.49609375 880.004882812 308.83203125 c 0
 888.22265625 313.235351562 890.1640625 304.35546875 888.395507812 297.264648438 c 0
 887.1796875 292.38671875 885.840820312 288.216796875 881.231445312 284.973632812 c 0
 817.733398438 240.295898438 740.932617188 216.600585938 685.328125 246.217773438 c 0
 626.223632812 277.69921875 616.978515625 335.029296875 648.990234375 380 c 0
 674.990234375 416.524414062 711.05859375 419.774414062 739.580078125 414 c 0
EndSplineSet
EndChar

StartChar: c
Encoding: 99 99 29
Width: 771
Flags: W
HStem: -15 56<163.024 249.712> -15 35<464.055 568.241> 387 27<241.656 326.02 509.541 600.085>
VStem: 332.768 64.2051<87.9855 262.588> 618.589 37.793<299.796 373.617> 656.704 34<107.512 152.219>
LayerCount: 2
Fore
SplineSet
176.109375 -15 m 0xbc
 140.109375 -15 86.58984375 28 81.0732421875 90 c 0
 70.4609375 210 138.01953125 414 308.01953125 414 c 0
 344.01953125 414 364.595703125 399 366.3828125 382 c 0
 368.6953125 360 355.533203125 333 341.533203125 333 c 0
 330.533203125 333 323.376953125 344 315.010742188 357 c 0
 305.43359375 372 292.857421875 387 270.857421875 387 c 0
 206.857421875 387 140.670898438 208 152.232421875 98 c 0
 156.857421875 54 177.223632812 41 206.223632812 41 c 0
 249.223632812 41 267.2265625 60 290.704101562 84 c 0
 298.7578125 93 301.337890625 97 309.337890625 97 c 0
 315.337890625 97 317.96875 91 318.704101562 84 c 0
 320.911132812 63 257.109375 -15 176.109375 -15 c 0xbc
549.486328125 387 m 4
 483.141601562 387 396.97265625 276.220703125 396.97265625 174.1328125 c 0
 396.97265625 96.2099609375 447.7578125 20 515.223632812 20 c 0
 578.223632812 20 639.2265625 84 656.704101562 144 c 0
 660.90234375 158.4140625 696.610351562 165.80859375 690.704101562 144 c 0
 673.911132812 82 607.109375 -15 486.109375 -15 c 0x7c
 393.959960938 -15 332.767578125 60.9462890625 332.767578125 162.478515625 c 0
 332.767578125 289.258789062 431.467773438 415 566.072265625 415 c 0
 612.072265625 415 656.381835938 381.036132812 656.381835938 351 c 3
 656.381835938 297.413085938 602.543945312 261.040039062 560.270507812 240 c 0
 548.497070312 234.140625 544.866210938 261.967773438 555.776367188 268 c 0
 595.564453125 290 618.588867188 312.651367188 618.588867188 340 c 3
 618.588867188 370.897460938 587.486328125 387 549.486328125 387 c 4
EndSplineSet
EndChar

StartChar: d
Encoding: 100 100 30
Width: 1233
Flags: W
HStem: -14 68<404.801 456.953> -14 47<151.135 230.128 664.979 745.549 899.742 1020.4> 388 32<297.879 363.616>
VStem: 359.801 63.2695<54.0051 147.273> 454.738 74.6934<631 691> 1036.75 24.3379<588.994 667.756> 1132.13 20.6143<189.787 220.915>
LayerCount: 2
Fore
SplineSet
527.848632812 668 m 2x7e
 424.8125 107 l 2
 422.96875 96 422.01953125 86 423.0703125 76 c 0
 424.647460938 61 429.3828125 54 439.3828125 54 c 0
 465.3828125 54 507.01953125 86 530.130859375 123 c 0
 532.709960938 127 534.60546875 128 537.60546875 128 c 0
 542.60546875 128 544.920898438 125 544.446289062 120 c 0
 548.440429688 82 451.530273438 -14 408.530273438 -14 c 0xbe
 386.530273438 -14 362.112304688 9 359.80078125 31 c 0
 359.274414062 36 359.749023438 41 361.067382812 57 c 0
 363.755859375 79 369.60546875 128 370.44921875 139 c 0
 370.502929688 148 366.977539062 153 363.608398438 147 c 0
 283.80078125 31 225.530273438 -14 153.530273438 -14 c 0
 114.530273438 -14 85.482421875 15 80.962890625 58 c 0
 73.080078125 133 114.307617188 245 178.689453125 327 c 0
 224.48828125 386 276.915039062 420 319.915039062 420 c 0
 336.915039062 420 340.01953125 419 379.541992188 395 c 0
 398.698242188 384 405.013671875 381 406.224609375 379 c 2
 409.48828125 386 l 1
 452.83984375 611 l 2
 455.158203125 627 455.158203125 627 454.73828125 631 c 0
 453.266601562 645 445.42578125 653 423.584960938 661 c 0
 392.533203125 671 392.533203125 671 392.11328125 675 c 0
 391.166992188 684 400.641601562 689 424.221679688 693 c 0
 464.590820312 699 508.959960938 705 515.959960938 705 c 0
 523.959960938 705 528.485351562 700 529.431640625 691 c 0
 530.166992188 684 529.903320312 677 527.848632812 668 c 2x7e
185.58984375 33 m 0x7e
 274.58984375 33 405.250976562 217 393.794921875 326 c 0
 389.6953125 365 369.278320312 388 337.278320312 388 c 0
 261.278320312 388 136.245117188 179 147.596679688 71 c 0
 150.64453125 42 159.58984375 33 185.58984375 33 c 0x7e
991.745117188 466 m 1
 1018.74511719 561 1036.74511719 629.552734375 1036.74511719 647 c 3
 1036.74511719 652.24609375 1032.86816406 672.123046875 1028.74511719 668 c 0
 1023.74511719 663 1007.74511719 569 991.745117188 466 c 1
964.280273438 301 m 1
 947.745117188 192 903.052734375 34 969.3828125 34 c 0
 1045.3828125 34 1104.6484375 145.923828125 1132.13085938 213 c 0
 1134.77929688 219.46484375 1140.60546875 221 1143.60546875 221 c 0
 1153.60546875 221 1155.23925781 207.795898438 1152.74511719 199 c 0
 1135.31738281 137.532226562 1071.53027344 -14 938.530273438 -14 c 0
 859.149414062 -14 875.892578125 79.5966796875 880.44921875 139 c 0
 880.502929688 148 876.77734375 153.108398438 873.608398438 147 c 0
 823.80078125 51 745.530273438 -14 673.530273438 -14 c 0
 486.618164062 -14 587.833007812 471.939453125 847.745117188 342 c 0
 855.76953125 337.98828125 855.688476562 331.448242188 853.745117188 327 c 4
 850.689453125 320.00390625 844.12109375 315.69921875 837.278320312 318 c 0
 642.478515625 383.499023438 590.166992188 33 695.58984375 33 c 0
 792.875 33 842.0625 129.96875 889.997070312 257 c 1
 906.802734375 393.595703125 941.5703125 608.8671875 968.0703125 676 c 0
 979.467773438 704.874023438 999.157226562 706 1011.75 706 c 3
 1023.36914062 706 1061.08300781 700.052734375 1061.08300781 648 c 3
 1061.08300781 588.384765625 996.9765625 414.57421875 964.280273438 301 c 1
EndSplineSet
EndChar

StartChar: e
Encoding: 101 101 31
Width: 848
Flags: W
HStem: -15 54<167.407 263.573> -15 36<498.645 622.342> 219 23<463.558 563.804> 389 25<266.961 322.756 548.189 631.858>
VStem: 375.8 68.0879<72.601 233.192> 652.166 57.79<287.844 378.43> 736.913 30.7363<147.342 195.531>
LayerCount: 2
Fore
SplineSet
184.264648438 -15 m 0xbe
 141.264648438 -15 86.2734375 42 81.333984375 89 c 0
 67.25 223 166.174804688 414 308.174804688 414 c 0
 355.174804688 414 384.381835938 393 387.956054688 359 c 0
 396.784179688 275 283.462890625 240 174.669921875 219 c 0
 166.880859375 217 162.880859375 217 160.721679688 209 c 0
 153.76953125 180 146.658203125 143 149.916015625 112 c 0
 154.856445312 65 175.588867188 39 210.588867188 39 c 0
 258.588867188 39 287.435546875 69 306.913085938 93 c 0
 313.072265625 101 318.756835938 104 323.756835938 104 c 0
 329.756835938 104 334.177734375 100 334.80859375 94 c 0
 335.018554688 92 335.333984375 89 333.649414062 86 c 0
 300.48046875 21 249.264648438 -15 184.264648438 -15 c 0xbe
179.252929688 242 m 0
 209.252929688 242 338.57421875 277 330.166015625 357 c 0
 328.37890625 374 316.802734375 389 299.802734375 389 c 0
 244.802734375 389 168.46875 278 171.622070312 248 c 0
 172.252929688 242 174.252929688 242 179.252929688 242 c 0
531.264648438 -15 m 0x7e
 413.830078125 -15 375.799804688 82.19921875 375.799804688 154.82421875 c 0
 375.799804688 281.094726562 477.693359375 414 598.174804688 414 c 0
 675.174804688 414 709.956054688 373.1875 709.956054688 339 c 3
 709.956054688 254.537109375 572.462890625 221 463.669921875 219 c 0
 459.385742188 218.920898438 453.934570312 216.642578125 451.155273438 213 c 1
 444.215820312 194.969726562 443.887695312 169.48828125 443.887695312 159.833984375 c 0
 443.887695312 105.157226562 468.868164062 21 557.588867188 21 c 0
 655.588867188 21 711.435546875 108 736.913085938 183 c 0
 740.161132812 192.560546875 750.756835938 196 755.756835938 196 c 0
 765.154296875 196 770.471679688 185.506835938 767.649414062 176 c 0
 736.48046875 71 656.264648438 -15 531.264648438 -15 c 0x7e
469.252929688 242 m 0
 530.252929688 239 652.166015625 256.87890625 652.166015625 337 c 3
 652.166015625 354.09375 636.802734375 392 589.802734375 392 c 0
 524.802734375 392 458.46875 278 461.622070312 248 c 0
 462.252929688 242 464.258789062 242.245117188 469.252929688 242 c 0
EndSplineSet
EndChar

StartChar: f
Encoding: 102 102 32
Width: 1079
Flags: W
HStem: -290 40<154.461 228.051 514.34 601.76> 259 40<540.151 710.417> 362 38<276.471 360.074 437.13 539.753> 665 41<514.199 603.023> 675 31<855.306 920.844>
VStem: 470.131 37.5283<-244.619 -156.929> 618.32 66.7393<589.98 650.779>
LayerCount: 2
Fore
SplineSet
168.385742188 -290 m 0xf6
 118.385742188 -290 83.5986328125 -273 80.130859375 -240 c 0
 78.0283203125 -220 101.715820312 -198 114.715820312 -198 c 0
 124.715820312 -198 135.1875 -212 149.659179688 -226 c 0
 163.025390625 -239 180.181640625 -250 204.181640625 -250 c 0
 242.181640625 -250 258.553710938 -225 279.9921875 -115 c 2
 366.275390625 339 l 2
 368.909179688 352 364.383789062 357 350.383789062 357 c 2
 288.48828125 356 l 2
 279.48828125 356 274.962890625 361 274.227539062 368 c 0
 273.071289062 379 280.599609375 393 290.494140625 394 c 2
 360.07421875 398 l 2
 368.96875 399 375.233398438 406 376.971679688 418 c 2
 381.608398438 450 l 2
 409.638671875 640 513.702148438 706 583.702148438 706 c 0
 642.702148438 706 680.75 677 685.059570312 636 c 0
 688.6328125 602 667.419921875 585 649.419921875 585 c 0
 639.419921875 585 630.6328125 602 618.3203125 624 c 0
 603.482421875 651 584.01171875 665 555.01171875 665 c 0
 498.01171875 665 479.26953125 634 453.038085938 503 c 0
 447.770507812 477 445.083007812 455 439.815429688 429 c 0
 437.8671875 419 436.182617188 416 436.91796875 409 c 0
 437.653320312 402 441.864257812 400 447.864257812 400 c 0
 487.864257812 400 523.548828125 403 557.548828125 403 c 0
 561.548828125 403 564.864257812 400 565.705078125 392 c 0
 566.650390625 383 557.752929688 363 539.752929688 363 c 2
 448.857421875 362 l 2
 434.857421875 362 427.278320312 358 425.540039062 346 c 0
 394.41015625 195 366.596679688 41 343.466796875 -110 c 0
 326.712890625 -217 224.385742188 -290 168.385742188 -290 c 0xf6
977.548828125 403 m 0
 980.94140625 405.120117188 987.864257812 406 991.705078125 399 c 0
 996.05859375 391.06640625 994.30859375 372.602539062 979.752929688 363 c 0
 898.947265625 309.690429688 682.439453125 259 560.48828125 259 c 3
 546.98046875 259 539.227539062 265.961914062 539.227539062 273 c 3
 539.227539062 284.060546875 548.365234375 299 560.494140625 299 c 3
 667.60546875 299 881.875976562 343.215820312 977.548828125 403 c 0
548.385742188 -290 m 0
 498.385742188 -290 470.130859375 -263.181640625 470.130859375 -220 c 3
 470.130859375 -49.01171875 820.985351562 62.0576171875 970.504882812 201 c 4
 988.547851562 217.766601562 1013.83496094 197.467773438 988.043945312 174 c 8
 848.831054688 47.3251953125 507.659179688 -88.2490234375 507.659179688 -206 c 3
 507.659179688 -234.645507812 530.181640625 -255 554.181640625 -255 c 0
 666.451171875 -255 689.411132812 60.6884765625 719.211914062 290 c 0
 751.436523438 537.958984375 788.153320312 706 890.702148438 706 c 0
 939.702148438 706 976.22265625 657.217773438 977.059570312 596 c 0
 979.02734375 452.028320312 818.9375 324.806640625 740.043945312 308.751953125 c 0
 722.747070312 305.232421875 740.327148438 340 737.043945312 340 c 0
 727.043945312 340 933.461914062 423.905273438 941.3203125 576 c 0
 942.91015625 606.767578125 941.01171875 675 882.01171875 675 c 0xee
 823.063476562 675 810.3984375 521.883789062 781.265625 286 c 0
 751.432617188 44.4501953125 707.623046875 -290 548.385742188 -290 c 0
EndSplineSet
EndChar

StartChar: g
Encoding: 103 103 33
Width: 1220
Flags: W
HStem: -290 30<232.693 387.159> -284 31<659.04 755.326> 77 34<735.952 820.091> 77 24<284.497 325.775> 346 58<465.334 557.941> 358 33<456.704 532.495> 386 28<335.924 391.478 808.5 933.351>
VStem: 576.721 41<-219.131 -122.91> 883.721 64.4277<32.4131 159.495 163.686 249.839 287.978 326.855>
LayerCount: 2
Fore
SplineSet
300.717773438 -290 m 0x9580
 183.717773438 -290 87.302734375 -248 80.15625 -180 c 0
 75.42578125 -135 179.221679688 -95 267.069335938 -65 c 0
 271.858398438 -63 272.54296875 -60 268.123046875 -56 c 0
 235.495117188 -31 215.813476562 -15 213.606445312 6 c 0
 211.609375 25 231.40234375 46 257.1953125 67 c 0
 263.564453125 73 264.14453125 77 263.93359375 79 c 0
 263.723632812 81 260.513671875 83 255.303710938 85 c 0
 212.201171875 105 198.258789062 133 193.528320312 178 c 0
 184.069335938 268 253.723632812 414 360.723632812 414 c 0x9380
 388.723632812 414 399.564453125 406 407.985351562 402 c 0
 417.510742188 397 427.141601562 391 437.141601562 391 c 0x0580
 459.141601562 391 506.775390625 404 533.775390625 404 c 0
 541.775390625 404 556.510742188 397 558.192382812 381 c 0
 560.8203125 356 551.87109375 346 543.87109375 346 c 0x0980
 524.87109375 346 479.609375 358 464.609375 358 c 0
 457.609375 358 449.924804688 355 454.081054688 344 c 0
 458.237304688 333 460.499023438 321 461.865234375 308 c 0
 472.690429688 205 394.14453125 77 305.14453125 77 c 0
 295.14453125 77 288.774414062 71 284.405273438 65 c 0
 277.456054688 55 275.40234375 46 276.453125 36 c 0
 278.975585938 12 290.237304688 0 326.654296875 -23 c 0
 363.072265625 -46 428.06640625 -84 459.2734375 -105 c 0
 490.48046875 -126 502.266601562 -143 504.369140625 -163 c 0
 511.7265625 -233 392.717773438 -290 300.717773438 -290 c 0x9580
299.622070312 101 m 0
 359.622070312 101 413.438476562 274 406.606445312 339 c 0
 404.504882812 359 386.666992188 386 366.666992188 386 c 0
 304.666992188 386 248.538085938 235 253.576171875 149 c 0
 256.309570312 123 277.622070312 101 299.622070312 101 c 0
327.564453125 -260 m 0
 407.564453125 -260 438.095703125 -227 434.3125 -191 c 0
 432.209960938 -171 418.79296875 -148 386.900390625 -130 c 0
 375.059570312 -122 339.748046875 -100 325.01171875 -93 c 0
 313.380859375 -87 301.9609375 -83 295.9609375 -83 c 0
 287.9609375 -83 279.170898438 -85 271.380859375 -87 c 0
 194.008789062 -112 145.056640625 -141 149.366210938 -182 c 0
 153.991210938 -226 245.564453125 -260 327.564453125 -260 c 0
945.64453125 325 m 0
 971.013671875 306.096679688 961.465820312 266.27734375 948.1484375 231.709960938 c 1
 949.360351562 133.146484375 938.59765625 -67.3447265625 871.834960938 -180 c 0
 819.897460938 -267.639648438 763.010742188 -284 706.720703125 -284 c 3
 628.603515625 -284 576.720703125 -241 576.720703125 -183 c 3
 576.720703125 30.7685546875 977.720703125 -91 1116.72070312 207 c 0
 1122.81640625 220.069335938 1145.625 205.928710938 1139.72070312 193 c 4
 1076.08300781 53.6484375 955.935546875 -1.498046875 848.720703125 -36.6669921875 c 0
 725.12109375 -77.2109375 617.720703125 -90.875 617.720703125 -171 c 3
 617.720703125 -211.607421875 659.608398438 -253 709.720703125 -253 c 3
 836.626953125 -253 887.282226562 30.9794921875 886.724609375 159.495117188 c 1
 849.453125 103.362304688 799.803710938 77 772.14453125 77 c 3
 562.3515625 77 622.770507812 414 860.723632812 414 c 0
 910.626953125 414 977.720703125 393 1001.72070312 361 c 0
 1014.99121094 343.306640625 1006.70019531 319.067382812 991.87109375 336 c 0
 964.720703125 367 904.197265625 386 866.666992188 386 c 3
 694.0703125 386 667.599609375 111 766.622070312 111 c 3x6380
 826.622070312 111 882.720703125 177 883.720703125 208 c 1
 882.024414062 236.723632812 875.98828125 267.340820312 879.916992188 289 c 0
 885.575195312 320.190429688 917.126953125 346.248046875 945.64453125 325 c 0
EndSplineSet
EndChar

StartChar: h
Encoding: 104 104 34
Width: 1062
Flags: W
HStem: -14 41<274.646 333.981> 374 47<347.512 408.582> 381 40<763.173 832.15> 675 30<697.793 753.736>
VStem: 80.6553 71.6436<25.3359 120.281> 184.701 73.5381<626 697> 510.551 48.1904<-17.0356 60.2863>
LayerCount: 2
Fore
SplineSet
100.388671875 -18 m 0xde
 90.388671875 -18 81.9169921875 -4 80.6552734375 8 c 0
 78.5537109375 28 81.7666015625 45 86.61328125 75 c 2
 176.848632812 558 l 2
 181.430664062 581 186.172851562 612 184.701171875 626 c 0
 183.334960938 639 161.704101562 645 145.178710938 650 c 0
 134.86328125 653 126.547851562 656 126.022460938 661 c 0
 125.497070312 666 127.076171875 670 141.446289062 676 c 0
 160.60546875 684 226.1875 707 240.1875 707 c 0
 246.1875 707 257.1875 707 258.239257812 697 c 0
 259.39453125 686 258.130859375 679 256.076171875 670 c 2
 169.475585938 200 l 2
 167.526367188 190 172.421875 191 175.791015625 197 c 0
 250.126953125 327 344.248046875 421 404.248046875 421 c 0
 448.248046875 421 475.92578125 386 479.919921875 348 c 0
 490.74609375 245 441.409179688 115 380.08203125 42 c 0
 366.763671875 26 313.967773438 -14 276.967773438 -14 c 0
 261.967773438 -14 235.655273438 8 234.079101562 23 c 0
 233.028320312 33 245.03125 52 257.03125 52 c 0
 269.03125 52 277.662109375 46 285.291992188 40 c 0
 294.028320312 33 301.658203125 27 312.658203125 27 c 0
 370.658203125 27 428.00390625 214 416.232421875 326 c 0
 412.974609375 357 398.1875 374 373.1875 374 c 0
 301.1875 374 189.838867188 168 152.298828125 78 c 0
 126.025390625 14 116.388671875 -18 100.388671875 -18 c 0xde
978.04296875 239.029296875 m 0
 917.9765625 208.491210938 761.271484375 121.955078125 717.760742188 55.5400390625 c 4
 701.62890625 30.9169921875 733.0234375 19.45703125 753.587890625 29 c 0
 804.76171875 52.7470703125 855.247070312 195.178710938 848.229492188 300 c 0
 846.147460938 331.1015625 838.08203125 381 803.08203125 381 c 0
 731.08203125 381 624.733398438 168 587.193359375 78 c 0
 570.953125 38.4404296875 569.159179688 10.107421875 558.741210938 -5 c 0
 552.3046875 -14.3330078125 536.393554688 -18 530.283203125 -18 c 0
 520.283203125 -18 511.811523438 -4 510.55078125 8 c 0
 508.448242188 28 511.662109375 45 516.508789062 75 c 2
 606.743164062 558 l 1
 626.258789062 655.946289062 663.107421875 705 725.29296875 705 c 3
 770.51953125 705 807.340820312 675.159179688 807.28125 629 c 0
 807.16015625 536 740.938476562 481 615.349609375 400 c 1
 617.776367188 434 l 1
 718.578125 512 770.1640625 574 763.650390625 635 c 0
 760.990234375 659.911132812 744.181640625 675 722.181640625 675 c 3
 682.454101562 675 674.067382812 596.36328125 655.75 508 c 0
 632.060546875 393.717773438 605.8515625 251.456054688 596.370117188 200 c 0
 594.421875 190 602.728515625 190.786132812 605.685546875 197 c 0
 658.022460938 307 744.142578125 421 814.142578125 421 c 0xbe
 878.142578125 421 909.390625 380.125976562 911.916992188 322 c 0
 916.400390625 218.87109375 895.495117188 113.983398438 832.9765625 42 c 0
 808.658203125 14 756.86328125 -14 716.86328125 -14 c 0
 701.86328125 -14 666.556640625 -5.03515625 663.973632812 23 c 0
 656.4921875 104.185546875 877.234375 224.232421875 963.640625 260.532226562 c 0
 967.001953125 261.944335938 973.390625 264.8125 977.560546875 261.59765625 c 0
 984.952148438 255.896484375 981.689453125 240.8828125 978.04296875 239.029296875 c 0
EndSplineSet
EndChar

StartChar: j
Encoding: 106 106 35
Width: 991
Flags: W
HStem: -290 41<149.708 222.299 471.475 561.167> 240 32<541.902 590.303> 508 75<746.442 819.315> 513 100<418.319 488.321>
VStem: 409.147 88.1074<521.793 603.776> 420.126 43.8975<-243.54 -155.286>
LayerCount: 2
Fore
SplineSet
448.24609375 513 m 0xd8
 428.24609375 513 411.249023438 532 409.147460938 552 c 0
 405.784179688 584 426.736328125 613 458.736328125 613 c 0
 479.736328125 613 495.047851562 591 497.254882812 570 c 0
 500.408203125 540 478.24609375 513 448.24609375 513 c 0xd8
162.64453125 -290 m 0
 115.64453125 -290 82.1220703125 -266 80.1259765625 -247 c 0
 78.3388671875 -230 95.9208984375 -207 114.920898438 -207 c 0
 126.920898438 -207 136.8671875 -216 148.0234375 -227 c 0
 159.1796875 -238 174.3359375 -249 197.3359375 -249 c 0
 233.3359375 -249 250.131835938 -209 263.03515625 -151 c 2
 359.89453125 288 l 2
 364.58203125 310 360.426757812 321 348.426757812 321 c 0
 337.426757812 321 314.58203125 310 286.159179688 295 c 0
 282.369140625 293 272.159179688 295 271.528320312 301 c 0
 271.002929688 306 272.6875 309 278.952148438 316 c 0
 332.380859375 369 362.91015625 383 418.651367188 414 c 0
 434.125976562 419 456.228515625 399 452.594726562 386 c 0
 442.377929688 350 434.162109375 314 425.260742188 275 c 2
 334.618164062 -128 l 2
 317.500976562 -203 222.64453125 -290 162.64453125 -290 c 0
888.624023438 604 m 0
 871.96875 566.883789062 807.251953125 508 769.190429688 508 c 0
 759.190429688 508 738.190429688 510 738.190429688 531 c 0
 738.190429688 547 750.755859375 580.51953125 769.190429688 583 c 0xe0
 811.3671875 588.674804688 835.256835938 594.602539062 868.190429688 611.965820312 c 0
 877.111328125 616.668945312 900.389648438 630.21875 888.624023438 604 c 0
502.64453125 -290 m 0
 455.64453125 -290 420.125976562 -256.103515625 420.125976562 -217 c 3
 420.125976562 -62.2705078125 778.140625 25.232421875 886.190429688 215.434570312 c 0
 896.123046875 232.919921875 925.448242188 232.047851562 904.190429688 195.522460938 c 0
 788.893554688 -2.5771484375 464.0234375 -88.3994140625 464.0234375 -202 c 7xc4
 464.0234375 -237.637695312 491.3359375 -252 517.3359375 -252 c 0
 632.942382812 -252 700.5859375 144.486328125 723.426757812 343 c 1
 712.426757812 343 634.826171875 246.427734375 553.159179688 240 c 0
 531.934570312 238.330078125 536.756835938 269.1953125 549.952148438 272 c 0
 629.11328125 288.826171875 703.91015625 394 758.651367188 414 c 0
 773.92578125 419.581054688 795.98046875 413.328125 792.594726562 380 c 0
 774.201171875 198.921875 717.770507812 -290 502.64453125 -290 c 0
EndSplineSet
EndChar

StartChar: k
Encoding: 107 107 36
Width: 1070
Flags: W
HStem: -21 60<339.362 396.678> -21 34<811.425 894.738> 178 25<188.281 227.653> 372 43<330.699 415.871 765.196 859.871> 420 21G<624.48 685.847> 695 30<718.092 774.345>
VStem: 80.2539 51.0537<-13.8293 89.4688> 520.254 55.0537<-13.25 48.0655> 961.794 28.8955<98.3637 160.557>
LayerCount: 2
Fore
SplineSet
356.196289062 -21 m 0xbf80
 324.196289062 -21 305.41015625 -4 288.046875 28 c 2
 238.905273438 134 l 2
 228.592773438 156 210.28125 178 188.28125 178 c 0
 179.28125 178 170.223632812 150 165.6953125 136 c 0
 159.692382812 117 136.310546875 35 131.307617188 16 c 0
 125.620117188 -6 124.56640625 -15 108.56640625 -15 c 0
 98.56640625 -15 81.5146484375 -5 80.25390625 7 c 0
 79.623046875 13 79.94140625 29 83.8388671875 49 c 2
 196.395507812 567 l 2
 201.767578125 592 202.0859375 608 200.404296875 624 c 0
 199.563476562 632 190.828125 639 176.302734375 644 c 0
 162.776367188 649 149.250976562 654 148.831054688 658 c 0
 148.305664062 663 149.884765625 667 153.674804688 669 c 0
 182.09765625 684 246.786132812 706 262.786132812 706 c 0
 268.786132812 706 278.786132812 706 279.836914062 696 c 0
 280.993164062 685 281.30859375 682 279.25390625 673 c 2
 187.452148438 262 l 2
 184.028320312 247 192.608398438 251 196.872070312 258 c 0
 254.887695312 353 335.37109375 415 402.37109375 415 c 0
 429.37109375 415 462.947265625 400 466.100585938 370 c 0
 473.458007812 300 347.232421875 207 281.229492188 188 c 0
 274.440429688 186 273.650390625 184 277.385742188 177 c 2
 334.842773438 68 l 2
 342.313476562 54 355.890625 39 370.890625 39 c 0
 395.890625 39 419.842773438 68 434.793945312 97 c 0
 440.533203125 109 444.427734375 110 449.427734375 110 c 0
 451.427734375 110 456.1640625 103 456.689453125 98 c 0
 461.103515625 56 387.196289062 -21 356.196289062 -21 c 0xbf80
227.653320312 203 m 0
 310.653320312 203 403.87890625 296 399.25390625 340 c 0
 397.15234375 360 383.890625 372 359.890625 372 c 0
 303.890625 372 210.923828125 248 213.866210938 220 c 0
 214.70703125 212 219.653320312 203 227.653320312 203 c 0
713.540039062 163.379882812 m 1
 696.991210938 162 673.978515625 171.11328125 672.991210938 189 c 0
 672.111328125 204.946289062 680.280273438 219.471679688 698.991210938 224 c 0
 713.497070312 227.510742188 734.329101562 217 745.991210938 198 c 1
 798.991210938 198 847.87890625 296 843.25390625 340 c 0
 841.151367188 360 827.890625 372 803.890625 372 c 0
 721.8125 372 631.817382812 201.8671875 599.6953125 116 c 0
 585.803710938 78.86328125 580.310546875 35 575.307617188 16 c 0
 569.620117188 -6 558.56640625 -15 542.56640625 -15 c 0
 532.56640625 -15 521.514648438 -5 520.25390625 7 c 0
 519.623046875 13 519.94140625 29 523.838867188 49 c 1
 523.838867188 49 558.469726562 296.510742188 589.692382812 492 c 0
 610.623046875 623.041015625 660.15625 726.305664062 742.99609375 725 c 0
 788.216796875 724.287109375 821.149414062 695 824.984375 649 c 0
 833.86328125 555 748.641601562 501 623.052734375 420 c 1
 625.479492188 454 l 1
 726.28125 532 790.8671875 574 784.353515625 655 c 0
 782.725585938 680 765.991210938 695 742.884765625 695 c 3
 714.908203125 695 686.174804688 638.947265625 669.0625 567 c 0
 641.032226562 449.146484375 621.403320312 288.64453125 615.452148438 262 c 0
 612.09765625 246.984375 630.608398438 251 634.872070312 258 c 0
 692.887695312 353 779.37109375 420 846.37109375 420 c 0
 873.37109375 420 907.947265625 400 911.100585938 370 c 0
 918.458007812 300 832.232421875 199 766.229492188 180 c 0
 759.440429688 178 757.650390625 176 761.385742188 169 c 1
 767.4453125 155.8828125 773.541015625 141.727539062 789.854492188 79 c 0
 800.28125 38.908203125 816.362304688 13 844.890625 13 c 0
 929.890625 13 956.84375 118 961.793945312 147 c 0
 964.032226562 160.112304688 976.427734375 161 981.427734375 161 c 0
 987.427734375 161 991.083984375 153.01171875 990.689453125 148 c 0
 986.991210938 101 941.196289062 -21 830.196289062 -21 c 0x7f80
 791.24609375 -21 743.116210938 8.37109375 727.499023438 62 c 0
 714.87109375 105.365234375 725.138671875 140.60546875 713.540039062 163.379882812 c 1
EndSplineSet
EndChar

StartChar: l
Encoding: 108 108 37
Width: 796
Flags: W
HStem: -14 59<121.238 189.45> -14 43<461.182 555.439> 675 30<607.512 667.91> 689 20G<281.748 292.748>
VStem: 80.1133 76.7422<30 61> 218.421 84.9033<636 694> 370.743 67<53.2678 257.01> 672.743 44<552.954 673.262> 680.743 25<217.4 259.152>
LayerCount: 2
Fore
SplineSet
129.73828125 -14 m 0x9e
 112.73828125 -14 82.42578125 8 80.11328125 30 c 0
 79.798828125 33 80.16796875 39 80.8525390625 42 c 2
 213.991210938 583 l 2
 218.994140625 602 220.20703125 619 218.420898438 636 c 0
 217.159179688 648 200.8984375 660 182.477539062 664 c 0
 168.162109375 667 159.63671875 672 159.111328125 677 c 0
 158.5859375 682 160.060546875 687 163.955078125 688 c 0
 201.008789062 697 273.748046875 709 289.748046875 709 c 0
 295.748046875 709 302.2734375 704 303.32421875 694 c 0
 304.165039062 686 302.321289062 675 300.267578125 666 c 2
 158.807617188 90 l 2
 155.963867188 79 156.014648438 69 156.85546875 61 c 0
 157.90625 51 161.537109375 45 168.537109375 45 c 0
 196.537109375 45 244.545898438 102 265.8671875 137 c 0
 272.711914062 148 283.450195312 160 289.450195312 160 c 0
 294.450195312 160 294.975585938 155 295.81640625 147 c 0
 302.858398438 80 182.73828125 -14 129.73828125 -14 c 0x9e
716.743164062 629 m 0x6f
 715.743164062 535 612.743164062 371 450.743164062 260 c 1
 442.743164062 210 437.743164062 163 437.743164062 125 c 0
 437.743164062 59 472.743164062 29 502.743164062 29 c 0
 587.743164062 29 663.743164062 179 680.743164062 256 c 4
 684.452148438 272.799804688 710.625976562 258.666992188 705.743164062 237 c 0x6e80
 688.497070312 160.471679688 608.743164062 -14 483.743164062 -14 c 0
 410.743164062 -14 370.743164062 54 370.743164062 157 c 0
 370.743164062 347 490.743164062 705 642.743164062 705 c 0
 694.743164062 705 717.743164062 675 716.743164062 629 c 0x6f
642.743164062 675 m 0
 566.743164062 675 490.743164062 472 456.743164062 294 c 1
 565.743164062 372 670.743164062 554 672.743164062 635 c 0x2f
 673.743164062 660 664.743164062 675 642.743164062 675 c 0
EndSplineSet
EndChar

StartChar: m
Encoding: 109 109 38
Width: 1636
Flags: W
HStem: -14 64<619.159 685.1> -14 36<840.103 854.497 1397.93 1451.59> 356 58<119.913 198.672> 372 42<601.623 665.31> 386 28<863.882 928.713 1077.83 1136.37 1336.78 1400.4>
VStem: 101.109 77.168<29.673 106.594> 335.425 89.8525<33.9476 106.811> 1083.65 61.6309<-3.98663 95.7474> 1528.71 26.9053<142.364 198.036>
LayerCount: 2
Fore
SplineSet
881.612304688 128 m 1x4780
 872.608398438 111.79296875 820.62890625 22 842.612304688 22 c 3
 854.73046875 22 875.1328125 97.5390625 881.612304688 128 c 1x4780
846.262695312 -14 m 0
 816.262695312 -14 805.109375 9.93359375 805.109375 30 c 3
 805.109375 74.033203125 872.612304688 164 892.646484375 199 c 1
 897.083984375 219.40625 925.8984375 326.284179688 915.53125 369 c 0
 912.970703125 379.546875 903.83984375 386 895.05859375 386 c 0
 875.05859375 386 825.478515625 352 797.893554688 310 c 0
 793.5234375 304 776.5234375 318.40234375 782.47265625 327 c 4
 813.612304688 372 863.284179688 412.826171875 915.961914062 414 c 0
 942.961914062 414 971.489257812 388.76171875 967.637695312 360 c 0
 961.612304688 315 952.193359375 276 952.193359375 276 c 2
 949.244140625 266 947.381835938 265.5390625 951.614257812 272 c 0
 989.612304688 330 1045.96191406 414 1120.96191406 414 c 3
 1178.96191406 414 1210.54589844 365.965820312 1201.15722656 317 c 0
 1194.29785156 281.225585938 1187.19335938 246 1187.19335938 246 c 2
 1184.24414062 236 1189.34960938 235 1192.61425781 242 c 0
 1262.21484375 379 1329.96191406 414 1394.96191406 414 c 3
 1431.96191406 414 1472.61230469 374 1455.10351562 308 c 0
 1450.01660156 288.822265625 1345.08398438 28 1417.22070312 28 c 0
 1469.22070312 28 1507.06542969 87.2919921875 1528.70703125 191 c 0
 1533.35351562 213.267578125 1559.95898438 198.47265625 1555.61230469 178 c 0
 1540.95410156 108.962890625 1510.94726562 -14 1394.94726562 -14 c 0x4f80
 1244.38574219 -14 1383.96191406 284.33203125 1399.68554688 331 c 0
 1411.8125 366.9921875 1400.51464844 383 1375.37695312 383 c 3
 1301.6640625 383 1226.25097656 274.255859375 1145.27734375 44 c 0
 1122.06640625 -22.0048828125 1108.92675781 -20.2626953125 1093.26269531 -17 c 0
 1074.06054688 -13 1075.8046875 19.5693359375 1083.64648438 50 c 0x8780
 1107.61230469 143 1129.61230469 234 1145.37109375 334 c 24
 1148.61230469 356 1143.22167969 382 1108.06152344 382 c 3
 1052.58203125 382 978.612304688 267 942.612304688 198 c 1
 903.612304688 34 892.262695312 -14 846.262695312 -14 c 0
122.262695312 -17 m 0
 112.262695312 -17 102.370117188 1 101.109375 13 c 0
 100.478515625 19 106.640625 46 116.646484375 84 c 2
 183.31640625 325 l 2
 187.530273438 342 179.05859375 356 163.05859375 356 c 0
 143.05859375 356 123.478515625 352 95.8935546875 310 c 0
 91.5234375 304 83.5234375 304 80.47265625 314 c 0
 78.2119140625 326 84.3740234375 353 92.2177734375 364 c 0
 112.274414062 392 141.067382812 413 185.961914062 414 c 0x2780
 212.961914062 414 249.223632812 402 237.637695312 360 c 2
 196.193359375 212 l 2
 193.244140625 202 202.349609375 201 205.614257812 208 c 0
 276.844726562 339 345.961914062 414 410.961914062 414 c 0x0f80
 448.961914062 414 486.430664062 381 471.157226562 317 c 2
 446.193359375 212 l 2
 443.244140625 202 452.349609375 201 455.614257812 208 c 0
 525.21484375 345 599.961914062 414 664.961914062 414 c 0
 701.961914062 414 739.74609375 378 720.103515625 308 c 2
 657.436523438 86 l 2
 649.168945312 60 654.220703125 50 666.220703125 50 c 0x9780
 698.220703125 50 759.7578125 121 768.70703125 131 c 0
 769.6015625 132 770.6015625 132 771.6015625 132 c 0
 775.6015625 132 780.022460938 128 780.547851562 123 c 0
 781.704101562 112 778.754882812 102 766.331054688 87 c 0
 727.586914062 37 677.947265625 -14 614.947265625 -14 c 0
 598.947265625 -14 574.529296875 9 580.112304688 32 c 2
 664.685546875 331 l 2
 671.953125 357 655.481445312 371 640.376953125 372 c 0x5780
 618.271484375 373 583.583984375 351 545.259765625 297 c 0
 518.25390625 259 457.604492188 151 425.27734375 78 c 0
 397.00390625 14 372.262695312 -17 356.262695312 -17 c 0
 346.262695312 -17 336.685546875 -2 335.424804688 10 c 0
 334.793945312 16 340.640625 46 350.646484375 84 c 2
 417.37109375 334 l 2
 426.112304688 365 402.166992188 374 393.061523438 375 c 0
 370.8515625 377 336.374023438 353 298.049804688 299 c 0
 271.04296875 261 210.604492188 151 178.27734375 78 c 0
 150.00390625 14 138.262695312 -17 122.262695312 -17 c 0
EndSplineSet
EndChar

StartChar: n
Encoding: 110 110 39
Width: 1126
Flags: W
HStem: -14 64<350.225 421.642> -14 34<599.079 610.036 905.499 968.812> 372 42<341.646 402.749> 384 29<615.265 666.254 823.328 888.621>
VStem: 80.2949 15.4199<306.053 320.544> 81.3545 57.3662<-13.795 51.0759> 1025.9 20.4863<127.328 191.813>
LayerCount: 2
Fore
SplineSet
636.381835938 123 m 1x02
 625.90234375 107.280273438 584.717773438 24 601.381835938 24 c 3
 613.333984375 24 629.90234375 92.5390625 636.381835938 123 c 1x02
860.831054688 384 m 7x52
 803.381835938 384 745.381835938 275 699.381835938 204 c 1
 668.381835938 51 656.032226562 -15 600.032226562 -15 c 0
 580.032226562 -15 562.87890625 -0.06640625 562.87890625 23 c 3
 562.87890625 67.033203125 628.381835938 172 649.416015625 204 c 1
 655.853515625 244.40625 677.66796875 325.284179688 667.30078125 368 c 0
 664.740234375 378.546875 659.609375 386 650.828125 386 c 0
 630.828125 386 581.248046875 351 553.663085938 309 c 0
 549.29296875 303 532.559570312 320.223632812 538.2421875 329 c 0
 567.381835938 374 621.053710938 411.826171875 663.731445312 413 c 0
 690.721679688 413.7421875 715.258789062 396.76171875 712.407226562 349 c 0
 709.701171875 303.6796875 706.962890625 288 706.962890625 288 c 2
 704.013671875 278 706.885742188 277.721679688 711.383789062 284 c 0
 759.381835938 351 798.731445312 413 873.731445312 413 c 7
 924.784179688 413 962.21484375 372.4921875 942.345703125 304 c 0
 914.838867188 209.1796875 865.219726562 20 929.041992188 20 c 0
 991.041992188 20 1017.38183594 102 1025.89550781 188 c 0
 1026.93359375 198.48046875 1046.87109375 191.1640625 1046.38183594 185 c 0
 1041.38183594 122 1029.76855469 -14 906.768554688 -14 c 0
 783.208007812 -14 870.403320312 248.857421875 882.08203125 297 c 0
 898.518554688 364.755859375 896.381835938 384 860.831054688 384 c 7x52
110.979492188 -16 m 0
 94.9794921875 -16 76.1416015625 11 81.3544921875 28 c 2x66
 167.504882812 312 l 2
 176.45703125 341 177.880859375 356 164.880859375 356 c 0
 144.880859375 356 123.30078125 352 95.71484375 310 c 0
 91.345703125 304 83.345703125 304 80.294921875 314 c 0
 78.033203125 326 89.30078125 352 96.0400390625 364 c 0
 112.88671875 394 145.889648438 413 190.784179688 414 c 0
 211.784179688 414 234.78125 395 228.303710938 371 c 2
 180.171875 201 l 2
 177.22265625 191 186.328125 190 189.591796875 197 c 0
 256.877929688 337 339.784179688 414 400.784179688 414 c 0
 442.784179688 414 479.724609375 367 459.345703125 304 c 2
 390.258789062 86 l 2
 381.991210938 60 387.041992188 50 399.041992188 50 c 0xaa
 431.041992188 50 496.946289062 108 505.895507812 118 c 0
 506.790039062 119 507.790039062 119 508.790039062 119 c 0
 512.790039062 119 517.2109375 115 517.736328125 110 c 0
 518.26171875 105 516.892578125 99 515.208007812 96 c 0
 469.829101562 33 409.768554688 -14 346.768554688 -14 c 0
 328.768554688 -14 303.45703125 8 311.14453125 30 c 0
 340.790039062 119 371.435546875 208 397.08203125 297 c 0
 412.30078125 352 400.303710938 371 381.19921875 372 c 0
 359.09375 373 326.721679688 348 288.396484375 294 c 0
 261.390625 256 191.84375 128 138.720703125 15 c 0x66
 129.033203125 -7 121.979492188 -16 110.979492188 -16 c 0
EndSplineSet
EndChar

StartChar: o
Encoding: 111 111 40
Width: 1055
Flags: W
HStem: -14 30<163.803 232.908 544.135 654.142> 384 30<250.911 323.625>
LayerCount: 2
Fore
SplineSet
605.366210938 364 m 0
 533.705078125 298 437.517578125 12 597.043945312 12 c 4
 714.485351562 12 797.705078125 187 763.024414062 310.897460938 c 1
 718.975585938 322.002929688 676.25390625 342.618164062 661.705078125 365 c 0
 646.129882812 388.961914062 645.21484375 418 696.705078125 418 c 0
 757.661132812 418 795.641601562 367.01171875 807.705078125 338 c 1
 861.831054688 315.793945312 919.9609375 315.860351562 966.705078125 344 c 0
 974.462890625 348.669921875 979.79296875 320.958984375 971.705078125 316 c 0
 925.600585938 287.729492188 870.296875 291.31640625 816.663085938 299.8359375 c 1
 839.705078125 165 733.407226562 -14 584.197265625 -14 c 4
 491.794921875 -14 445.700195312 65.1611328125 445.700195312 138 c 3
 445.700195312 254.545898438 518.595703125 362.728515625 595.212890625 383 c 0
 606.2421875 385.91796875 613.822265625 371.788085938 605.366210938 364 c 0
184.197265625 -14 m 0
 135.197265625 -14 87.4169921875 41 81.3203125 99 c 0
 68.1826171875 224 154.212890625 414 288.212890625 414 c 0
 355.212890625 414 398.677734375 362 405.615234375 296 c 0
 418.227539062 176 338.197265625 -14 184.197265625 -14 c 0
197.043945312 16 m 0
 277.043945312 16 350.548828125 211 338.671875 324 c 0
 334.993164062 359 323.366210938 384 289.366210938 384 c 0
 212.366210938 384 133.654296875 210 147.52734375 78 c 0
 152.15234375 34 170.043945312 16 197.043945312 16 c 0
EndSplineSet
EndChar

StartChar: p
Encoding: 112 112 41
Width: 1258
Flags: W
HStem: -286 29<81.4615 144.069> -279 26<236.196 305.563> -14 34<320.778 395.725> 22 30<823.75 893.174> 378 37<382.562 468.193> 389 33<911.936 996.829> 397 28<582.048 694.508>
VStem: 586.055 72.8438<-263.79 -172.496> 750.785 106.633<447.985 492.715> 1020.4 72.0537<229.374 364.541>
LayerCount: 2
Fore
SplineSet
814.768554688 416 m 1x73c0
 752.841796875 184 l 2
 750.493164062 173.930664062 756.483398438 175.374023438 758.370117188 180 c 0
 831.370117188 359 884.313476562 422 954.313476562 422 c 0
 1034.31347656 422 1092.45117188 370.080078125 1092.45117188 290 c 3
 1092.45117188 162.30078125 970.35546875 18.4365234375 838.403320312 22 c 4
 801.370117188 23 780.3125 45.65234375 783.370117188 74 c 0
 793.155273438 164.71484375 1067.37011719 215 1158.37011719 263 c 0
 1174.1875 271.342773438 1193.31640625 243.262695312 1162.37011719 228.71875 c 0
 1086.37011719 193 837.370117188 130 824.370117188 83 c 0
 820.791992188 70.0634765625 820.370117188 51 847.829101562 52 c 0
 909.788085938 54.2568359375 1020.39746094 134.416015625 1020.39746094 281 c 3
 1020.39746094 356.0234375 1001.31835938 389 953.202148438 389 c 0x35c0
 829.05859375 389 731.983398438 -13.4404296875 658.8984375 -229 c 0
 648.7734375 -258.865234375 625.65234375 -279.791992188 605.255859375 -279 c 0
 590.635742188 -278.431640625 581.370117188 -267 586.0546875 -240 c 24
 622.370117188 -14 735.403320312 379 735.403320312 379 c 2
 742.459960938 407 740.830078125 413 721.145507812 410 c 0
 689.670898438 405 670.196289062 400 603.5625 397 c 0
 591.967773438 396.477539062 582.66796875 396 581.827148438 404 c 0
 580.670898438 415 586.05078125 424.856445312 594.619140625 425 c 0
 654.463867188 426 699.255859375 440 750.78515625 453 c 1
 756.370117188 473 769.296875 506 799.749023438 506 c 0
 822.94921875 506 857.935546875 483.485351562 857.41796875 461 c 0
 856.959960938 441.100585938 835.708984375 420.225585938 814.768554688 416 c 1x73c0
96.9912109375 -286 m 0xb1c0
 89.9912109375 -286 80.78125 -284 80.0458984375 -277 c 0
 78.994140625 -267 96.1533203125 -259 107.943359375 -257 c 0xb1c0
 135.41796875 -252 149.787109375 -246 156.0546875 -220 c 2
 292.403320312 319 l 2
 299.459960938 347 297.830078125 353 278.145507812 350 c 0
 246.670898438 345 227.196289062 340 200.5625 327 c 0
 190.087890625 322 179.66796875 326 178.827148438 334 c 0
 177.670898438 345 184.040039062 351 191.619140625 355 c 0
 211.463867188 366 251.255859375 387 302.78515625 401 c 0
 311.57421875 403 317.154296875 407 319.103515625 417 c 0
 331.481445312 480 339.749023438 506 369.749023438 506 c 0
 380.749023438 506 391.484375 499 389.74609375 487 c 2
 378.841796875 429 l 2
 376.208007812 416 380.838867188 410 385.733398438 411 c 0
 402.41796875 414 415.313476562 415 429.313476562 415 c 0
 529.313476562 415 565.09375 360 572.451171875 290 c 0
 585.799804688 163 474.403320312 -14 342.403320312 -14 c 0
 330.403320312 -14 313.3515625 -4 299.510742188 4 c 0
 286.669921875 12 280.775390625 11 274.403320312 -14 c 2
 228.8984375 -209 l 2
 221.840820312 -237 240.208007812 -250 274.5234375 -253 c 0
 287.627929688 -254 305.048828125 -258 306.099609375 -268 c 0
 306.940429688 -276 293.255859375 -279 278.255859375 -279 c 0
 247.255859375 -279 213.045898438 -277 195.255859375 -279 c 0x79c0
 162.67578125 -283 132.991210938 -286 96.9912109375 -286 c 0xb1c0
357.829101562 20 m 0
 419.829101562 20 510.538085938 175 499.397460938 281 c 0
 491.514648438 356 461.307617188 377 413.202148438 378 c 0x39c0
 401.202148438 378 389.202148438 378 375.412109375 376 c 1
 311.791015625 106 l 2
 306.313476562 82 308.520507812 61 315.096679688 46 c 0
 322.883789062 29 336.829101562 20 357.829101562 20 c 0
EndSplineSet
EndChar

StartChar: q
Encoding: 113 113 42
Width: 1225
Flags: W
HStem: -286 29<205.422 267.948> -278 49<811.107 901.441> -272 26<370.916 426.77> -50 32<917.018 988.385> -14 36<154.49 226.828> 36 36<594.453 692.739> 73 32<908.947 973.714> 367 33<671.839 809.319> 387 33<317.603 384.387>
VStem: 829.287 125.137<294.75 353.665> 863.424 36<-3.13431 64.9008>
LayerCount: 2
Fore
SplineSet
825.423828125 -278 m 3x5f20
 745.416992188 -278 729.802734375 -213.131835938 736.05078125 -175 c 0
 754.26953125 -63.81640625 774.55859375 33 803.3125 140 c 0
 807.735351562 155 805.369140625 168 791.26171875 150 c 0
 725.985351562 67 699.344726562 36 627.344726562 36 c 0
 504.344726562 36 477.61328125 168.495117188 505.93359375 249 c 0
 553.423828125 384 692.302734375 426.052734375 798.729492188 400 c 0
 820.353515625 394.706054688 816.435546875 362.057617188 793.198242188 367 c 0
 701.974609375 386.40234375 616.423828125 344 583.461914062 240 c 0
 562.315429688 173.280273438 549.561523438 72 648.561523438 72 c 0
 720.03515625 72 791.576171875 213.770507812 829.287109375 284 c 1
 850.184570312 350.3671875 863.412109375 412 896.423828125 412 c 3
 928.486328125 412 954.423828125 383 954.423828125 356 c 3x5f40
 954.423828125 310 920.423828125 279 884.795898438 235 c 1
 850.0390625 71.404296875 827.006835938 11.0244140625 804.7890625 -159 c 0
 801.161132812 -186.765625 808.407226562 -229 845.423828125 -229 c 3
 924.642578125 -229 991.423828125 -116.96484375 991.423828125 -9 c 3
 991.423828125 38.0810546875 973.948242188 73 943.423828125 73 c 3
 919.381835938 73 899.423828125 57.03515625 899.423828125 30 c 3
 899.423828125 5.8349609375 925.127929688 -18 964.423828125 -18 c 3
 1016.43945312 -18 1068.00585938 16.974609375 1120.42382812 59 c 0
 1139.47167969 74.271484375 1153.40820312 51.7568359375 1140.42382812 39 c 0
 1083.42382812 -17 1010.99609375 -50 964.423828125 -50 c 3
 902.360351562 -50 863.423828125 -13 863.423828125 28 c 3
 863.423828125 77.3974609375 897.924804688 105 947.423828125 105 c 3
 982.498046875 105 1031.42382812 75.2724609375 1031.42382812 -5 c 3
 1031.42382812 -112.071289062 951.607421875 -278 825.423828125 -278 c 3x5f20
224.93359375 -286 m 0x9e
 218.0390625 -287 204.828125 -285 203.987304688 -277 c 0
 202.936523438 -267 220.095703125 -259 231.885742188 -257 c 0x9e
 259.46484375 -253 283.678710938 -236 290.05078125 -211 c 0
 318.8046875 -104 348.55859375 3 377.3125 110 c 0
 381.735351562 125 374.369140625 138 360.26171875 120 c 0
 294.985351562 37 229.344726562 -14 157.344726562 -14 c 0
 114.344726562 -14 84.6123046875 12 80.93359375 47 c 0
 72.10546875 131 127.018554688 246 198.083984375 331 c 0
 244.303710938 386 309.729492188 420 358.729492188 420 c 0
 389.729492188 420 407.096679688 407 418.462890625 394 c 0
 429.619140625 383 434.775390625 372 441.775390625 372 c 0
 449.775390625 372 455.14453125 378 459.09375 388 c 2
 466.096679688 407 l 2
 471.415039062 423 480.888671875 428 490.888671875 428 c 0
 498.888671875 428 504.255859375 415 497.8828125 390 c 2
 364.7890625 -199 l 2
 358.732421875 -227 369.4140625 -243 395.729492188 -246 c 0
 408.834960938 -247 426.254882812 -251 427.305664062 -261 c 0
 428.146484375 -269 414.461914062 -272 399.461914062 -272 c 0x3e80
 333.461914062 -272 252.408203125 -281 224.93359375 -286 c 0x9e
178.561523438 22 m 0
 231.561523438 22 323.787109375 115 358.114257812 188 c 0
 381.859375 238 401.762695312 296 397.454101562 337 c 0
 394.720703125 363 379.198242188 387 353.198242188 387 c 0x1e80
 291.198242188 387 136.375 176 149.461914062 61 c 0
 152.299804688 34 159.561523438 22 178.561523438 22 c 0
EndSplineSet
EndChar

StartChar: r
Encoding: 114 114 43
Width: 1038
Flags: W
HStem: 252 32<494.337 580.052> 274 31<875.699 951.817> 359 55<110.829 195.787 320.8 384.192>
VStem: 80.2617 79.8525<25.3027 106.5> 799.871 70<354.89 407.764>
LayerCount: 2
Fore
SplineSet
852.26953125 340.758789062 m 1x78
 865.104492188 348.418945312 869.87109375 360.56640625 869.87109375 378 c 3
 869.87109375 398.409179688 853.9375 410 835.87109375 410 c 3
 812.771484375 410 799.87109375 395.235351562 799.87109375 381 c 3
 799.87109375 370.971679688 800.9609375 363.987304688 804.959960938 354.444335938 c 5
 750.821289062 322.84375 721.3125 284.3125 686.02734375 221 c 4
 682.267578125 214.252929688 681.23046875 215.108398438 683.396484375 226 c 4
 696.115234375 289.952148438 705.151367188 333.853515625 705.071289062 365 c 0
 704.907226562 428.98828125 655.194335938 423.826171875 638.87109375 404.5390625 c 0
 613.87109375 375 618.47265625 271.069335938 508.87109375 284 c 0
 488.051757812 286.456054688 485.180664062 254.352539062 504.87109375 252 c 0xb8
 624.475585938 237.709960938 642.599609375 339.709960938 651.87109375 357.986328125 c 0
 660.34375 374.689453125 661.458984375 365.508789062 657.173828125 336 c 0
 641.788085938 230.051757812 604.80859375 83.8349609375 595.26171875 27 c 0
 591.575195312 5.052734375 606.784179688 -17 616.784179688 -17 c 0
 633.607421875 -17 640.297851562 4.35546875 648.499023438 41 c 0
 658.134765625 84.0537109375 722.6171875 280.01953125 819.443359375 325.633789062 c 1
 855.3046875 283.811523438 904.0234375 274 939.87109375 274 c 0
 951.87109375 274 971.87109375 304 945.87109375 305 c 0
 910.342773438 306.366210938 884.255859375 304.311523438 852.26953125 340.758789062 c 1x78
107.784179688 -17 m 0
 97.7841796875 -17 81.5224609375 -5 80.26171875 7 c 0
 78.580078125 23 85.162109375 46 95.16796875 84 c 2
 161.943359375 324 l 2
 166.15625 341 165.264648438 359 152.264648438 359 c 0
 133.264648438 359 113.895507812 353 105.420898438 348 c 0
 97.9462890625 343 88.630859375 346 87.580078125 356 c 0
 86.529296875 366 95.9521484375 381 111.69140625 393 c 0
 126.4296875 405 148.484375 414 172.484375 414 c 0
 227.484375 414 221.213867188 369 203.51953125 309 c 2
 170.396484375 196 l 2
 166.447265625 186 179.762695312 183 183.02734375 190 c 0
 248.627929688 327 325.958007812 419 372.958007812 419 c 0
 406.958007812 419 422.375976562 396 425.213867188 369 c 0
 429.102539062 332 411.7265625 288 383.7265625 288 c 0
 372.7265625 288 366.255859375 302 364.048828125 323 c 0
 361.946289062 343 355.684570312 355 341.684570312 355 c 0
 328.684570312 355 308.26171875 340 279.78125 297 c 0
 253.879882812 258 193.44140625 148 160.114257812 75 c 0
 130.840820312 11 123.784179688 -17 107.784179688 -17 c 0
EndSplineSet
EndChar

StartChar: s
Encoding: 115 115 44
Width: 830
Flags: W
HStem: -14 48<123.507 228.003> -14 41<404.145 499.724> 368 46<241.099 306.852 489.574 566.072>
LayerCount: 2
Fore
SplineSet
558.8984375 182 m 5x60
 614.955078125 203.377929688 687.747070312 251.502929688 723.177734375 289 c 0
 735.706054688 303 748.001953125 299.484375 749.862304688 292 c 0
 751.51171875 285.365234375 744.830078125 276.516601562 740.116210938 270.557617188 c 0
 697.283203125 216.408203125 569.577148438 152 569.577148438 152 c 1
 573.627929688 142 575.6796875 132 576.625 123 c 0
 584.928710938 44 495.024414062 -14 422.024414062 -14 c 0
 377.024414062 -14 349.501953125 10 346.454101562 39 c 0
 340.98828125 91 411.205078125 122 498.420898438 158 c 5
 493.370117188 168 485.319335938 183 479.267578125 193 c 0
 457.904296875 225 445.21875 255.416015625 440.649414062 275 c 0
 422.451171875 353 485.040039062 414 559.040039062 414 c 0
 595.040039062 414 615.877929688 387 619.349609375 373 c 0
 621.560546875 364.0859375 621.698242188 341.6015625 599.532226562 321.8828125 c 0
 578.014648438 302.741210938 533.08984375 276 523.23828125 276 c 0
 514.559570312 276 509.56640625 287.5625 518.744140625 296 c 0
 533.553710938 309.614257812 570.034179688 334.208007812 566.556640625 352 c 0
 562.966796875 370.370117188 541.454101562 372 533.454101562 372 c 0
 501.454101562 372 482.556640625 350 487.604492188 323 c 0
 490.74609375 306.197265625 518.856445312 254 535.694335938 227 c 0
 542.850585938 216 552.322265625 197 558.8984375 182 c 5x60
518.568359375 95 m 0
 517.412109375 106 515.255859375 117 510.994140625 129 c 1
 444.622070312 104 399.934570312 82.1044921875 399.931640625 63 c 0
 399.928710938 44 415.71484375 27 450.71484375 27 c 0
 496.71484375 27 521.721679688 65 518.568359375 95 c 0
139.024414062 -14 m 0xa0
 109.024414062 -14 83.1328125 4 80.400390625 30 c 0
 77.1416015625 61 94.5654296875 76 103.565429688 76 c 0
 112.565429688 76 123.510742188 67 136.5625 57 c 0
 151.71875 46 168.979492188 34 198.979492188 34 c 0
 234.979492188 34 254.721679688 65 252.568359375 95 c 0
 249.520507812 124 234.736328125 160 213.267578125 193 c 0
 191.904296875 225 176.751953125 255 174.649414062 275 c 0
 166.451171875 353 259.040039062 414 293.040039062 414 c 0
 319.040039062 414 351.877929688 387 353.349609375 373 c 0
 354.610351562 361 335.23828125 336 323.23828125 336 c 0
 316.23828125 336 309.397460938 344 300.556640625 352 c 0
 291.715820312 360 279.875 368 261.875 368 c 0
 239.875 368 223.9765625 348 227.024414062 319 c 0
 228.811523438 302 252.856445312 254 269.694335938 227 c 0
 286.532226562 200 307.471679688 153 310.625 123 c 0
 318.928710938 44 219.024414062 -14 139.024414062 -14 c 0xa0
EndSplineSet
EndChar

StartChar: t
Encoding: 116 116 45
Width: 762
Flags: HW
HStem: -14 73<116.932 179.035> -14 34<483.096 567.673> 321 37<371.596 586.058> 360 38<87.066 155.684 234.672 349.012>
VStem: 648.895 33<115.074 174.131>
LayerCount: 2
Fore
SplineSet
385.89453125 358 m 0x38
 485.440429688 341.338867188 554.380859375 355.076171875 649.89453125 400 c 0
 685.31640625 416.66015625 687.08203125 374.995117188 658.89453125 362 c 0
 554.875 314.041992188 483.563476562 309 383.89453125 321 c 0
 360.198242188 323.853515625 363.620117188 361.728515625 385.89453125 358 c 0x38
497.431640625 -14 m 0x78
 336.67578125 -14 430.409179688 216.462890625 446.434570312 279 c 5
 430.02734375 253.536132812 380.12109375 182.151367188 355.89453125 159 c 0
 332.231445312 136.387695312 310.299804688 156.07421875 333.89453125 178 c 0
 361.884765625 204.010742188 431.89453125 307 458.03515625 344 c 1
 470.298828125 408.592773438 488.631835938 510 532.357421875 510 c 0
 547.374023438 510 555.591445692 504.959689596 559.506835938 497 c 0
 576.591796875 462.267578125 551.352539062 412.727539062 531.63671875 376 c 1
 518.856445312 312.452148438 397.76953125 19 519.758789062 19 c 0
 568.235351562 19 631.4296875 77.9951171875 648.89453125 162 c 0
 653.84375 185.803710938 684.997070312 184.783203125 681.89453125 166 c 0
 669.997070312 93.962890625 611.412109375 -14 497.431640625 -14 c 0x78
125.431640625 -14 m 0xb8
 108.431640625 -14 82.0146484375 9 80.54296875 23 c 0
 78.23046875 45 83.7587890625 59 88.6572265625 79 c 2
 155.594726562 346 l 2
 157.6484375 355 150.333007812 358 144.333007812 358 c 2
 104.123046875 360 l 2
 87.017578125 361 85.1767578125 369 84.6513671875 374 c 0
 84.3359375 377 98.12890625 398 116.12890625 398 c 2
 152.12890625 398 l 2
 166.12890625 398 168.813476562 401 174.237304688 416 c 2
 193.086914062 465 l 2
 199.405273438 481 232.357421875 510 242.357421875 510 c 0
 253.357421875 510 257.354492188 491 253.720703125 478 c 2
 234.762695312 411 l 2
 232.708007812 402 237.918945312 400 248.918945312 400 c 0
 275.918945312 400 306.444335938 395 324.759765625 392 c 0
 346.1796875 388 348.600585938 384 349.3359375 377 c 0
 349.651367188 374 346.4921875 366 331.59765625 365 c 0
 302.807617188 363 277.017578125 361 248.123046875 360 c 0
 227.227539062 359 220.858398438 353 218.69921875 345 c 2
 155.5546875 99 l 2
 149.182617188 74 154.758789062 59 177.758789062 59 c 0
 204.758789062 59 238.975585938 95 257.873046875 115 c 0
 270.40234375 129 283.716796875 126 284.557617188 118 c 0
 285.50390625 109 279.765625 97 270.026367188 85 c 0
 224.017578125 28 151.431640625 -14 125.431640625 -14 c 0xb8
EndSplineSet
EndChar

StartChar: u
Encoding: 117 117 46
Width: 1143
Flags: HW
HStem: -15 33<633.406 713.018 896.566 958.883> -14 69<132.853 173.248> -14 61<344.549 411.379> 255 35<495.114 552.546> 378 37<930.443 947.655>
VStem: 627.908 66.5801<251.449 324.537 345.117 410.508> 1034.01 29.4209<131.768 200.587>
LayerCount: 2
Fore
SplineSet
672.90625 419 m 0x9e
 694.841796875 419 697.958007812 395.387695312 694.48828125 369 c 0
 685.348632812 299.490234375 655.302734375 163.913085938 638.592773438 101 c 0
 620.6953125 33.615234375 632.29296875 20 667.84375 20 c 4
 715.29296875 20 785.29296875 103 830.29296875 175 c 1
 866.29296875 388 907.642578125 415 934.642578125 415 c 0
 969.642578125 415 979.795898438 388.06640625 979.795898438 359 c 0
 979.795898438 314.966796875 916.29296875 222 895.258789062 190 c 0
 893.41015625 183.060546875 855.572265625 23 920.846679688 23 c 0
 970.846679688 23 1011.90136719 87.560546875 1031.01171875 189 c 0
 1035.39941406 212.288085938 1067.31640625 205.283203125 1063.43261719 182 c 0
 1044.63867188 69.3427734375 987.633789062 -15 904.943359375 -15 c 0
 823.288085938 -15 818.00390625 53.2734375 821.711914062 96 c 0
 822.61328125 106.38671875 821.462890625 106.5 817.291015625 100 c 0
 774.29296875 33 714.943359375 -15 654.943359375 -15 c 4
 603.890625 -15 553.459960938 25.5078125 573.329101562 94 c 0
 595.791015625 171.4296875 616.96484375 256.42578125 627.908203125 321.537109375 c 1
 606.2734375 295.102539062 552.212890625 262.366210938 512.700195312 252 c 0
 487.889648438 245.491210938 478.807617188 283.318359375 508.700195312 290 c 0
 551.240234375 299.508789062 604.532226562 334.486328125 626.03515625 369.283203125 c 0
 641.360351562 394.08203125 642.500976562 419 672.90625 419 c 0x9e
905.29296875 265 m 1
 916.827148438 282.301757812 968.275390625 378 940.29296875 378 c 0
 931.340820312 378 911.772460938 295.4609375 905.29296875 265 c 1
131.40234375 -14 m 0x3e
 108.40234375 -14 77.619140625 22 82.83203125 39 c 2
 161.241210938 292 l 2
 167.928710938 314 169.931640625 333 159.931640625 333 c 0
 148.931640625 333 119.76953125 306 93.501953125 280 c 0
 90.8173828125 277 80.607421875 279 80.1865234375 283 c 0
 79.6611328125 288 79.6103515625 298 89.033203125 313 c 0
 131.991210938 380 203.998046875 418 232.998046875 418 c 0
 242.998046875 418 263.995117188 399 258.465820312 385 c 0
 224.030273438 294 195.015625 199 164.474609375 109 c 0
 155.3125 82 153.150390625 55 167.150390625 55 c 0x5e
 187.150390625 55 234.159179688 112 283.643554688 174 c 0
 349.708984375 259 415.358398438 367 429.099609375 398 c 0
 434.733398438 411 444.41796875 414 452.41796875 414 c 0
 464.41796875 414 481.8359375 391 477.991210938 380 c 2
 380.892578125 86 l 2
 372.625 60 375.991210938 47 387.991210938 47 c 0
 413.991210938 47 466.736328125 97 493.583007812 127 c 0
 494.477539062 128 495.477539062 128 496.477539062 128 c 0
 500.477539062 128 505.8984375 124 506.423828125 119 c 0
 506.94921875 114 502.10546875 103 488.102539062 84 c 0
 455.041992188 37 403.40234375 -14 340.40234375 -14 c 0
 323.40234375 -14 301.354492188 15 307.462890625 33 c 0
 329.15625 93 358.538085938 175 365.594726562 203 c 0
 369.913085938 219 358.913085938 219 352.75390625 211 c 0
 229.73046875 59 165.40234375 -14 131.40234375 -14 c 0x3e
EndSplineSet
EndChar

StartChar: v
Encoding: 118 118 47
Width: 976
Flags: HW
HStem: -14 57<176.895 257.117> -14 32<625.564 703.275> 397.256 20.7441G<192.541 215.041 373.041 394.041 607.202 633.93>
VStem: 567.743 88.5312<341.691 400.922> 840.818 55.4746<215.056 375.343>
LayerCount: 2
Fore
SplineSet
633.4453125 -14 m 0x78
 492.000976562 -14 551.734375 194.880859375 562.743164062 301 c 1
 537.743164062 277 502.350585938 249.977539062 471.743164062 244 c 0
 446.247070312 239.020507812 443.78515625 272.703125 465.743164062 276 c 0
 505.701171875 282 538.743164062 319 567.743164062 344 c 1
 573.743164062 389 593.486328125 417.255859375 620.91796875 417.255859375 c 0
 646.94140625 417.255859375 656.274414062 400.915039062 656.274414062 381.336914062 c 0
 656.274414062 367.625 646.743164062 349 622.743164062 332 c 5
 610.407226562 226.67578125 557.80859375 18 662.455078125 18 c 4
 745.657226562 18 840.818359375 196.403320312 840.818359375 345 c 3
 840.818359375 377.088867188 809.124023438 410.411132812 746.743164062 307 c 0
 730.823242188 280.609375 707.5390625 297.229492188 722.743164062 325 c 0
 779.529296875 428.72265625 896.29296875 454.219726562 896.29296875 342 c 3
 896.29296875 167.912109375 774.529296875 -14 633.4453125 -14 c 0x78
183.4453125 -14 m 0xb8
 136.4453125 -14 96.9833984375 57 112.887695312 115 c 2
 159.704101562 288 l 2
 166.866210938 315 168.974609375 333 152.974609375 333 c 0
 143.974609375 333 118.497070312 309 99.9140625 286 c 0
 93.7548828125 278 89.7548828125 278 87.7548828125 278 c 0
 82.7548828125 278 80.439453125 281 80.2294921875 283 c 0
 79.388671875 291 80.5478515625 299 89.076171875 313 c 0
 131.034179688 380 178.041015625 418 207.041015625 418 c 0
 223.041015625 418 241.142578125 398 237.139648438 379 c 2
 174.466796875 119 l 2
 164.301757812 73 178.455078125 43 212.455078125 43 c 0
 309.455078125 43 390.631835938 165 378.544921875 280 c 0
 376.232421875 302 364.60546875 327 347.818359375 344 c 0
 337.767578125 354 333.611328125 365 332.349609375 377 c 0
 330.458007812 395 359.041015625 418 387.041015625 418 c 0
 401.041015625 418 418.458007812 395 423.29296875 349 c 0
 432.541992188 261 415.475585938 176 354.883789062 96 c 0
 299.662109375 22 237.4453125 -14 183.4453125 -14 c 0xb8
EndSplineSet
EndChar

StartChar: w
Encoding: 119 119 48
Width: 1426
Flags: W
HStem: -14 55<184.735 238.859 385.407 477.165> -14 33<832.844 903.128 1066.05 1163.33> 332 86<155.645 230.202>
VStem: 361.829 81.3662<241.22 375.665> 794.703 88.5312<336.688 405.381> 1290.78 55.4746<205.939 376.153>
LayerCount: 2
Fore
SplineSet
1125.41503906 25 m 3x7c
 1073.69042969 25 1076.703125 149 1071.703125 193 c 1
 1114.25976562 278.778320312 1124.61230469 387 1079.703125 387 c 0
 1044.703125 387 1022.88964844 365.3046875 1011.703125 322 c 0
 1003.36523438 289.723632812 1002.703125 243 1009.82324219 183 c 1
 989.306640625 129.506835938 917.26953125 19 865.415039062 19 c 0
 778.768554688 19 834.3671875 220.67578125 849.703125 326 c 1
 873.703125 343 883.234375 367.625 883.234375 381.336914062 c 0
 883.234375 400.915039062 873.901367188 417.255859375 837.877929688 417.255859375 c 0
 812.446289062 417.255859375 801.703125 379 794.703125 344 c 1
 765.703125 319 732.661132812 282 692.703125 276 c 0
 670.745117188 272.703125 673.20703125 238.020507812 698.703125 243 c 0
 729.310546875 248.977539062 764.703125 276 789.703125 300 c 1
 768.694335938 193.880859375 716.9609375 -14 857.405273438 -14 c 0
 928.703125 -14 985.703125 73 1012.703125 125 c 0
 1014.38378906 128.237304688 1016.703125 131 1017.703125 125 c 0
 1025.19042969 80.078125 1033.703125 -13 1098.40527344 -13 c 3
 1239.48925781 -13 1346.25292969 168.912109375 1346.25292969 343 c 3
 1346.25292969 475.219726562 1234.48925781 427.72265625 1177.703125 324 c 4
 1162.49902344 296.229492188 1189.78320312 279.609375 1205.703125 306 c 0
 1268.08496094 409.411132812 1290.77832031 379.088867188 1290.77832031 346 c 3
 1290.77832031 197.403320312 1223.6171875 25 1125.41503906 25 c 3x7c
601.895507812 420 m 0
 615.895507812 420 633.5234375 395 638.357421875 349 c 0
 647.607421875 261 620.06640625 171 552.630859375 80 c 0
 505.252929688 17 456.510742188 -14 409.510742188 -14 c 0
 361.510742188 -14 337.46875 53 340.84765625 116 c 1
 299.099609375 47 224.510742188 -14 189.510742188 -14 c 0
 138.510742188 -14 99.8349609375 40 126.219726562 141 c 2
 169.087890625 304 l 2
 174.1953125 322 170.14453125 332 159.14453125 332 c 0
 152.14453125 332 123.510742188 319 105.033203125 295 c 0
 99.76953125 288 91.9794921875 286 89.9794921875 286 c 0
 85.9794921875 286 80.6640625 289 80.244140625 293 c 0
 79.7177734375 298 79.087890625 304 89.5107421875 319 c 0
 134.099609375 380 193.10546875 418 222.10546875 418 c 0
 233.10546875 418 250.577148438 404 244.994140625 381 c 2
 181.426757812 120 l 2
 170.26171875 74 185.51953125 43 218.51953125 43 c 0
 269.51953125 43 342.538085938 157 345.490234375 186 c 0
 348.65234375 213 358.45703125 310 361.829101562 335 c 0
 363.9375 353 370.255859375 369 380.520507812 376 c 0
 395.46875 386 408.3125 397 435.3125 397 c 0
 449.3125 397 450.462890625 348 443.1953125 322 c 0
 430.135742188 275 421.918945312 239 413.546875 214 c 0
 405.96484375 191 400.538085938 157 400.009765625 143 c 0
 396.420898438 82 407.73046875 41 440.73046875 41 c 0xbc
 514.73046875 41 597.225585938 179 585.76953125 288 c 0
 584.087890625 304 576.721679688 317 568.459960938 329 c 0
 557.883789062 344 545.622070312 356 544.67578125 365 c 0
 542.46875 386 580.895507812 420 601.895507812 420 c 0
EndSplineSet
EndChar

StartChar: x
Encoding: 120 120 49
Width: 1190
Flags: HW
HStem: -14 73<116.932 179.035> -14 34<483.096 567.673> 321 37<371.596 586.058> 360 38<87.066 155.684 234.672 349.012>
VStem: 648.895 33<115.074 174.131>
LayerCount: 2
Fore
SplineSet
125.165039062 -14 m 0x23c0
 105.165039062 -14 82.904296875 -2 80.1708984375 24 c 0
 77.75390625 47 101.549804688 87 118.549804688 87 c 0
 128.549804688 87 133.495117188 78 136.44140625 69 c 0
 142.123046875 53 149.859375 46 157.859375 46 c 0
 166.963867188 45 176.438476562 50 183.59765625 58 c 0
 219.288085938 99 238.240234375 128 275.1953125 176 c 0
 279.669921875 181 278.934570312 188 276.303710938 194 c 2
 223.588867188 334 l 2
 218.012695312 349 214.801757812 351 206.801757812 351 c 0
 196.801757812 351 177.483398438 335 156.267578125 299 c 0
 153.6875 295 149.94921875 283 140.94921875 283 c 0
 135.94921875 283 133.213867188 290 132.162109375 300 c 0
 128.063476562 339 183.180664062 414 227.180664062 414 c 0
 248.180664062 414 261.862304688 398 274.541015625 363 c 2
 310.681640625 257 l 2
 313.733398438 247 318.837890625 246 324.892578125 255 c 2
 384.381835938 355 l 2
 401.438476562 383 432.180664062 414 468.180664062 414 c 0
 494.180664062 414 521.018554688 387 523.700195312 371 c 0
 526.276367188 356 505.48046875 316 488.48046875 316 c 0
 480.48046875 316 473.745117188 323 468.694335938 333 c 0
 459.801757812 351 453.276367188 356 444.276367188 356 c 0
 428.276367188 356 411.748046875 342 391.69140625 314 c 0
 375.002929688 292 355.736328125 266 334.729492188 228 c 0
 330.5703125 220 329.622070312 210 336.408203125 193 c 2
 383.3359375 70 l 2
 390.228515625 52 399.859375 46 406.859375 46 c 0
 425.859375 46 449.600585938 77 464.450195312 126 c 0
 467.399414062 136 470.979492188 140 475.979492188 140 c 0
 480.979492188 140 485.189453125 138 487.291015625 118 c 0
 491.180664062 81 455.165039062 -14 397.165039062 -14 c 0x93c0
 360.165039062 -14 343.748046875 9 327.123046875 53 c 2
 295.55859375 144 l 2
 289.876953125 160 285.876953125 160 278.927734375 150 c 0
 251.131835938 110 223.756835938 66 194.85546875 27 c 0
 170.32421875 -6 149.165039062 -14 125.165039062 -14 c 0x23c0
817.303710938 196 m 0
 816.358398438 274.510742188 813.836914062 383 748.801757812 383 c 0
 721.801757812 383 681.135742188 329.469726562 674.267578125 287 c 4
 672.348632812 275.133789062 663.94921875 271 654.94921875 271 c 0
 649.94921875 271 639.978515625 275.184570312 642.162109375 289 c 0
 649.999023438 338.58203125 698.180664062 414 762.180664062 414 c 0
 847.2421875 414 875.76171875 309.029296875 876.681640625 227 c 0
 877.919921875 116.5859375 899.401367188 16 959.859375 16 c 0
 1004.859375 16 1039.52636719 87.3349609375 1048.45019531 146 c 0
 1050.48730469 159.393554688 1057.97949219 162 1062.97949219 162 c 0
 1067.97949219 162 1081.04199219 157.920898438 1078.29101562 138 c 0
 1073.18066406 101 1043.16503906 -14 949.165039062 -14 c 0x27c0
 845.658203125 -14 818.625 86.28515625 817.303710938 196 c 0
648.634765625 -14 m 0
 609.6953125 -13.095703125 599.43359375 17.8916015625 606.034179688 40.7060546875 c 0
 613.782226562 67.4873046875 630.076171875 81.224609375 656.86328125 72.9306640625 c 0
 696.465820312 60.6689453125 683.0625 35.7607421875 706.182617188 35.7607421875 c 3
 750.263671875 35.7607421875 791.49609375 114.858398438 835.05078125 198 c 0
 887.491210938 298.10546875 936.896484375 414.422851562 1056.22265625 414.422851562 c 3
 1095.171875 414.422851562 1103.80761719 383.328125 1098.82324219 360.107421875 c 0
 1093.07519531 333.326171875 1076.78125 319.588867188 1047.99414062 326.8828125 c 0
 1007.80566406 337.065429688 1021.79394531 362.052734375 998.674804688 362.052734375 c 3x4bc0
 937.700195312 362.052734375 906.106445312 271.91015625 859.408203125 180 c 0
 812.301757812 87.2841796875 759.877929688 -16.583984375 648.634765625 -14 c 0
EndSplineSet
EndChar

StartChar: y
Encoding: 121 121 50
Width: 1214
Flags: W
HStem: -290 60<119.717 187.449> -290 34<642.356 745.364> -5 37<783.581 856.961> 235 36<592.465 658.44> 355 59<212.961 269.003> 403 20G<468.777 475.777>
VStem: 164.861 27.8945<261.55 323.187> 454.774 54.5225<215.975 414.531> 598.303 35.5312<-247.373 -183.612> 738.455 62.5801<139.813 316.537> 981.774 57.5225<257.818 417.778>
LayerCount: 2
Fore
SplineSet
801.03515625 361 m 24x73e0
 800.247070312 272 790.62890625 215.516601562 778.493164062 135 c 0
 771.591796875 89.2119140625 771.258789062 32 814.247070312 32 c 0
 892.47265625 32 961.286132812 182.129882812 981.774414062 384 c 0
 983.592773438 401.912109375 989.77734375 420 1001.77734375 420 c 0
 1029.77734375 420 1042.45410156 403.924804688 1039.296875 380 c 0
 1016.33007812 206 991.666015625 34 877.900390625 -149 c 0
 821.844726562 -239.16796875 746.716796875 -290 682.716796875 -290 c 0
 632.716796875 -290 598.83203125 -262.1484375 598.302734375 -224 c 0
 596.4453125 -90.0693359375 971.619140625 -37.1181640625 1109.24707031 74.5966796875 c 0
 1121.64453125 84.66015625 1132.90625 73.2763671875 1134.046875 67 c 0
 1135.59277344 58.4873046875 1134.57617188 53.728515625 1122.24707031 45.12109375 c 0
 978.110351562 -55.5 633.833984375 -132.564453125 633.833984375 -214 c 7
 633.833984375 -236.681640625 646.41015625 -256 688.41015625 -256 c 0
 752.052734375 -256 798.524414062 -196.477539062 832.353515625 -144 c 0
 872.015625 -82.4736328125 906.064453125 -5.2314453125 926.79296875 78.2001953125 c 1
 890.188476562 28.52734375 844.678710938 -5 792.247070312 -5 c 0
 727.0546875 -5 708.162109375 84.787109375 719.247070312 149 c 0
 728.783203125 204.2421875 739.836914062 283.64453125 738.455078125 316.537109375 c 1
 716.8203125 290.102539062 682.209960938 241.681640625 612.247070312 235 c 0
 581.81640625 232.09375 577.920898438 267.134765625 608.247070312 271 c 0
 681.33203125 280.31640625 706.079101562 335.486328125 727.58203125 370.283203125 c 0
 742.907226562 395.08203125 756.047851562 408 773.453125 408 c 4
 794.388671875 408 801.247070312 382 801.03515625 361 c 24x73e0
129.716796875 -290 m 0xb7e0
 109.716796875 -290 83.2451171875 -276 80.302734375 -248 c 0
 77.46484375 -221 95.046875 -198 114.046875 -198 c 0
 127.046875 -198 136.993164062 -207 146.833984375 -215 c 0
 156.674804688 -223 166.41015625 -230 178.41015625 -230 c 0
 225.41015625 -230 272.368164062 -163 307.014648438 -74 c 0
 330.498046875 -12 330.615234375 63 321.05078125 154 c 0
 305.600585938 301 261.924804688 355 241.924804688 355 c 0
 221.924804688 355 197.233398438 314 192.755859375 290 c 0
 191.4921875 283 184.8046875 261 176.8046875 261 c 0
 171.8046875 261 166.4375 274 164.861328125 289 c 0
 158.450195312 350 209.723632812 414 254.723632812 414 c 0xbbe0
 286.723632812 414 311.140625 391 328.66015625 348 c 0
 352.755859375 290 380.059570312 211 388.038085938 78 c 0
 389.560546875 54 396.140625 58 403.353515625 75 c 0
 438.525390625 159 468.752929688 271 454.774414062 404 c 0
 454.143554688 410 465.77734375 423 471.77734375 423 c 0
 479.77734375 423 506.774414062 404 509.296875 380 c 0
 522.330078125 256 443.666015625 53 314.900390625 -130 c 0
 254.043945312 -217 184.716796875 -290 129.716796875 -290 c 0xb7e0
EndSplineSet
EndChar

StartChar: z
Encoding: 122 122 51
Width: 1096
Flags: W
HStem: -290 41<512.383 627.932> -34 52<292.642 362.277> 52 46<183.015 204.832> 60 45<570.346 686.885> 316 91<820.364 878.681> 366 48<172.553 269.599> 376 33<591.46 682.235>
VStem: 80.6846 30.2607<-19.416 37.129> 380.333 50.3125<32.6991 135.762> 438.135 48<-224.179 -139.476> 515.135 29<272.701 313.284> 733.135 68<-115.155 16.7851>
LayerCount: 2
Fore
SplineSet
820.364257812 316 m 1xc9f0
 615.134765625 119 l 2
 599.134765625 101 607.134765625 98 612.134765625 100 c 0
 622.134765625 104 638.134765625 105 655.134765625 105 c 0
 724.134765625 105 801.134765625 49 801.134765625 -25 c 0
 801.134765625 -151 665.134765625 -290 549.134765625 -290 c 4
 479.134765625 -290 438.134765625 -229 438.134765625 -190 c 0
 438.134765625 -95.36328125 612.205078125 -27.85546875 719.134765625 35.669921875 c 0
 807.228515625 88.0048828125 952.637695312 176.399414062 985.134765625 252.49609375 c 0
 1000.14746094 287.649414062 1024.52148438 263.477539062 1013.13476562 237.603515625 c 0
 976.03125 153.293945312 819.307617188 55.625 738.134765625 9.7587890625 c 0
 626.743164062 -53.1826171875 485.834960938 -117.65234375 486.134765625 -184 c 4
 486.360351562 -234.0390625 552.134765625 -249 579.134765625 -249 c 4
 676.134765625 -249 733.134765625 -139 733.134765625 -45 c 0
 733.134765625 23 674.134765625 60 606.134765625 60 c 0
 596.134765625 60 575.134765625 56 566.134765625 53 c 0
 554.134765625 49 543.134765625 44 534.134765625 44 c 0
 530.134765625 44 517.134765625 47 516.134765625 60 c 0xd9f0
 515.134765625 74 521.134765625 78 539.134765625 98 c 2
 772.786132812 320 l 1
 731.625 323.2734375 672.494140625 377.004882812 628.134765625 376 c 0
 592.3984375 375.190429688 561.573242188 338.915039062 544.134765625 276 c 0
 540.647460938 263.41796875 513.185546875 272.037109375 515.134765625 282 c 0
 528.590820312 350.775390625 571.110351562 409 648.801757812 409 c 0xe3f0
 701.741210938 409 766.923828125 373 803.48046875 373 c 1
 823.48046875 394 852.844726562 411.29296875 872.510742188 407 c 0
 886.8671875 403.866210938 908.912109375 386.557617188 896.134765625 357 c 0
 885.926757812 333.38671875 843.415039062 317.9375 820.364257812 316 c 1xc9f0
444.642578125 406 m 0
 445.693359375 396 434.900390625 375 417.897460938 356 c 2
 183.014648438 98 l 1
 186.014648438 98 l 2
 216.014648438 98 243.221679688 77 270.428710938 56 c 0
 295.42578125 37 318.422851562 18 341.422851562 18 c 0
 386.422851562 18 385.0625 69 380.333007812 114 c 0
 377.810546875 138 380.28515625 143 392.28515625 143 c 0
 406.28515625 143 427.282226562 124 430.645507812 92 c 0
 436.53125 36 348.888671875 -34 312.888671875 -34 c 0
 279.888671875 -34 249.155273438 -8 221.6328125 16 c 0
 199.635742188 35 180.849609375 52 167.849609375 52 c 0
 127.849609375 52 107.6875 25 110.9453125 -6 c 0
 112.311523438 -19 102.416992188 -20 97.4169921875 -20 c 0
 93.4169921875 -20 83.05078125 -7 80.6845703125 6 c 0
 78.212890625 20 82.005859375 41 99.11328125 59 c 2
 339.786132812 319 l 1
 321.681640625 320 300.630859375 330 278.579101562 340 c 0
 251.212890625 353 222.846679688 366 190.846679688 366 c 0
 166.846679688 366 145.369140625 342 147.471679688 322 c 0
 148.522460938 312 151.994140625 298 161.254882812 286 c 0
 167.095703125 278 167.516601562 274 163.146484375 268 c 0
 155.198242188 258 130.458984375 246 124.458984375 246 c 0
 117.458984375 246 102.198242188 258 99.8857421875 280 c 0
 96.1015625 316 111.7890625 338 140.63671875 368 c 0
 161.32421875 390 208.801757812 414 230.801757812 414 c 0xe5f0
 252.801757812 414 275.642578125 406 298.483398438 398 c 0
 323.4296875 389 346.48046875 379 363.48046875 379 c 0
 383.48046875 379 392.849609375 385 406.2734375 400 c 0
 412.537109375 407 424.380859375 418 434.380859375 418 c 0
 438.380859375 418 444.01171875 412 444.642578125 406 c 0
EndSplineSet
EndChar

StartChar: i
Encoding: 105 105 52
Width: 741
Flags: W
HStem: -14 66<108.819 186.866> -14 42<446.356 519.658> 255 27<320.545 351.434> 508 75<477.344 550.216> 513 100<244.724 314.727>
VStem: 235.553 88.1084<521.793 603.776>
LayerCount: 2
Fore
SplineSet
274.65234375 513 m 0x2c
 254.65234375 513 237.655273438 532 235.552734375 552 c 0
 232.189453125 584 253.141601562 613 285.141601562 613 c 0
 306.141601562 613 321.454101562 591 323.661132812 570 c 0
 326.814453125 540 304.65234375 513 274.65234375 513 c 0x2c
128.041992188 -14 m 0xa4
 105.041992188 -14 87.150390625 4 85.46875 20 c 0
 84.943359375 25 84.4169921875 30 86.787109375 36 c 0
 130.225585938 146 154.504882812 248 175.83203125 321 c 0
 177.201171875 327 176.571289062 333 169.571289062 333 c 0
 158.571289062 333 117.672851562 313 95.564453125 295 c 0
 89.08984375 290 80.775390625 293 80.0390625 300 c 0
 78.2529296875 317 138.15625 375 218.162109375 413 c 0
 235.321289062 421 260.370117188 392 257.420898438 382 c 2
 165.795898438 93 l 2
 161.952148438 82 161.002929688 72 161.84375 64 c 0
 162.89453125 54 172.10546875 52 179.10546875 52 c 0
 206.10546875 52 246.165039062 99 280.170898438 137 c 0
 281.06640625 138 281.9609375 139 283.9609375 139 c 0
 286.9609375 139 290.170898438 137 290.486328125 134 c 0
 294.901367188 92 189.041992188 -14 128.041992188 -14 c 0xa4
619.525390625 604 m 0
 602.870117188 566.883789062 538.153320312 508 500.091796875 508 c 0
 490.091796875 508 469.091796875 510 469.091796875 531 c 0
 469.091796875 547 481.657226562 580.51953125 500.091796875 583 c 0x34
 542.268554688 588.674804688 566.158203125 594.602539062 599.091796875 611.965820312 c 0
 608.012695312 616.668945312 631.291015625 630.21875 619.525390625 604 c 0
448.041992188 -14 m 0x64
 416.805664062 -14 363.048828125 19.3623046875 366.787109375 86 c 0
 373.008789062 196.903320312 415.504882812 258 436.83203125 331 c 0
 438.201171875 337 437.571289062 343 430.571289062 343 c 0
 419.571289062 343 373.677734375 253.013671875 331.564453125 255 c 0
 313.404296875 255.856445312 313.8984375 276.537109375 330.0390625 282 c 0
 380.250976562 298.99609375 411.15625 395 468.162109375 413 c 0
 486.215820312 418.700195312 511.091796875 401 507.420898438 382 c 24
 482.091796875 255 442.645507812 203.474609375 435.795898438 119 c 0
 430.938476562 59.0888671875 449.80859375 28 479.10546875 28 c 0
 520.10546875 28 596.208984375 118.985351562 630.170898438 207 c 4
 633.172851562 214.78125 642.9609375 218 648.9609375 218 c 4
 654.9609375 218 664.124023438 211.57421875 661.486328125 204 c 4
 625.958984375 101.979492188 549.041992188 -14 448.041992188 -14 c 0x64
EndSplineSet
EndChar

StartChar: bracketright
Encoding: 93 93 53
Width: 847
Flags: W
HStem: -16.6162 67.0166<81.884 215.147> 0.864258 24.3662<299.529 322.983> 97.9912 39.1084<232.671 353.512> 616.55 53.2002<366.959 549.414>
VStem: 87.9492 87.6504<197.517 402.391> 398.699 78<212.85 325.5> 639.399 102.649<326.536 520.12> 698.699 69<-50.7747 45>
LayerCount: 2
Fore
SplineSet
767.69921875 25 m 0x7d
 767.69921875 -113.284179688 607.137695312 -142.893554688 464.689453125 -114.352539062 c 0
 343.09375 -89.9892578125 306.421875 -55.0869140625 215.147460938 -16.6162109375 c 1
 154.182617188 -20.8330078125 80 -24.7421875 80 15.015625 c 4
 80 36.712890625 84.1337890625 50.400390625 111.760742188 50.400390625 c 0xbd
 140.161132812 50.400390625 171.390625 42.546875 229.326171875 25.23046875 c 1
 349.69921875 28 447.048828125 68.4501953125 520.19921875 134 c 0
 628.499023438 233.75 639.399414062 343 639.399414062 412.349609375 c 0
 639.399414062 539.650390625 574.349609375 616.549804688 450.849609375 616.549804688 c 0
 275.099609375 616.549804688 175.599609375 411.299804688 175.599609375 296.349609375 c 0
 175.599609375 205.150390625 203.399414062 138.19921875 301.499023438 137.099609375 c 0
 360.499023438 137.099609375 398.69921875 178 398.69921875 242 c 0
 398.69921875 280.259765625 358.69921875 291.654296875 358.69921875 330 c 0
 358.69921875 363 377.69921875 392 410.69921875 392 c 0
 453.69921875 392 476.69921875 351 476.69921875 300 c 0
 476.69921875 207 401.69921875 98 259.69921875 98 c 0
 259.087890625 97.994140625 258.478515625 97.9912109375 257.870117188 97.9912109375 c 0
 146.163085938 97.9912109375 87.94921875 198.174804688 87.94921875 294.549804688 c 0
 87.94921875 494.049804688 288.798828125 669.75 485.44921875 669.75 c 0
 626.999023438 669.75 742.048828125 573.349609375 742.048828125 424.150390625 c 0x7e
 742.048828125 220.849609375 460.999023438 2.849609375 299.529296875 0.8642578125 c 1
 354.828125 -16.9296875 395.948242188 -21.376953125 443.69921875 -32 c 0
 544.065429688 -54.328125 698.69921875 -99.208984375 698.69921875 -30 c 0
 698.69921875 -10 682.69921875 11 669.69921875 20 c 0
 658.69921875 28 646.69921875 37 646.69921875 58 c 0
 646.69921875 85 670.69921875 100 697.69921875 100 c 0
 747.69921875 100 767.69921875 65 767.69921875 25 c 0x7d
EndSplineSet
EndChar

StartChar: asciicircum
Encoding: 94 94 54
Width: 929
Flags: W
HStem: -246 33<623.084 724.183> -102 99<96.3987 266.58> 100 28<283.545 373.451> 636 30<398.967 546.638>
VStem: 122 82<219.56 426.769> 435 78<214.486 327.5> 668 87<283.356 512.908> 780 69<-153.062 -79>
LayerCount: 2
Fore
SplineSet
292.3984375 -69.9609375 m 1
 254.244140625 -87.275390625 197.040039062 -102 155 -102 c 3
 113 -102 80 -72.1103515625 80 -54 c 3
 80 -17 129.986328125 -3 166 -3 c 3
 211.221679688 -3 261.826171875 -19.9462890625 303.6171875 -32.6396484375 c 1
 515.124023438 8.439453125 668 187.866210938 668 416 c 0
 668 552 581 636 475 636 c 0
 339 636 204 492 204 343 c 0
 204 209 265 128 323 128 c 0
 382 128 435 180 435 244 c 0
 435 266 421 279 411 293 c 0
 403 304 395 316 395 332 c 0
 395 365 414 394 447 394 c 0
 490 394 513 353 513 302 c 0
 513 209 438 100 296 100 c 0
 215 100 122 191 122 313 c 0
 122 513 306 666 480 666 c 0
 650 666 755 558 755 397 c 0
 755 188.534179688 548.690429688 4.0654296875 339.29296875 -52.9296875 c 1
 386.782226562 -79.4443359375 446.654296875 -106.366210938 506 -136.041015625 c 4
 579.763671875 -172.924804688 637.680664062 -213 682 -213 c 4
 735 -213 780 -170 780 -144 c 0
 780 -124 764 -113 751 -104 c 0
 740 -96 728 -87 728 -66 c 0
 728 -39 752 -24 779 -24 c 0
 829 -24 849 -59 849 -99 c 0
 849 -158 747 -246 645 -246 c 0
 562.944335938 -246 502.05859375 -231.852539062 441 -195 c 4
 381.748046875 -159.23828125 348 -129 292.3984375 -69.9609375 c 1
EndSplineSet
EndChar

StartChar: quotesinglbase
Encoding: 8218 8218 57
Width: 1103
Flags: W
HStem: -14 45<173 244.5> -2 21G<692 718> 240 45<657.5 817 707 803> 274 77<160 186>
VStem: 4 60<114.5 197.5 114.5 205.5>
LayerCount: 2
Fore
SplineSet
203 -14 m 0xa8
 67 -14 4 71 4 155 c 0
 4 256 92 351 228 351 c 0
 285 351 314 320 314 289 c 0
 314 261 296 230 261 230 c 0
 233 230 223 241 213 253 c 0
 204 263 196 274 176 274 c 0
 112 274 64 229 64 166 c 0
 64 63 128 31 218 31 c 0x98
 377 31 645 263 827 535 c 1
 861 575 883 624 895 624 c 0
 929 624 959 630 983 645 c 0
 1005 659 1024 673 1036 673 c 0
 1050 673 1050 641 1044 613 c 2
 945 114 l 2
 936 69 954 46 1003 32 c 0
 1019 28 1030 25 1030 12 c 0
 1030 2 1011 -3 999 -3 c 0
 960 -3 891 2 847 2 c 0
 807 2 738 -2 698 -2 c 0
 686 -2 678 3 679 12 c 0
 679 24 692 31 706 34 c 0x68
 754 44 779 58 789 100 c 2
 819 221 l 2
 822 234 815 240 803 240 c 2
 665 240 l 2
 650 240 641 238 623 220 c 0
 436 32 286 -14 203 -14 c 0xa8
707 285 m 2
 817 285 l 2
 828 285 833 288 835 299 c 2
 883 518 l 2
 885 528 887 536 881 536 c 0
 879 536 872 533 868 528 c 0
 811 441 756 368 703 306 c 0
 691 293 691 285 707 285 c 2
EndSplineSet
EndChar

StartChar: florin
Encoding: 402 402 58
Width: 858
Flags: W
HStem: -4 32<489 499 489 577.5> 331 33<559.5 586 559.5 595> 607 57<331.5 661> 626 38<641.5 661 416.5 679.5>
VStem: 86 70<436.5 496> 660 153<181.5 239.5 123.5 256> 736 133<502 559>
LayerCount: 2
Fore
SplineSet
206 -5 m 0xda
 194 -5 188 -1 188 7 c 0
 188 16 200 26 218 31 c 0
 266 44 286 53 300 96 c 2
 442 549 l 2
 457 597 447 607 378 607 c 0xea
 285 607 156 546 156 463 c 0
 156 410 170 398 215 392 c 0
 237 389 249 372 249 353 c 0
 249 330 232 304 188 304 c 0
 127 304 86 362 86 422 c 0
 86 570 237 664 596 664 c 0
 726 664 869 652 869 526 c 0xda
 869 445 780 381 686 364 c 0
 680 363 677 356 683 354 c 0
 760 327 813 282 813 197 c 0xdc
 813 50 666 -4 489 -4 c 0
 437 -4 396 1 346 1 c 0
 304 1 247 -5 206 -5 c 0xda
571 364 m 0
 601 364 624 372 650 382 c 1
 697 416 736 468 736 536 c 0
 736 582 703 626 656 626 c 0
 627 626 613 618 605 593 c 2
 544 389 l 2
 539 371 548 364 571 364 c 0
499 28 m 0xdc
 581 38 660 137 660 226 c 0
 660 286 626 331 564 331 c 0
 536 331 524 326 518 308 c 2
 454 101 l 2
 450 85 448 64 456 52 c 0
 464 41 479 28 499 28 c 0xdc
EndSplineSet
EndChar

StartChar: quotedblbase
Encoding: 8222 8222 59
Width: 631
Flags: W
HStem: -207 67 628 36<399 503.5>
VStem: 34 157
LayerCount: 2
Fore
SplineSet
282 -207 m 0
 131 -207 20 -73 34 135 c 1
 46 407 200 664 488 664 c 0
 533 664 567 654 595 644 c 0
 620 636 633 631 649 631 c 0
 658 631 665 633 674 637 c 0
 684 643 694 647 703 647 c 0
 716 647 719 637 711 625 c 0
 686 592 650 508 636 458 c 0
 633 445 626 436 613 436 c 0
 598 436 596 457 598 489 c 0
 599 517 591 546 575 570 c 0
 554 604 522 628 485 628 c 0
 313 628 203 323 191 76 c 1
 180 -57 228 -142 318 -140 c 0
 388 -138 462 -81 513 15 c 0
 520 28 527 40 538 40 c 0
 548 40 557 26 552 14 c 0
 497 -128 398 -207 282 -207 c 0
EndSplineSet
EndChar

StartChar: ellipsis
Encoding: 8230 8230 60
Width: 970
Flags: W
HStem: -7 37<518 615 518 663.5> -3 21G<196 223.5> 606 52<400.5 411> 616 38<657.5 716> 616 42
VStem: 85 71<435 494> 821 158<310.5 459.5 279.5 479>
LayerCount: 2
Fore
SplineSet
542 -7 m 0x96
 473 -7 380 3 346 3 c 0
 306 3 246 -3 201 -3 c 0
 191 -3 183 2 186 11 c 0
 189 22 199 30 214 32 c 0
 269 42 286 55 300 97 c 2
 440 545 l 2
 456 595 444 606 378 606 c 0x66
 284 606 156 544 156 461 c 0
 156 409 170 396 215 390 c 0
 236 387 249 371 249 351 c 0
 249 328 231 302 187 302 c 0
 127 302 85 361 85 420 c 0
 85 568 235 658 566 658 c 0x8e
 598 658 629 654 686 654 c 0
 873 654 979 535 979 384 c 0
 979 175 785 -7 542 -7 c 0x96
542 30 m 0
 688 30 821 220 821 401 c 0
 821 557 760 616 672 616 c 0
 626 616 608 604 598 572 c 2
 463 123 l 2
 442 53 494 30 542 30 c 0
EndSplineSet
EndChar

StartChar: dagger
Encoding: 8224 8224 61
Width: 629
Flags: W
HStem: -213 86 271 62<449.5 460.5> 619 47<390.5 471>
VStem: -14 159<-0.5 83> 147 142<436 478 407.5 512>
LayerCount: 2
Fore
SplineSet
261 -213 m 0
 89 -213 -14 -99 -14 22 c 0xf0
 -14 144 72 276 251 311 c 0
 261 313 264 324 256 327 c 0
 179 350 147 411 147 461 c 0
 147 563 270 666 443 666 c 0
 513 666 546 659 592 644 c 0
 603 640 608 632 605 618 c 0
 598 573 589 532 580 502 c 0
 576 491 565 483 557 483 c 0
 549 483 540 489 540 500 c 0
 540 528 538 547 530 570 c 0
 518 599 498 619 444 619 c 0
 337 619 289 520 289 436 c 0
 289 379 308 326 346 326 c 0xe8
 384 326 429 333 470 333 c 0
 483 333 502 323 502 300 c 0
 502 273 468 271 453 271 c 0
 432 271 338 280 331 280 c 0
 219 280 145 171 145 70 c 0
 145 -71 229 -129 310 -127 c 0
 382 -126 457 -89 510 6 c 0
 518 20 526 32 536 32 c 0
 547 32 555 18 550 6 c 0
 498 -132 376 -213 261 -213 c 0
EndSplineSet
EndChar

StartChar: daggerdbl
Encoding: 8225 8225 62
Width: 773
Flags: W
HStem: -200 39<189 199> 311 40<557.5 646 597 646 646 659> 342 63<209 234.5 209 267> 405 20G 541 98<756 867> 645 46<310 396>
VStem: 91 70<458.5 514.5 458.5 525.5> 845 98<703.5 714 683.5 722.5>
LayerCount: 2
Fore
SplineSet
909 752 m 0xd7
 929 752 943 728 943 700 c 0
 943 667 843 541 780 541 c 0
 732 541 678 560 621 581 c 1
 558 381 l 2
 553 364 559 351 597 351 c 2
 646 351 l 2
 687 351 717 371 742 407 c 0
 750 419 762 425 769 425 c 0
 775 425 780 417 775 403 c 0
 751 349 738 310 728 259 c 0
 724 241 717 233 710 233 c 0
 700 233 694 244 694 257 c 0
 694 296 682 311 659 311 c 2
 569 311 l 2
 546 311 533 300 528 283 c 2xdb
 482 133 l 2
 441 -2 401 -69 346 -121 c 0
 298 -168 236 -200 162 -200 c 0
 66 -200 32 -176 32 -143 c 0
 32 -104 47 -75 70 -75 c 0
 86 -75 108 -96 132 -118 c 0
 155 -139 179 -161 199 -161 c 0
 233 -161 254 -108 294 20 c 2
 482 630 l 1
 447 639 413 645 379 645 c 0
 233 645 161 550 161 479 c 0
 161 438 188 405 230 405 c 0
 239 405 249 417 261 430 c 0
 271 440 283 450 298 450 c 0
 322 450 338 428 338 404 c 0
 338 374 296 342 238 342 c 0
 150 342 91 406 91 476 c 0
 91 575 197 691 423 691 c 0xa7
 539 691 834 639 867 639 c 1
 858 669 845 694 845 713 c 0xdb
 845 732 891 752 909 752 c 0xd7
EndSplineSet
EndChar

StartChar: circumflex
Encoding: 710 710 63
Width: 726
Flags: W
HStem: -289 34<311 319.5> -14 35<306.5 352> 629 35<449 531.5>
VStem: 60.19 140.12
LayerCount: 2
Fore
SplineSet
644 442 m 0
 631 442 624 455 626 483 c 0
 629 522 626 556 607 583 c 0
 589 609 552 629 511 629 c 0
 387 629 268 513 211 292 c 0
 171 138 248 21 365 21 c 0
 412 21 447 54 462 92 c 2
 475 134 l 1
 499 214 l 2
 503 230 501 243 483 251 c 0
 466 258 439 264 424 267 c 0
 413 270 401 277 404 289 c 0
 407 298 419 304 431 304 c 0
 476 304 542 295 583 295 c 0
 621 295 656 303 714 303 c 0
 725 303 730 298 727 288 c 0
 724 276 715 271 701 267 c 0
 662 258 648 248 635 224 c 1
 569 12 l 2
 532 -107 495 -175 448 -220 c 0
 406 -262 352 -289 287 -289 c 0
 204 -289 173 -268 173 -240 c 0
 173 -205 186 -180 206 -180 c 0
 221 -180 239 -199 260 -218 c 0
 281 -236 302 -255 320 -255 c 0
 350 -255 369 -209 404 -96 c 2
 433 -3 l 1
 398 -10 365 -14 339 -14 c 0
 144 -14 16 124 74 343 c 1
 115 519 291 664 519 664 c 0
 565 664 599 653 626 644 c 0
 650 636 663 631 679 631 c 0
 687 631 695 632 704 637 c 0
 714 643 723 647 732 647 c 0
 746 647 748 636 740 625 c 0
 715 592 681 515 667 465 c 0
 664 451 657 442 644 442 c 0
EndSplineSet
EndChar

StartChar: perthousand
Encoding: 8240 8240 64
Width: 1068
Flags: W
HStem: -15 39<231 241> -3 21G<616.5 643.5 882 907> 306 46<528 787 549 773> 605 47<390.5 413.5> 786 41<1114.5 1146>
VStem: 87 66<435.5 496.5>
LayerCount: 2
Fore
SplineSet
204 -15 m 0xbc
 108 -15 74 9 74 42 c 0
 74 81 89 110 112 110 c 0
 128 110 150 89 174 67 c 0
 197 46 221 24 241 24 c 0xbc
 275 24 296 77 336 205 c 2
 442 545 l 2
 458 595 448 605 379 605 c 0
 286 605 153 551 153 462 c 0
 153 409 176 397 216 384 c 0
 241 377 249 361 249 339 c 0
 249 318 226 296 189 296 c 0
 128 296 87 360 87 420 c 0
 87 573 217 652 564 652 c 0
 603 652 651 654 695 654 c 0
 706 654 710 649 708 640 c 0
 705 627 696 623 680 619 c 0
 622 603 606 590 594 550 c 2
 538 366 l 2
 535 356 540 352 549 352 c 2
 787 352 l 2
 795 352 802 356 805 367 c 2
 862 554 l 1
 927 753 1058 827 1160 827 c 0
 1220 827 1269 795 1269 752 c 0
 1269 717 1250 681 1223 681 c 0
 1200 681 1193 708 1183 735 c 0
 1172 762 1159 786 1133 786 c 0
 1096 786 1068 724 1044 647 c 2
 874 98 l 2
 860 55 870 43 912 32 c 0
 925 29 930 22 927 11 c 0
 924 2 912 -3 902 -3 c 0
 862 -3 809 2 769 2 c 0
 730 2 665 -3 622 -3 c 0
 611 -3 606 2 609 12 c 0
 612 24 621 28 636 32 c 0x7c
 690 47 709 60 721 98 c 2
 780 290 l 2
 783 300 782 306 773 306 c 2
 533 306 l 2
 523 306 516 300 513 290 c 2
 508 273 l 2
 478 172 441 115 388 64 c 0
 340 17 278 -15 204 -15 c 0xbc
EndSplineSet
EndChar

StartChar: Scaron
Encoding: 352 352 65
Width: 605
Flags: W
HStem: -3 21G<196 223.5 480 507.5> 634 20G<672 699.5>
VStem: 86 70<436.5 496>
LayerCount: 2
Fore
SplineSet
201 -3 m 0
 191 -3 183 2 186 11 c 0
 189 22 199 29 213 32 c 0
 267 44 287 55 300 97 c 2
 441 545 l 2
 457 596 447 606 378 606 c 0
 285 606 156 546 156 463 c 0
 156 410 170 398 215 392 c 0
 237 389 249 372 249 353 c 0
 249 330 232 304 188 304 c 0
 127 304 86 362 86 422 c 0
 86 570 237 668 550 651 c 0
 583 651 650 654 694 654 c 0
 705 654 710 649 707 640 c 0
 703 627 695 623 679 619 c 0
 621 603 605 591 593 550 c 2
 465 134 l 2
 442 59 448 48 493 36 c 0
 522 29 528 24 524 12 c 0
 521 2 513 -3 502 -3 c 0
 458 -3 387 2 347 2 c 0
 306 2 246 -3 201 -3 c 0
EndSplineSet
EndChar

StartChar: guilsinglleft
Encoding: 8249 8249 66
Width: 683
Flags: W
HStem: -200 39<213 222.5> 299 57<279.5 422 311 405 575 642> 644 103<267.5 302.5>
VStem: 132 60<579 581.5>
LayerCount: 2
Fore
SplineSet
745 678 m 0
 745 641 718 610 649 593 c 1
 575 356 l 1
 679 356 l 2
 691 356 700 347 695 338 c 0
 681 316 660 299 642 299 c 2
 558 299 l 1
 506 133 l 2
 464 -2 425 -69 370 -121 c 0
 322 -168 260 -200 185 -200 c 0
 90 -200 55 -176 55 -143 c 0
 55 -104 71 -75 93 -75 c 0
 110 -75 132 -96 155 -118 c 0
 179 -140 203 -161 223 -161 c 0
 256 -161 278 -109 318 20 c 2
 405 299 l 1
 287 299 l 2
 272 299 271 315 274 328 c 0
 279 344 295 356 311 356 c 2
 422 356 l 1
 493 582 l 1
 406 592 334 644 271 644 c 0
 215 644 192 617 192 589 c 0
 192 569 203 554 213 541 c 0
 221 531 227 522 227 513 c 0
 227 488 189 470 164 470 c 0
 143 470 132 504 132 531 c 0
 132 632 212 747 323 747 c 0
 428 747 471 681 499 615 c 1
 543 705 612 738 664 739 c 0
 706 739 745 713 745 678 c 0
EndSplineSet
EndChar

StartChar: OE
Encoding: 338 338 67
Width: 754
Flags: W
HStem: -344 44<912 1025 912 1039.5> -4 21G<220.5 258> 321 33<297.5 336> 630 20G<298 337> 631 20G<564 639 639 672> 634 20G<440 467.5 799 842.5> 635 20G<172 199.5>
VStem: 1095 89<-247 -145>
LayerCount: 2
Fore
SplineSet
963 -344 m 0xe3
 727 -344 510 -48 332 286 c 0
 320 311 308 321 301 321 c 0
 294 321 291 316 289 309 c 2
 228 100 l 2
 217 62 218 46 264 32 c 0
 277 28 288 24 284 12 c 0
 281 2 265 -4 251 -4 c 0
 190 -4 159 4 120 4 c 0
 79 4 47 -6 -18 -6 c 0
 -31 -6 -44 2 -42 11 c 0
 -38 22 -27 29 -9 32 c 0
 44 42 59 55 72 98 c 2
 212 551 l 2
 225 595 216 607 168 619 c 0
 155 622 149 629 153 640 c 0
 155 649 167 655 177 655 c 0xe3
 222 655 278 650 318 650 c 0xf1
 356 650 418 654 462 654 c 0
 473 654 478 649 475 640 c 0
 471 627 463 623 448 619 c 0xe3
 390 604 377 590 365 550 c 2
 309 370 l 2
 305 357 310 354 323 354 c 0
 349 354 378 369 410 401 c 2
 569 551 l 2
 584 566 594 577 597 586 c 0
 601 598 580 610 554 615 c 0
 542 618 536 625 539 637 c 0
 541 646 555 651 564 651 c 2
 639 651 l 2xe9
 705 651 762 654 836 654 c 0
 849 654 859 649 857 640 c 0
 854 628 835 621 821 619 c 0
 751 613 705 593 660 557 c 0xe5
 592 504 518 443 451 377 c 0
 440 365 437 357 443 347 c 0
 589 81 834 -300 990 -300 c 0
 1060 -300 1095 -264 1095 -230 c 0
 1095 -204 1075 -186 1058 -177 c 0
 1042 -168 1026 -156 1026 -129 c 0
 1026 -93 1059 -75 1094 -75 c 0
 1158 -75 1184 -120 1184 -170 c 0
 1184 -248 1116 -344 963 -344 c 0xe3
EndSplineSet
EndChar

StartChar: NameMe.141
Encoding: 1114113 -1 68
Width: 575
Flags: W
HStem: -301 65<620.5 656> -12 21G 86 48<113 223.5> 589 40<472.5 523>
VStem: 552 96<516.5 538 516.5 543> 717 75<-166.5 -162.5>
LayerCount: 2
Fore
SplineSet
594 -301 m 0
 508 -301 369 -161 292 -75 c 0
 223 1 177 86 113 86 c 1
 75 57 35 22 11 -3 c 0
 -14 -28 -62 3 -62 42 c 0
 -62 85 16 124 93 127 c 1
 140 192 168 280 200 382 c 0
 244 520 345 629 501 629 c 0
 614 629 649 581 648 538 c 0
 648 495 608 443 550 443 c 0
 536 443 533 448 533 458 c 0
 533 467 552 492 552 528 c 0
 552 558 541 589 505 589 c 0
 440 589 407 531 349 356 c 0
 318 262 261 171 181 141 c 0
 178 139 179 136 182 134 c 0
 265 134 335 62 398 -13 c 0
 468 -95 588 -236 653 -236 c 0
 687 -236 717 -209 717 -173 c 0
 717 -152 698 -140 698 -123 c 0
 698 -98 722 -79 742 -79 c 0
 774 -79 792 -96 792 -135 c 0
 792 -198 718 -301 594 -301 c 0
EndSplineSet
EndChar

StartChar: Zcaron
Encoding: 381 381 69
Width: 1394
Flags: W
HStem: -14 45<170.5 268.5> -2 21G<1246.5 1274> 274 77<158.5 186> 607 50<620 674.5> 630 20G<1249 1297 1297 1322.5>
VStem: 4 59<115 195 115 203> 330 70<461.5 520> 750 120.5
LayerCount: 2
Fore
SplineSet
203 -14 m 0xb7
 63 -14 4 68 4 153 c 0
 4 253 90 351 227 351 c 0
 285 351 313 320 313 289 c 0
 313 261 296 230 260 230 c 0
 232 230 222 241 213 253 c 0
 204 263 196 274 176 274 c 0
 111 274 63 227 63 163 c 0
 63 67 124 31 217 31 c 0
 375 31 547 295 706 541 c 0
 740 592 710 607 639 607 c 0
 542 607 400 570 400 488 c 0
 400 435 414 422 459 416 c 0
 481 413 493 397 493 377 c 0
 493 354 476 328 432 328 c 0
 371 328 330 387 330 446 c 0
 330 594 487 657 753 657 c 0xb7
 840 657 862 605 864 555 c 2
 877 217 l 2
 878 202 886 199 898 212 c 0
 1007 323 1115 473 1187 573 c 0
 1205 601 1218 620 1228 637 c 0
 1234 646 1240 650 1249 650 c 2
 1297 650 l 2xaf
 1348 650 1401 658 1434 658 c 0
 1450 658 1459 655 1459 644 c 0
 1459 632 1442 623 1407 614 c 0
 1358 603 1337 578 1322 525 c 0
 1286 390 1254 248 1226 108 c 0
 1217 65 1238 43 1276 33 c 0
 1288 29 1297 25 1294 12 c 0
 1291 3 1280 -2 1268 -2 c 0
 1225 -2 1155 3 1115 3 c 0
 1074 3 1017 -3 971 -3 c 0
 960 -3 951 3 953 11 c 0
 957 23 969 30 983 33 c 0x77
 1036 45 1055 57 1068 98 c 0
 1104 217 1129 325 1158 440 c 0
 1160 448 1155 447 1147 438 c 2
 890 142 l 1
 790 6 l 2
 783 -4 772 -14 764 -14 c 0
 757 -14 750 -6 750 9 c 0
 751 164 742 309 732 460 c 0
 731 475 719 470 710 453 c 0
 477 108 334 -14 203 -14 c 0xb7
EndSplineSet
EndChar

StartChar: NameMe.143
Encoding: 1114114 -1 70
Width: 993
Flags: W
HStem: -339 44<1129 1200.5 1129 1219> -15 64<175.5 229 175.5 250.5> 598 55 678 64<1034 1089>
VStem: 79 70<427 486> 781 29.37 1251 99<-260 -167.5>
LayerCount: 2
Fore
SplineSet
1152 -339 m 0
 910 -339 713 -47 484 481 c 0
 482 486 477 493 473 493 c 0
 467 493 463 479 461 470 c 0
 373 128 344 -15 157 -15 c 0
 88 -15 29 19 29 68 c 0
 29 111 59 135 81 135 c 0
 95 135 107 113 124 91 c 0
 140 69 161 49 190 49 c 0
 268 49 334 104 434 537 c 0
 445 584 437 598 372 598 c 0
 278 598 149 536 149 453 c 0
 149 401 163 388 209 382 c 0
 230 379 242 363 242 343 c 0
 242 320 224 293 180 293 c 0
 119 293 79 353 79 412 c 0
 79 560 230 654 534 653 c 0
 552 653 562 645 569 632 c 0xee
 642 462 702 310 761 194 c 0
 767 181 776 176 781 199 c 0
 879 604 919 742 1106 742 c 0
 1176 742 1234 708 1234 659 c 0
 1234 616 1204 592 1182 592 c 0
 1170 592 1159 611 1145 630 c 0
 1128 654 1105 678 1073 678 c 0xfe
 995 678 927 625 814 151 c 0
 808 127 807 101 824 68 c 0
 947 -153 1085 -295 1173 -295 c 0
 1228 -295 1251 -276 1251 -244 c 0
 1251 -223 1237 -212 1225 -201 c 0
 1213 -190 1201 -179 1201 -159 c 0
 1201 -124 1227 -98 1266 -98 c 0
 1320 -98 1350 -143 1350 -192 c 0
 1350 -260 1286 -339 1152 -339 c 0
EndSplineSet
EndChar

StartChar: NameMe.144
Encoding: 1114115 -1 71
Width: 692
Flags: W
HStem: -14 38<259.5 366.5 259.5 410> 630 34<397 502.5>
VStem: 58 138<167 264 138.5 350> 568 139<385.5 483 300.5 511>
LayerCount: 2
Fore
SplineSet
294 -14 m 0
 156 -14 58 92 58 242 c 0
 58 458 237 664 470 664 c 0
 608 664 707 558 707 408 c 0
 707 193 526 -14 294 -14 c 0
294 24 m 0
 439 24 568 303 568 468 c 0
 568 554 537 630 468 630 c 0
 326 630 196 347 196 181 c 0
 196 96 225 24 294 24 c 0
EndSplineSet
EndChar

StartChar: quoteleft
Encoding: 8216 8216 72
Width: 845
Flags: W
HStem: -3 21G<198.5 225.5 483 512> 610 48<396 414> 617 41<634.5 658.5 396 673.5>
VStem: 85 71<435 494> 750 138
LayerCount: 2
Fore
SplineSet
203 -3 m 0xd8
 194 -3 184 2 184 11 c 0
 184 22 201 29 216 32 c 0
 269 44 289 55 302 98 c 2
 442 549 l 2
 458 600 448 610 380 610 c 0
 286 610 156 544 156 461 c 0
 156 409 169 395 214 389 c 0
 236 386 248 370 248 350 c 0
 248 327 231 301 187 301 c 0
 126 301 85 361 85 420 c 0
 85 568 235 658 557 658 c 0xd8
 760 658 893 634 888 468 c 0
 883 332 756 234 591 234 c 0
 559 234 545 240 545 255 c 0
 545 264 555 268 567 270 c 0
 582 272 592 275 609 278 c 0
 700 295 750 388 750 475 c 0
 750 590 703 617 644 617 c 0
 625 617 614 611 592 540 c 2xb8
 456 100 l 2
 442 56 463 44 516 32 c 0
 528 29 538 24 538 12 c 0
 538 2 519 -3 505 -3 c 0
 461 -3 388 2 350 2 c 0
 308 2 248 -3 203 -3 c 0xd8
EndSplineSet
EndChar

StartChar: quoteright
Encoding: 8217 8217 73
Width: 795
Flags: W
HStem: -347 49<858 927.5 858 943.5> -229 37<17 109.5> 52 43<-1.5 98> 186 55 629 35<370 495.5>
VStem: -214 109<-97 -44.5> 94 123<373.5 425 373.5 464> 435 87<315.5 327.5> 634 138<337.5 481 310.5 487> 971 109<-265 -170>
LayerCount: 2
Fore
SplineSet
1003 -115 m 0
 1054 -115 1080 -149 1080 -191 c 0
 1080 -259 1011 -347 876 -347 c 0
 685 -347 533 -219 406 -131 c 1
 294 -193 169 -229 50 -229 c 0
 -136 -229 -214 -154 -214 -90 c 0
 -214 1 -120 95 82 95 c 0
 234 95 334 49 438 -7 c 1
 555 102 634 259 634 416 c 0
 634 558 544 629 447 629 c 0
 293 629 218 527 217 425 c 0
 217 322 266 241 349 241 c 0
 395 241 435 272 435 316 c 0
 435 339 413 352 402 368 c 0
 393 379 383 391 383 408 c 0
 383 444 406 475 445 475 c 0
 496 475 522 432 522 377 c 0
 522 254 429 187 322 186 c 0
 210 184 94 260 94 386 c 0
 94 542 228 664 468 664 c 0
 647 664 772 564 772 398 c 0
 772 223 669 61 522 -55 c 1
 682 -156 811 -298 905 -298 c 0
 950 -298 971 -278 971 -252 c 0
 971 -236 961 -223 952 -212 c 0
 944 -200 934 -189 934 -173 c 0
 934 -142 966 -115 1003 -115 c 0
-105 -64 m 0
 -105 -130 -44 -192 78 -192 c 0
 166 -192 257 -145 339 -86 c 1
 236 -17 148 52 48 52 c 0
 -51 52 -105 4 -105 -64 c 0
EndSplineSet
EndChar

StartChar: quotedblleft
Encoding: 8220 8220 74
Width: 977
Flags: W
HStem: -344 44<1142.5 1256 1142.5 1270.5> -3 21G<198.5 225.5 480.5 507.5> 300 26<527.5 616> 623 36<638.5 674.5>
VStem: 87 70<436.5 504.5 436.5 523.5> 730 144<462 548.5> 1325 90<-247 -145>
LayerCount: 2
Fore
SplineSet
1194 -344 m 0
 958 -344 745 -47 575 267 c 0
 564 288 554 300 533 300 c 0
 522 300 515 292 511 280 c 2
 455 100 l 2
 442 57 458 44 510 32 c 0
 522 29 528 24 525 12 c 0
 521 2 513 -3 502 -3 c 0
 459 -3 387 2 349 2 c 0
 308 2 248 -3 203 -3 c 0
 194 -3 185 2 187 11 c 0
 191 22 200 29 215 32 c 0
 268 43 289 55 302 98 c 2
 442 547 l 2
 458 597 448 607 379 607 c 0
 286 607 157 546 157 463 c 0
 157 410 171 398 216 392 c 0
 238 389 250 372 250 353 c 0
 250 330 233 304 189 304 c 0
 128 304 87 362 87 422 c 0
 87 625 351 659 633 659 c 0
 802 659 874 599 874 507 c 0
 874 414 788 347 701 328 c 0
 692 326 691 320 694 313 c 0
 819 81 1064 -300 1221 -300 c 0
 1291 -300 1325 -264 1325 -230 c 0
 1325 -204 1306 -186 1289 -177 c 0
 1273 -168 1257 -156 1257 -129 c 0
 1257 -93 1290 -75 1324 -75 c 0
 1388 -75 1415 -120 1415 -170 c 0
 1415 -248 1347 -344 1194 -344 c 0
568 326 m 0
 664 326 730 404 730 520 c 0
 730 577 697 623 652 623 c 0
 625 623 617 617 593 541 c 2
 539 364 l 2
 532 337 543 326 568 326 c 0
EndSplineSet
EndChar

StartChar: quotedblright
Encoding: 8221 8221 75
Width: 616
Flags: W
HStem: -197 64<167.5 256 167.5 293.5> 99 87 626 38<389.5 442.5 351 459.5>
VStem: -14 60<-29 38.5 -29 67> 182 134<494.5 523.5> 386 137<8 76.5>
LayerCount: 2
Fore
SplineSet
219 -197 m 0
 93 -197 -14 -126 -14 4 c 0
 -14 130 88 184 168 186 c 0
 217 187 283 165 283 118 c 0
 283 97 263 53 235 53 c 0
 223 53 200 71 173 85 c 0
 157 93 139 99 118 99 c 0
 73 99 46 59 46 18 c 0
 46 -76 122 -133 213 -133 c 0
 299 -133 386 -73 386 40 c 0
 386 113 337 177 288 243 c 0
 236 312 182 383 182 468 c 0
 182 579 282 664 420 664 c 0
 465 664 504 654 532 645 c 0
 559 637 573 632 589 632 c 0
 599 632 605 633 614 638 c 0
 623 643 632 647 641 647 c 0
 654 647 657 637 650 625 c 0
 629 596 597 527 582 467 c 0
 579 452 572 442 560 442 c 0
 547 442 542 455 542 483 c 0
 542 570 495 626 424 626 c 0
 355 626 316 588 316 525 c 0
 316 464 363 408 412 346 c 0
 469 275 523 199 523 105 c 0
 523 -89 368 -197 219 -197 c 0
EndSplineSet
EndChar

StartChar: bullet
Encoding: 8226 8226 76
Width: 771
Flags: W
HStem: -3 21G<216.5 243.5 499.5 527> 342 63<209 234.5 209 267> 541 98<752.5 862> 645 46<310 397.5>
VStem: 91 70<458.5 514.5 458.5 525.5> 840 97<703.5 714 683.5 722.5>
LayerCount: 2
Fore
SplineSet
904 752 m 0
 924 752 937 728 937 700 c 0
 937 667 838 541 775 541 c 0
 730 541 679 558 626 578 c 1xec
 478 99 l 2
 466 60 481 46 529 32 c 0
 541 28 549 24 546 12 c 0
 543 2 533 -3 521 -3 c 0
 478 -3 411 2 372 2 c 0
 331 2 266 -3 221 -3 c 0
 212 -3 201 2 204 11 c 0
 207 22 219 29 234 32 c 0
 287 43 312 56 325 98 c 2
 489 627 l 1
 453 638 416 645 379 645 c 0
 233 645 161 550 161 479 c 0
 161 438 188 405 230 405 c 0
 239 405 249 417 261 430 c 0
 271 440 283 450 298 450 c 0
 322 450 338 428 338 404 c 0
 338 374 296 342 238 342 c 0
 150 342 91 406 91 476 c 0
 91 575 197 691 423 691 c 0xdc
 539 691 829 639 862 639 c 1
 853 669 840 694 840 713 c 0xec
 840 732 886 752 904 752 c 0
EndSplineSet
EndChar

StartChar: endash
Encoding: 8211 8211 77
Width: 957
Flags: W
HStem: -14 74<563.5 662> 634 20G<664 691> 638 64<1033 1113>
VStem: 85 70<434 493> 335.06 149.44
LayerCount: 2
Fore
SplineSet
559 -14 m 0xd8
 387 -14 299 95 349 255 c 2
 439 546 l 2
 454 594 446 605 378 605 c 0
 284 605 155 543 155 460 c 0
 155 408 169 395 215 389 c 0
 236 386 248 370 248 350 c 0
 248 327 231 301 187 301 c 0
 126 301 85 359 85 419 c 0
 85 567 235 657 544 650 c 0
 585 650 645 654 683 654 c 0
 699 654 708 649 705 639 c 0
 701 625 674 620 650 610 c 0xd8
 626 601 603 578 588 531 c 2
 494 237 l 2
 460 129 522 60 605 60 c 0
 756 60 806 181 843 317 c 0
 894 496 922 702 1130 702 c 0
 1199 702 1258 668 1258 619 c 0
 1258 576 1228 552 1206 552 c 0
 1193 552 1182 570 1168 590 c 0
 1151 614 1129 638 1097 638 c 0xb8
 969 638 942 470 890 304 c 0
 838 134 765 -14 559 -14 c 0xd8
EndSplineSet
EndChar

StartChar: emdash
Encoding: 8212 8212 78
Width: 811
Flags: W
HStem: -15 99 610 53
VStem: -30 79<442.5 493> 190 158<173.5 231> 760 80<367.5 430.5>
LayerCount: 2
Fore
SplineSet
407 -15 m 0
 278 -16 190 56 190 184 c 0
 190 278 231 347 302 427 c 0
 330 463 399 537 486 610 c 1
 153 610 49 543 49 460 c 0
 49 425 60 395 106 389 c 0
 127 386 139 370 139 350 c 0
 139 327 122 301 78 301 c 0
 17 301 -30 359 -30 419 c 0
 -30 567 125 657 557 663 c 0
 569 663 580 642 574 637 c 0
 418 498 348 361 348 226 c 0
 348 121 403 84 479 84 c 0
 589 84 760 234 760 413 c 0
 760 448 741 492 724 528 c 0
 709 562 694 588 694 596 c 0
 694 613 749 667 771 667 c 0
 810 667 840 588 840 527 c 0
 840 208 592 -14 407 -15 c 0
EndSplineSet
EndChar

StartChar: tilde
Encoding: 732 732 79
Width: 1043
Flags: W
HStem: -15 99<460 461> -12 95<766 822.5> 561 48<707 746.5> 610 53
VStem: -30 79<442.5 493> 211 159<175.5 231> 551 86<305 381> 777 58<447 510.5> 984 80<380 424.5>
LayerCount: 2
Fore
SplineSet
424 -15 m 0x9f80
 297 -16 211 61 211 184 c 0
 211 278 235 347 306 427 c 0
 333 463 370 502 481 610 c 1
 149 610 49 543 49 460 c 0
 49 425 60 395 106 389 c 0
 127 386 139 370 139 350 c 0
 139 327 122 301 78 301 c 0
 17 301 -30 359 -30 419 c 0
 -30 567 125 661 557 663 c 0
 569 663 580 642 574 636 c 0x5f80
 530 596 492 552 461 508 c 0
 394 416 370 323 370 226 c 0
 370 125 422 84 498 84 c 0
 529 84 561 94 588 110 c 1
 564 159 551 219 551 279 c 0
 551 483 626 609 740 609 c 0xaf80
 805 609 835 557 835 480 c 0
 835 375 781 229 694 128 c 1
 718 100 748 83 784 83 c 0
 873 83 984 239 984 407 c 0
 984 442 965 486 949 522 c 0
 934 556 918 583 918 590 c 0
 918 607 975 662 997 662 c 0
 1035 662 1064 582 1064 509 c 0
 1064 251 889 -12 756 -12 c 0x5f80
 703 -12 657 13 621 55 c 1
 563 12 498 -15 424 -15 c 0x9f80
663 181 m 1x6f80
 736 273 777 406 777 488 c 0
 777 533 760 561 733 561 c 0
 681 561 637 487 637 332 c 0
 637 278 646 224 663 181 c 1x6f80
EndSplineSet
EndChar

StartChar: trademark
Encoding: 8482 8482 80
Width: 896
Flags: W
HStem: -339 44<1003 1106.5 1003 1117.5> -7 21G<204.5 232> -3 21G<400.5 427> 0 21G<303.5 342.5> 599 52<389 408.5> 618 35<810 810> 637 20G<977.5 1004.5>
VStem: 84 70<428.5 488> 523.15 174.84 1155 101<-259.5 -167.5>
LayerCount: 2
Fore
SplineSet
1043 -339 m 0x99c0
 803 -339 705 -150 553 280 c 0
 548 297 535 295 525 283 c 2
 405 132 l 2
 353 63 378 41 420 32 c 0
 434 28 450 21 449 10 c 0
 449 1 434 -3 420 -3 c 0
 381 -3 362 0 323 0 c 0xa9c0
 284 0 252 -7 212 -7 c 0
 197 -7 181 -3 181 9 c 0
 181 22 198 25 212 30 c 0
 241 39 280 58 342 128 c 2
 506 314 l 2
 523 333 528 346 519 374 c 0
 500 430 483 487 463 545 c 0
 455 575 441 599 376 599 c 0
 283 599 154 538 154 455 c 0
 154 402 168 390 213 384 c 0
 235 381 247 364 247 345 c 0
 247 322 230 296 186 296 c 0
 125 296 84 354 84 414 c 0
 84 562 237 651 541 651 c 0
 582 651 592 639 603 604 c 0xc9c0
 627 532 649 462 671 392 c 0
 676 376 689 377 699 388 c 2
 797 507 l 2
 850 576 849 612 810 618 c 0
 797 621 780 628 781 640 c 0
 781 649 796 653 810 653 c 0x95c0
 839 653 865 650 895 650 c 0
 933 650 958 657 997 657 c 0
 1012 657 1029 653 1029 641 c 0
 1028 628 1012 625 998 621 c 0
 968 612 925 587 898 557 c 2x93c0
 716 355 l 2
 699 337 693 322 702 296 c 0
 837 -78 927 -295 1079 -295 c 0
 1134 -295 1155 -276 1155 -243 c 0
 1155 -221 1141 -211 1129 -200 c 0
 1118 -189 1107 -179 1107 -160 c 0
 1107 -125 1132 -99 1171 -99 c 0
 1225 -99 1256 -143 1256 -192 c 0
 1256 -260 1192 -339 1043 -339 c 0x99c0
EndSplineSet
EndChar

StartChar: scaron
Encoding: 353 353 81
Width: 762
Flags: W
HStem: -3 21G<252 279.5 526 553.5> 239 58<197.5 220.5 191.5 280.5> 596 68<277 385.5> 615 49<796 830.5>
VStem: 85 53<383.5 463 383.5 477.5>
LayerCount: 2
Fore
SplineSet
257 -3 m 0xe8
 247 -3 239 2 241 11 c 0
 245 22 254 29 269 32 c 0
 323 43 344 57 357 99 c 2
 415 283 l 2
 473 467 448 596 323 596 c 0
 213 596 138 511 138 415 c 0
 138 352 172 297 211 297 c 0
 230 297 245 309 255 323 c 0
 264 334 274 341 288 341 c 0
 317 341 335 319 335 296 c 0
 335 269 314 239 247 239 c 0
 148 239 85 323 85 411 c 0
 85 544 185 664 369 664 c 0
 500 664 551 585 566 512 c 0
 567 508 570 507 573 511 c 0
 639 622 753 664 839 664 c 0
 890 664 945 642 945 585 c 0xe8
 945 571 929 539 900 539 c 0
 883 539 881 564 869 585 c 0
 860 600 845 615 816 615 c 0xd8
 711 615 614 437 572 304 c 2
 510 100 l 2
 498 62 509 46 555 32 c 0
 568 28 574 24 570 12 c 0
 567 2 559 -3 548 -3 c 0
 504 -3 442 2 402 2 c 0
 361 2 302 -3 257 -3 c 0xe8
EndSplineSet
EndChar

StartChar: guilsinglright
Encoding: 8250 8250 82
Width: 638
Flags: W
HStem: -253 65<594 621> -12 21G 86 41<167 167 167 180.5> 299 57<135.5 315 167 262 167 326 379 498> 644 103<258 297.5> 702 20G<668 708>
VStem: 127 64<573.5 585> 676 74<-156.5 -81.5>
LayerCount: 2
Fore
SplineSet
701 -44 m 0xf7
 733 -44 750 -62 750 -101 c 0
 750 -145 677 -253 565 -253 c 0
 483 -253 405 -164 329 -79 c 0
 259 -1 213 86 148 86 c 1
 110 57 70 22 46 -3 c 0
 21 -28 -27 3 -27 42 c 0
 -27 77 33 112 99 123 c 1
 262 299 l 1
 143 299 l 2
 128 299 127 315 130 328 c 0
 135 344 151 356 167 356 c 2
 315 356 l 1
 525 581 l 1
 433 592 329 644 266 644 c 0
 215 644 191 616 191 579 c 0
 191 568 200 560 210 550 c 0
 220 539 229 529 229 512 c 0
 229 487 206 472 186 472 c 0
 146 472 127 504 127 543 c 0
 127 627 198 747 318 747 c 0xfb
 424 747 510 680 547 628 c 1
 583 704 647 722 689 722 c 0
 727 722 761 699 761 668 c 0
 761 621 714 584 585 579 c 1
 379 356 l 1
 535 356 l 2
 547 356 556 347 551 338 c 0
 537 316 516 299 498 299 c 2
 326 299 l 1
 167 127 l 1
 243 123 336 101 432 -15 c 0
 500 -97 562 -188 626 -188 c 0
 658 -188 676 -174 676 -139 c 0
 676 -118 657 -106 657 -88 c 0
 657 -64 681 -44 701 -44 c 0xf7
EndSplineSet
EndChar

StartChar: oe
Encoding: 339 339 83
Width: 747
Flags: W
HStem: -5 21G<-51 -23> -2 21G<186.5 213.5 336 362> 240 45<341 447>
VStem: -66 757.12
LayerCount: 2
Fore
SplineSet
-43 -5 m 0xb0
 -59 -5 -68 -1 -66 11 c 0
 -64 24 -52 30 -37 33 c 0xb0
 2 42 63 64 95 100 c 0
 227 248 349 392 476 539 c 0
 511 579 527 624 539 624 c 0
 573 624 603 630 627 645 c 0
 649 659 668 673 680 673 c 0
 693 673 694 645 688 613 c 2
 589 114 l 2
 580 68 598 46 647 32 c 0
 663 28 674 25 674 12 c 0
 674 2 655 -3 643 -3 c 0
 604 -3 535 2 491 2 c 0
 451 2 382 -2 342 -2 c 0
 330 -2 322 3 323 12 c 0
 323 23 336 31 350 34 c 0
 398 44 423 58 433 100 c 2
 463 221 l 2
 466 234 459 240 447 240 c 2
 295 240 l 2
 282 240 273 232 266 222 c 2
 197 133 l 2
 148 72 162 47 213 34 c 0
 225 31 238 24 238 12 c 0
 237 3 221 -2 206 -2 c 0x70
 167 -2 130 1 91 1 c 0
 51 1 -3 -5 -43 -5 c 0xb0
341 285 m 2x70
 461 285 l 2
 472 285 477 288 479 299 c 2
 527 518 l 2
 529 528 531 536 525 536 c 0
 523 536 517 533 512 528 c 2
 329 304 l 2
 317 290 317 285 341 285 c 2x70
EndSplineSet
EndChar

StartChar: NameMe.157
Encoding: 1114116 -1 84
Width: 627
Flags: W
HStem: -4 32<258 268 258 346.5> 331 33<328.5 355 328.5 364> 626 28<415.5 448.5>
VStem: 429 153<181.5 239.5 123.5 256> 505 133<502 559>
LayerCount: 2
Fore
SplineSet
-26 -5 m 0xf0
 -37 -5 -43 -1 -43 7 c 0
 -43 16 -31 26 -14 31 c 0
 35 44 55 53 69 96 c 2
 210 551 l 2
 225 596 210 608 170 619 c 0
 157 622 152 627 152 634 c 0
 152 645 165 654 180 654 c 0
 239 654 260 647 308 647 c 0
 353 647 383 654 448 654 c 0
 571 654 638 607 638 526 c 0xe8
 638 445 549 382 455 364 c 0
 449 363 446 356 452 354 c 0
 529 327 582 282 582 197 c 0
 582 50 435 -4 258 -4 c 0
 206 -4 165 1 115 1 c 0
 73 1 16 -5 -26 -5 c 0xf0
340 364 m 0
 370 364 393 372 419 382 c 1
 466 416 505 468 505 536 c 0
 505 582 472 626 425 626 c 0xe8
 396 626 382 618 374 593 c 2
 313 389 l 2
 308 371 317 364 340 364 c 0
268 28 m 0
 350 38 429 137 429 226 c 0
 429 286 395 331 333 331 c 0
 305 331 293 326 287 308 c 2
 223 101 l 2
 219 85 217 64 225 52 c 0
 233 41 248 28 268 28 c 0
EndSplineSet
EndChar

StartChar: zcaron
Encoding: 382 382 85
Width: 665
Flags: W
HStem: -14 39<311.5 336> -9 21G<518 532.5> 628 36<420 524.5>
VStem: 61 153<175 283.5 130.5 370.5>
LayerCount: 2
Fore
SplineSet
317 -14 m 0xb0
 176 -14 61 99 61 251 c 0
 61 490 261 664 508 664 c 0
 553 664 589 654 617 644 c 0
 642 636 655 631 671 631 c 0
 680 631 687 632 696 637 c 0
 706 643 715 647 725 647 c 0
 738 647 741 637 733 625 c 0
 707 592 672 508 658 458 c 0
 655 445 648 436 635 436 c 0
 622 436 617 456 619 483 c 0
 621 512 614 544 597 570 c 0
 576 604 543 628 506 628 c 0
 334 628 214 381 214 186 c 0
 214 75 269 25 354 25 c 0xb0
 436 25 503 81 566 166 c 0
 576 179 582 192 592 192 c 0
 602 192 609 181 606 166 c 0
 591 107 541 -9 524 -9 c 0
 512 -9 507 -3 499 2 c 0
 491 7 482 11 463 11 c 0x70
 448 11 431 5 409 -1 c 0
 386 -7 355 -14 317 -14 c 0xb0
EndSplineSet
EndChar

StartChar: Ydieresis
Encoding: 376 376 86
Width: 733
Flags: W
HStem: -7 37<281.5 378.5 281.5 427.5> -3 21G<-40.5 -13.5> 616 38<417 479.5>
VStem: 584 159<310.5 459.5 279.5 479>
LayerCount: 2
Fore
SplineSet
306 -7 m 0xb0
 237 -7 144 3 109 3 c 0
 70 3 9 -3 -36 -3 c 0
 -45 -3 -53 2 -51 11 c 0
 -47 22 -38 30 -23 32 c 0
 33 42 50 55 63 97 c 2x70
 206 553 l 2
 218 598 200 606 152 619 c 0
 140 622 135 629 138 640 c 0
 141 649 153 655 162 655 c 0
 208 655 268 650 309 650 c 0
 348 650 384 654 450 654 c 0
 637 654 743 535 743 384 c 0
 743 175 549 -7 306 -7 c 0xb0
306 30 m 0
 451 30 584 220 584 401 c 0
 584 557 524 616 435 616 c 0
 389 616 371 604 362 572 c 2
 227 123 l 2
 205 53 257 30 306 30 c 0
EndSplineSet
EndChar

StartChar: uni00A0
Encoding: 160 160 87
Width: 573
Flags: W
HStem: -4 40 0 36 313 41<294 408 317 402> 412 20G<509.5 517.5> 615 35<469 494> 635 20G<165.5 191.5> 642 20G<598 608.5>
VStem: -54.18 676.18
LayerCount: 2
Fore
SplineSet
-38 -5 m 0xb9
 -51 -5 -56 2 -54 10 c 0
 -53 18 -42 27 -26 31 c 0
 25 44 45 54 58 96 c 2
 198 551 l 2
 212 596 202 609 156 619 c 0
 140 623 135 631 137 640 c 0
 140 648 152 655 179 655 c 0xb5
 204 655 264 649 304 649 c 2xb9
 469 650 l 2
 559 650 592 662 604 662 c 0
 613 662 622 654 622 642 c 0xb3
 622 619 597 558 595 514 c 0
 595 501 586 494 579 494 c 0
 573 494 566 500 564 512 c 0
 557 586 545 615 494 615 c 2
 416 615 l 2
 383 615 364 600 347 543 c 2
 299 379 l 2
 294 360 300 354 317 354 c 2
 408 354 l 2
 443 355 465 378 486 412 c 0
 493 424 505 432 514 432 c 0
 521 432 525 423 519 408 c 0
 507 380 496 355 489 329 c 0
 481 303 475 278 468 248 c 0
 463 230 457 221 450 221 c 0
 440 221 433 233 434 246 c 0
 436 289 427 313 402 313 c 2
 302 313 l 2
 286 313 274 305 270 289 c 2
 219 114 l 2
 204 61 218 36 270 36 c 2
 357 36 l 2
 384 36 413 46 437 62 c 0
 464 80 487 118 511 155 c 0
 518 164 521 168 529 168 c 0
 537 168 539 161 539 145 c 0
 539 124 511 46 485 9 c 0
 478 0 467 -4 456 -4 c 0xb9
 421 -4 218 0 102 0 c 0x79
 61 0 3 -5 -38 -5 c 0xb9
EndSplineSet
EndChar

StartChar: exclamdown
Encoding: 161 161 88
Width: 535
Flags: HW
HStem: -3 21G<-30 -2.5 262.5 289.5> 311 40<309.5 399 352 399 399 412> 406 20G<518 525> 616 34<504 518.5> 635 20G<178.5 204.5> 644 20G<622 635.5>
VStem: -40.34 688.34
LayerCount: 2
Fore
SplineSet
-25 -3 m 0xf2
 -35 -3 -43 2 -40 11 c 0
 -37 23 -27 29 -13 32 c 0
 41 43 59 55 72 97 c 2
 213 551 l 2
 226 595 216 608 177 618 c 0
 157 623 153 631 156 640 c 0
 158 648 169 655 188 655 c 0xea
 221 655 277 650 318 650 c 2
 478 650 l 2xf2
 570 650 613 664 631 664 c 0
 640 664 651 659 648 645 c 2
 642 621 l 2xe6
 635 595 618 554 611 506 c 0
 609 494 603 486 595 486 c 0
 587 486 583 492 583 504 c 0
 582 537 578 564 565 584 c 0
 553 604 533 616 504 616 c 2
 437 617 l 2
 405 618 380 599 372 572 c 0
 364 549 323 411 313 381 c 0
 308 365 314 351 352 351 c 2
 399 351 l 2
 440 351 471 370 495 407 c 0
 503 419 514 426 522 426 c 0
 528 426 532 418 528 404 c 0
 505 350 491 309 481 258 c 0
 477 240 470 232 463 232 c 0
 453 232 447 243 447 256 c 0
 447 297 436 311 412 311 c 2
 321 311 l 2
 298 311 285 300 280 283 c 2
 226 101 l 2
 213 54 229 39 293 32 c 0
 305 31 310 24 307 12 c 0
 304 2 295 -3 284 -3 c 0
 241 -3 160 2 121 2 c 0
 80 2 20 -3 -25 -3 c 0xf2
EndSplineSet
EndChar

StartChar: cent
Encoding: 162 162 89
Width: 726
Flags: W
HStem: -14 35<306.5 381> 629 35<449 531.5>
VStem: 60.19 140.12
LayerCount: 2
Fore
SplineSet
339 -14 m 0
 144 -14 16 124 74 343 c 1
 115 519 291 664 519 664 c 0
 565 664 599 653 626 644 c 0
 650 636 663 631 679 631 c 0
 687 631 695 632 704 637 c 0
 714 643 723 647 732 647 c 0
 746 647 748 636 740 625 c 0
 715 592 681 515 667 465 c 0
 664 451 657 442 644 442 c 0
 631 442 624 455 626 483 c 0
 629 522 626 556 607 583 c 0
 589 609 552 629 511 629 c 0
 387 629 268 513 211 292 c 0
 171 138 248 21 365 21 c 0
 416 21 453 60 466 102 c 2
 499 214 l 2
 503 230 501 243 483 251 c 0
 466 258 439 264 424 267 c 0
 413 270 401 277 404 289 c 0
 407 298 419 304 431 304 c 0
 476 304 542 295 583 295 c 0
 621 295 656 303 714 303 c 0
 725 303 730 298 727 288 c 0
 724 276 715 271 701 267 c 0
 660 258 647 247 633 220 c 0
 617 187 594 127 594 113 c 0
 594 98 601 88 614 74 c 1
 592 29 423 -14 339 -14 c 0
EndSplineSet
EndChar

StartChar: sterling
Encoding: 163 163 90
Width: 780
Flags: HW
HStem: -3 21G<-31.5 -6.5 235 262.5 388.5 415.5 654 679> 306 46<292 559 313 545> 630 20G<292 331.5 722.5 761.5> 635 20G<173.5 200.5 854.5 882>
VStem: -41.35 933.67
LayerCount: 2
Fore
SplineSet
-27 -3 m 0xd8
 -36 -3 -44 2 -41 11 c 0
 -38 22 -29 29 -14 32 c 0
 33 44 51 54 64 93 c 2
 206 551 l 2
 219 595 212 607 168 619 c 0
 155 622 151 629 154 640 c 0
 156 649 169 655 178 655 c 0xd8
 223 655 272 650 312 650 c 0xe8
 351 650 415 654 458 654 c 0
 469 654 474 649 472 640 c 0
 468 627 459 623 444 619 c 0
 386 603 370 590 358 550 c 2
 302 366 l 2
 299 356 303 352 313 352 c 2
 559 352 l 2
 567 352 573 356 576 367 c 2
 632 550 l 2
 644 590 637 601 589 619 c 0
 577 623 572 627 575 640 c 0
 578 649 587 654 598 654 c 0
 641 654 703 650 742 650 c 0
 781 650 832 655 877 655 c 0
 887 655 895 649 892 640 c 0
 889 629 879 622 864 619 c 0
 815 607 799 593 786 551 c 2
 644 94 l 2
 632 55 643 42 684 32 c 0
 697 29 702 22 699 11 c 0
 696 2 684 -3 674 -3 c 0
 634 -3 580 2 541 2 c 0
 502 2 437 -3 394 -3 c 0
 383 -3 378 2 381 12 c 0
 384 24 393 28 408 32 c 0
 462 47 481 60 493 98 c 2
 551 290 l 2
 555 300 554 306 545 306 c 2
 297 306 l 2
 287 306 280 300 277 290 c 2
 219 99 l 2
 207 58 219 49 265 32 c 0
 277 28 283 24 279 12 c 0
 277 2 268 -3 257 -3 c 0
 213 -3 151 2 112 2 c 0
 72 2 14 -3 -27 -3 c 0xd8
EndSplineSet
EndChar

StartChar: currency
Encoding: 164 164 91
Width: 378
Flags: W
HStem: -3 21G<-31 -3.5 253 280.5> 630 20G<299.5 339.5> 635 20G<174 201.5>
VStem: -41.34 522.12
LayerCount: 2
Fore
SplineSet
-26 -3 m 0xb0
 -36 -3 -44 2 -41 11 c 0
 -38 22 -28 29 -14 32 c 0
 40 44 60 55 73 97 c 2
 214 551 l 2
 227 595 218 606 169 619 c 0
 156 622 151 629 155 640 c 0
 157 649 169 655 179 655 c 0xb0
 224 655 279 650 320 650 c 0xd0
 359 650 423 654 467 654 c 0
 478 654 483 649 480 640 c 0
 477 627 468 623 452 619 c 0
 394 603 378 591 366 550 c 2
 238 134 l 2
 215 59 221 48 266 36 c 0
 295 29 301 24 297 12 c 0
 295 2 286 -3 275 -3 c 0
 231 -3 160 2 120 2 c 0
 79 2 19 -3 -26 -3 c 0xb0
EndSplineSet
EndChar

StartChar: yen
Encoding: 165 165 92
Width: 378
Flags: W
HStem: -200 39<-42 -38.5> 630 20G<313.5 353> 635 20G<187.5 215>
VStem: -200 691.35
LayerCount: 2
Fore
SplineSet
-70 -200 m 0xb0
 -165 -200 -199 -176 -200 -143 c 0
 -200 -104 -184 -75 -162 -75 c 0
 -145 -75 -123 -96 -100 -118 c 0
 -76 -139 -52 -161 -32 -161 c 0
 1 -161 24 -109 63 20 c 2
 227 551 l 2
 240 595 231 607 183 619 c 0
 171 622 166 629 169 640 c 0
 170 649 183 655 192 655 c 0xb0
 238 655 293 650 334 650 c 0xd0
 372 650 434 654 478 654 c 0
 489 654 493 649 491 640 c 0
 488 627 479 623 464 619 c 0
 406 604 393 591 380 550 c 2
 231 68 l 2
 206 -16 161 -77 103 -126 c 0
 53 -170 -7 -200 -70 -200 c 0xb0
EndSplineSet
EndChar

StartChar: brokenbar
Encoding: 166 166 93
Width: 762
Flags: W
HStem: -5 21G<651 693.5> -4 21G<222 260> -2 21G<397.5 425.5> 321 33<297.5 336.5> 630 20G<298 337> 631 20G<564 639 639 672> 634 20G<440 467.5 799 842.5> 635 20G<176 203.5>
VStem: -42 899
LayerCount: 2
Fore
SplineSet
-18 -6 m 0x5180
 -31 -6 -44 2 -42 11 c 0
 -38 22 -27 29 -9 32 c 0
 44 42 59 55 72 98 c 2
 212 551 l 2
 225 595 216 607 168 619 c 0
 157 621 152 626 152 635 c 0
 152 646 167 655 185 655 c 0x5180
 222 655 278 650 318 650 c 0x3880
 356 650 418 654 462 654 c 0
 473 654 478 650 478 643 c 0
 478 628 463 623 448 619 c 0x3180
 390 604 377 593 365 550 c 2
 309 370 l 2
 306 357 310 354 324 354 c 0
 349 354 378 369 410 401 c 2
 569 551 l 2
 584 566 594 577 597 586 c 0
 601 598 580 610 560 614 c 0
 544 618 538 623 538 634 c 0
 538 646 551 651 564 651 c 2
 639 651 l 2x3480
 705 651 762 654 836 654 c 0
 849 654 857 649 857 640 c 0
 857 628 835 621 821 619 c 0
 751 613 705 593 660 557 c 0
 592 503 518 442 451 377 c 0
 440 365 438 357 443 347 c 0
 508 210 559 137 599 93 c 0
 626 62 653 48 685 36 c 0
 699 31 718 25 718 13 c 0
 718 2 706 -5 681 -5 c 0x9280
 621 -5 583 1 526 1 c 0
 483 1 448 -2 403 -2 c 0
 392 -2 380 4 380 13 c 0
 380 26 395 33 412 36 c 0
 446 43 435 72 425 96 c 2x3180
 332 286 l 2
 320 311 308 321 301 321 c 0
 294 321 291 316 289 309 c 2
 228 100 l 2
 216 60 219 46 266 32 c 0
 278 28 287 25 287 14 c 0
 287 2 267 -4 253 -4 c 0
 191 -4 159 4 120 4 c 0
 79 4 47 -6 -18 -6 c 0x5180
EndSplineSet
EndChar

